SplineFontDB: 1.0
FontName: DejaVuSans
FullName: DejaVu Sans
FamilyName: DejaVu Sans
Weight: Book
Copyright: Copyright (c) 2003 by Bitstream, Inc. All Rights Reserved.\nDejaVu changes are in public domain\n
Version: 1.11
ItalicAngle: 0
UnderlinePosition: -213
UnderlineWidth: 143
Ascent: 1556
Descent: 492
Order2: 1
NeedsXUIDChange: 1
FSType: 4
PfmFamily: 17
TTFWeight: 400
TTFWidth: 5
Panose: 2 11 6 3 3 8 4 2 2 4
LineGap: 410
VLineGap: 0
OS2TypoAscent: 1556
OS2TypoDescent: -492
OS2TypoLinegap: 0
OS2WinAscent: 1901
OS2WinAOffset: 0
OS2WinDescent: 483
OS2WinDOffset: 0
HheadAscent: 1901
HheadAOffset: 0
HheadDescent: -483
HheadDOffset: 0
ScriptLang: 2
 1 latn 1 dflt 
 1 DFLT 1 dflt 
TtfTable: prep 1384
\,q1Gs82ctq@j&-,m3ot"8A)`p'q2trWDfl"7mf@ndYclQ36V&"7M+5"n2EmmZmtBQ36LM"7,dc
lM^nM3WnS4"6]Xcjt[&#jAQ6DQ363*5m?=J"68Ao"loF]i\(DmrWD*X"5bj9h@p(JQ35qA"5=Fj
g3j(V]*$^b"4i>q"kJ)(e^R(meU7PL7g%5g)[4^i"4A+jdJa6prWCLG"4$lJc'AIUb8pi2rWC=b
"3NA$ao2C^Kb4L.*!=.q"2t0@_u9bTrWC"9"2Om<^]">LrWBk5"2+U8]D_oD&HfRu,mCjY"1YhP
"h=O6\$fQG\%;aOJ-<<g,mC__5lUqp5QnJ@"18%0Z^(^!rWBG)"0hb,YPnX,A-8qD"0AOL"fu5:
X/Zd9X!IkJ&d,+j5m=7a"/u2$Vu?dqrWAu0"/PnuUS85%UG;qG%KiD8"/(N;"e_.`TDeqaSI>[n
rWA]"".Yhu"e9**S!jllRi)<s&-J=-".9&iQ^/'aQi7)Q%0MlQ5m<O>"-euZ"dCD;P7@\Xq?)kA
]*4>r"-ARL"d$=uOFRIpN[4ji>m$-Q"HFc1NW'$=M_50lrWA'2",_gZ"c>SJM22NCM%g&J$Nl0=
,mB'7",;LA"bn<*Kb4E?rW@e)&I!gd"+h*eJc5b%rW@ZL"$lm8I=29JrW@Rs"+4V]HW1^`HR/c?
rW@HF"*b:XG74Rs$3PGM"*FAAF8>uZq?(a6"*"5ADuKiVrW?s[")Il<C(Wc9C/Y4KrW?h^"(r34
"_R`9Ac;dBrW?[0"(M63@6+Kuq?(%4"'tm.>Q+_.rW?;*$3aT/"'>m4<u)YW=#'kYrW?/"'a7T(
"&p!;;ZRF5;]#U7'E_3)'*V84"&K@-:]:Gk9b7J'rW>k+"&/[r91fj$9E##c8Iu%t'*CfH%0]<7
"%Wk'8,`T[Q30RA"%<+j6NShC6i$mO])t>l"$lhf5Q1aK4V@o^'E^K\%g>*/"$AXS"[#'M%g+m&
"$6D`3W9+?2\ZETq?&Z7&-Y!,"#`"E"Z?no2%'LC*Wn2-"#;S="Z$&Z0ae(;0+.q;%0J6k""l/3
"YL>g/I;M11'9$V,m>f0""G`4"Y(f#.1u_2-RApE5m&J\""#<%"XX`^,msf#rW=DE"!S6X+TW,X
+VFl"A-3qM"!/Hl"Wh1V*=W)j&OHX@rW=,9!uaK.)%f1=)?'^TA-3V`)$LiU!u:nK"VqsX(&e:L
rW<i5!tl24"VUe:&HXNf&OHR2I01!j!tP;4%1F!U%K6G<!>#DC('=sD!t#SA$2t#4!\FQ]rW<B>

StartChar: .notdef
Encoding: 0 -1 0
Width: 1229
Flags: W
Fore
102 -362 m 1,0,-1
 102 1444 l 1,1,-1
 1126 1444 l 1,2,-1
 1126 -362 l 1,3,-1
 102 -362 l 1,0,-1
217 -248 m 1,4,-1
 1012 -248 l 1,5,-1
 1012 1329 l 1,6,-1
 217 1329 l 1,7,-1
 217 -248 l 1,4,-1
EndSplineSet
EndChar
StartChar: exclam
Encoding: 33 33 4
Width: 821
Flags: W
Fore
309 254 m 1,0,-1
 512 254 l 1,1,-1
 512 0 l 1,2,-1
 309 0 l 1,3,-1
 309 254 l 1,0,-1
309 1493 m 1,4,-1
 512 1493 l 1,5,-1
 512 838 l 1,6,-1
 492 481 l 1,7,-1
 330 481 l 1,8,-1
 309 838 l 1,9,-1
 309 1493 l 1,4,-1
EndSplineSet
EndChar
StartChar: quotedbl
Encoding: 34 34 5
Width: 942
Flags: W
Fore
367 1493 m 1,0,-1
 367 938 l 1,1,-1
 197 938 l 1,2,-1
 197 1493 l 1,3,-1
 367 1493 l 1,0,-1
745 1493 m 1,4,-1
 745 938 l 1,5,-1
 575 938 l 1,6,-1
 575 1493 l 1,7,-1
 745 1493 l 1,4,-1
EndSplineSet
EndChar
StartChar: numbersign
Encoding: 35 35 6
Width: 1716
Flags: W
Fore
1047 901 m 1,0,-1
 756 901 l 1,1,-1
 672 567 l 1,2,-1
 965 567 l 1,3,-1
 1047 901 l 1,0,-1
897 1470 m 1,4,-1
 793 1055 l 1,5,-1
 1085 1055 l 1,6,-1
 1190 1470 l 1,7,-1
 1350 1470 l 1,8,-1
 1247 1055 l 1,9,-1
 1559 1055 l 1,10,-1
 1559 901 l 1,11,-1
 1208 901 l 1,12,-1
 1126 567 l 1,13,-1
 1444 567 l 1,14,-1
 1444 414 l 1,15,-1
 1087 414 l 1,16,-1
 983 0 l 1,17,-1
 823 0 l 1,18,-1
 926 414 l 1,19,-1
 633 414 l 1,20,-1
 530 0 l 1,21,-1
 369 0 l 1,22,-1
 473 414 l 1,23,-1
 158 414 l 1,24,-1
 158 567 l 1,25,-1
 510 567 l 1,26,-1
 594 901 l 1,27,-1
 272 901 l 1,28,-1
 272 1055 l 1,29,-1
 633 1055 l 1,30,-1
 735 1470 l 1,31,-1
 897 1470 l 1,4,-1
EndSplineSet
EndChar
StartChar: dollar
Encoding: 36 36 7
Width: 1303
Flags: W
Fore
692 -301 m 1,0,-1
 592 -301 l 1,1,-1
 591 0 l 1,2,3
 486 2 486 2 381 24.5 c 128,-1,4
 276 47 276 47 170 92 c 1,5,-1
 170 272 l 1,6,7
 272 208 272 208 376.5 175.5 c 128,-1,8
 481 143 481 143 592 142 c 1,9,-1
 592 598 l 1,10,11
 371 634 371 634 270.5 720 c 128,-1,12
 170 806 170 806 170 956 c 0,13,14
 170 1119 170 1119 279 1213 c 128,-1,15
 388 1307 388 1307 592 1321 c 1,16,-1
 592 1556 l 1,17,-1
 692 1556 l 1,18,-1
 692 1324 l 1,19,20
 785 1320 785 1320 872 1304.5 c 128,-1,21
 959 1289 959 1289 1042 1262 c 1,22,-1
 1042 1087 l 1,23,24
 959 1129 959 1129 871.5 1152 c 128,-1,25
 784 1175 784 1175 692 1179 c 1,26,-1
 692 752 l 1,27,28
 919 717 919 717 1026 627 c 128,-1,29
 1133 537 1133 537 1133 381 c 0,30,31
 1133 212 1133 212 1019.5 114.5 c 128,-1,32
 906 17 906 17 692 2 c 1,33,-1
 692 -301 l 1,0,-1
592 770 m 1,34,-1
 592 1180 l 1,35,36
 476 1167 476 1167 415 1114 c 128,-1,37
 354 1061 354 1061 354 973 c 0,38,39
 354 887 354 887 410.5 839 c 128,-1,40
 467 791 467 791 592 770 c 1,34,-1
692 578 m 1,41,-1
 692 145 l 1,42,43
 819 162 819 162 883.5 217 c 128,-1,44
 948 272 948 272 948 362 c 0,45,46
 948 450 948 450 886.5 502 c 128,-1,47
 825 554 825 554 692 578 c 1,41,-1
EndSplineSet
EndChar
StartChar: percent
Encoding: 37 37 8
Width: 1946
Flags: W
Fore
1489 657 m 0,0,1
 1402 657 1402 657 1352.5 583 c 128,-1,2
 1303 509 1303 509 1303 377 c 0,3,4
 1303 247 1303 247 1352.5 172.5 c 128,-1,5
 1402 98 1402 98 1489 98 c 0,6,7
 1574 98 1574 98 1623.5 172.5 c 128,-1,8
 1673 247 1673 247 1673 377 c 0,9,10
 1673 508 1673 508 1623.5 582.5 c 128,-1,11
 1574 657 1574 657 1489 657 c 0,0,1
1489 784 m 0,12,13
 1647 784 1647 784 1740 674 c 128,-1,14
 1833 564 1833 564 1833 377 c 0,15,16
 1833 190 1833 190 1739.5 80.5 c 128,-1,17
 1646 -29 1646 -29 1489 -29 c 0,18,19
 1329 -29 1329 -29 1236 80.5 c 128,-1,20
 1143 190 1143 190 1143 377 c 0,21,22
 1143 565 1143 565 1236.5 674.5 c 128,-1,23
 1330 784 1330 784 1489 784 c 0,12,13
457 1393 m 0,24,25
 371 1393 371 1393 321.5 1318.5 c 128,-1,26
 272 1244 272 1244 272 1114 c 0,27,28
 272 982 272 982 321 908 c 128,-1,29
 370 834 370 834 457 834 c 0,30,31
 544 834 544 834 593.5 908 c 128,-1,32
 643 982 643 982 643 1114 c 0,33,34
 643 1243 643 1243 593 1318 c 128,-1,35
 543 1393 543 1393 457 1393 c 0,24,25
1360 1520 m 1,36,-1
 1520 1520 l 1,37,-1
 586 -29 l 1,38,-1
 426 -29 l 1,39,-1
 1360 1520 l 1,36,-1
457 1520 m 0,40,41
 615 1520 615 1520 709 1410.5 c 128,-1,42
 803 1301 803 1301 803 1114 c 0,43,44
 803 925 803 925 709.5 816 c 128,-1,45
 616 707 616 707 457 707 c 0,46,47
 298 707 298 707 205.5 816.5 c 128,-1,48
 113 926 113 926 113 1114 c 0,49,50
 113 1300 113 1300 206 1410 c 128,-1,51
 299 1520 299 1520 457 1520 c 0,40,41
EndSplineSet
EndChar
StartChar: ampersand
Encoding: 38 38 9
Width: 1597
Flags: W
Fore
498 803 m 1,0,1
 407 722 407 722 364.5 641.5 c 128,-1,2
 322 561 322 561 322 473 c 0,3,4
 322 327 322 327 428 230 c 128,-1,5
 534 133 534 133 694 133 c 0,6,7
 789 133 789 133 872 164.5 c 128,-1,8
 955 196 955 196 1028 260 c 1,9,-1
 498 803 l 1,0,1
639 915 m 2,10,-1
 1147 395 l 1,11,12
 1206 484 1206 484 1239 585.5 c 128,-1,13
 1272 687 1272 687 1278 801 c 1,14,-1
 1464 801 l 1,15,16
 1452 669 1452 669 1400 540 c 128,-1,17
 1348 411 1348 411 1255 285 c 1,18,-1
 1534 0 l 1,19,-1
 1282 0 l 1,20,-1
 1139 147 l 1,21,22
 1035 58 1035 58 921 14.5 c 128,-1,23
 807 -29 807 -29 676 -29 c 0,24,25
 435 -29 435 -29 282 108.5 c 128,-1,26
 129 246 129 246 129 461 c 0,27,28
 129 589 129 589 196 701.5 c 128,-1,29
 263 814 263 814 397 913 c 1,30,31
 349 976 349 976 324 1038.5 c 128,-1,32
 299 1101 299 1101 299 1161 c 0,33,34
 299 1323 299 1323 410 1421.5 c 128,-1,35
 521 1520 521 1520 705 1520 c 0,36,37
 788 1520 788 1520 870.5 1502 c 128,-1,38
 953 1484 953 1484 1038 1448 c 1,39,-1
 1038 1266 l 1,40,41
 951 1313 951 1313 872 1337.5 c 128,-1,42
 793 1362 793 1362 725 1362 c 0,43,44
 620 1362 620 1362 554.5 1306.5 c 128,-1,45
 489 1251 489 1251 489 1163 c 0,46,47
 489 1112 489 1112 518.5 1060.5 c 128,-1,48
 548 1009 548 1009 639 915 c 2,10,-1
EndSplineSet
EndChar
StartChar: quotesingle
Encoding: 39 39 10
Width: 563
Flags: W
Fore
367 1493 m 1,0,-1
 367 938 l 1,1,-1
 197 938 l 1,2,-1
 197 1493 l 1,3,-1
 367 1493 l 1,0,-1
EndSplineSet
EndChar
StartChar: parenleft
Encoding: 40 40 11
Width: 799
Flags: W
Fore
635 1554 m 1,0,1
 501 1324 501 1324 436 1099 c 128,-1,2
 371 874 371 874 371 643 c 0,3,4
 371 412 371 412 436.5 185.5 c 128,-1,5
 502 -41 502 -41 635 -270 c 1,6,-1
 475 -270 l 1,7,8
 325 -35 325 -35 250.5 192 c 128,-1,9
 176 419 176 419 176 643 c 0,10,11
 176 866 176 866 250 1092 c 128,-1,12
 324 1318 324 1318 475 1554 c 1,13,-1
 635 1554 l 1,0,1
EndSplineSet
EndChar
StartChar: parenright
Encoding: 41 41 12
Width: 799
Flags: W
Fore
164 1554 m 1,0,-1
 324 1554 l 1,1,2
 474 1318 474 1318 548.5 1092 c 128,-1,3
 623 866 623 866 623 643 c 0,4,5
 623 419 623 419 548.5 192 c 128,-1,6
 474 -35 474 -35 324 -270 c 1,7,-1
 164 -270 l 1,8,9
 297 -41 297 -41 362.5 185.5 c 128,-1,10
 428 412 428 412 428 643 c 0,11,12
 428 874 428 874 362.5 1099 c 128,-1,13
 297 1324 297 1324 164 1554 c 1,0,-1
EndSplineSet
EndChar
StartChar: asterisk
Encoding: 42 42 13
Width: 1024
Flags: W
Fore
963 1247 m 1,0,-1
 604 1053 l 1,1,-1
 963 858 l 1,2,-1
 905 760 l 1,3,-1
 569 963 l 1,4,-1
 569 586 l 1,5,-1
 455 586 l 1,6,-1
 455 963 l 1,7,-1
 119 760 l 1,8,-1
 61 858 l 1,9,-1
 420 1053 l 1,10,-1
 61 1247 l 1,11,-1
 119 1346 l 1,12,-1
 455 1143 l 1,13,-1
 455 1520 l 1,14,-1
 569 1520 l 1,15,-1
 569 1143 l 1,16,-1
 905 1346 l 1,17,-1
 963 1247 l 1,0,-1
EndSplineSet
EndChar
StartChar: plus
Encoding: 43 43 14
Width: 1716
Flags: W
Fore
942 1284 m 1,0,-1
 942 727 l 1,1,-1
 1499 727 l 1,2,-1
 1499 557 l 1,3,-1
 942 557 l 1,4,-1
 942 0 l 1,5,-1
 774 0 l 1,6,-1
 774 557 l 1,7,-1
 217 557 l 1,8,-1
 217 727 l 1,9,-1
 774 727 l 1,10,-1
 774 1284 l 1,11,-1
 942 1284 l 1,0,-1
EndSplineSet
EndChar
StartChar: comma
Encoding: 44 44 15
Width: 651
Flags: W
Fore
240 254 m 1,0,-1
 451 254 l 1,1,-1
 451 82 l 1,2,-1
 287 -238 l 1,3,-1
 158 -238 l 1,4,-1
 240 82 l 1,5,-1
 240 254 l 1,0,-1
EndSplineSet
EndChar
StartChar: hyphen
Encoding: 45 45 16
Width: 739
Flags: W
Fore
100 643 m 1,0,-1
 639 643 l 1,1,-1
 639 479 l 1,2,-1
 100 479 l 1,3,-1
 100 643 l 1,0,-1
EndSplineSet
KernsSLIF: 256 -45 0 0 258 -45 0 0 260 -45 0 0 356 -188 0 0 286 75 0 0 253 -36 0 0 221 -243 0 0 210 57 0 0 212 57 0 0 211 57 0 0 193 -45 0 0 194 -45 0 0 376 -243 0 0 255 -36 0 0 213 57 0 0 195 -45 0 0 192 -45 0 0 245 38 0 0 246 38 0 0 244 38 0 0 242 38 0 0 243 38 0 0 214 57 0 0 196 -45 0 0 121 -36 0 0 118 -55 0 0 111 38 0 0 89 -243 0 0 88 -102 0 0 87 -83 0 0 86 -120 0 0 84 -188 0 0 81 75 0 0 79 57 0 0 74 114 0 0 71 75 0 0 66 -73 0 0 65 -45 0 0
EndChar
StartChar: period
Encoding: 46 46 17
Width: 651
Flags: W
Fore
219 254 m 1,0,-1
 430 254 l 1,1,-1
 430 0 l 1,2,-1
 219 0 l 1,3,-1
 219 254 l 1,0,-1
EndSplineSet
EndChar
StartChar: slash
Encoding: 47 47 18
Width: 690
Flags: W
Fore
520 1493 m 1,0,-1
 690 1493 l 1,1,-1
 170 -190 l 1,2,-1
 0 -190 l 1,3,-1
 520 1493 l 1,0,-1
EndSplineSet
EndChar
StartChar: zero
Encoding: 48 48 19
Width: 1303
Flags: W
Fore
651 1360 m 0,0,1
 495 1360 495 1360 416.5 1206.5 c 128,-1,2
 338 1053 338 1053 338 745 c 0,3,4
 338 438 338 438 416.5 284.5 c 128,-1,5
 495 131 495 131 651 131 c 0,6,7
 808 131 808 131 886.5 284.5 c 128,-1,8
 965 438 965 438 965 745 c 0,9,10
 965 1053 965 1053 886.5 1206.5 c 128,-1,11
 808 1360 808 1360 651 1360 c 0,0,1
651 1520 m 0,12,13
 902 1520 902 1520 1034.5 1321.5 c 128,-1,14
 1167 1123 1167 1123 1167 745 c 0,15,16
 1167 368 1167 368 1034.5 169.5 c 128,-1,17
 902 -29 902 -29 651 -29 c 0,18,19
 400 -29 400 -29 267.5 169.5 c 128,-1,20
 135 368 135 368 135 745 c 0,21,22
 135 1123 135 1123 267.5 1321.5 c 128,-1,23
 400 1520 400 1520 651 1520 c 0,12,13
EndSplineSet
EndChar
StartChar: one
Encoding: 49 49 20
Width: 1303
Flags: W
Fore
254 170 m 1,0,-1
 584 170 l 1,1,-1
 584 1309 l 1,2,-1
 225 1237 l 1,3,-1
 225 1421 l 1,4,-1
 582 1493 l 1,5,-1
 784 1493 l 1,6,-1
 784 170 l 1,7,-1
 1114 170 l 1,8,-1
 1114 0 l 1,9,-1
 254 0 l 1,10,-1
 254 170 l 1,0,-1
EndSplineSet
EndChar
StartChar: two
Encoding: 50 50 21
Width: 1303
Flags: W
Fore
393 170 m 1,0,-1
 1098 170 l 1,1,-1
 1098 0 l 1,2,-1
 150 0 l 1,3,-1
 150 170 l 1,4,5
 265 289 265 289 463.5 489.5 c 128,-1,6
 662 690 662 690 713 748 c 0,7,8
 810 857 810 857 848.5 932.5 c 128,-1,9
 887 1008 887 1008 887 1081 c 0,10,11
 887 1200 887 1200 803.5 1275 c 128,-1,12
 720 1350 720 1350 586 1350 c 0,13,14
 491 1350 491 1350 385.5 1317 c 128,-1,15
 280 1284 280 1284 160 1217 c 1,16,-1
 160 1421 l 1,17,18
 282 1470 282 1470 388 1495 c 128,-1,19
 494 1520 494 1520 582 1520 c 0,20,21
 814 1520 814 1520 952 1404 c 128,-1,22
 1090 1288 1090 1288 1090 1094 c 0,23,24
 1090 1002 1090 1002 1055.5 919.5 c 128,-1,25
 1021 837 1021 837 930 725 c 1,26,27
 905 696 905 696 771 557.5 c 128,-1,28
 637 419 637 419 393 170 c 1,0,-1
EndSplineSet
EndChar
StartChar: three
Encoding: 51 51 22
Width: 1303
Flags: W
Fore
831 805 m 1,0,1
 976 774 976 774 1057.5 676 c 128,-1,2
 1139 578 1139 578 1139 434 c 0,3,4
 1139 213 1139 213 987 92 c 128,-1,5
 835 -29 835 -29 555 -29 c 0,6,7
 461 -29 461 -29 361.5 -10.5 c 128,-1,8
 262 8 262 8 156 45 c 1,9,-1
 156 240 l 1,10,11
 240 191 240 191 340 166 c 128,-1,12
 440 141 440 141 549 141 c 0,13,14
 739 141 739 141 838.5 216 c 128,-1,15
 938 291 938 291 938 434 c 0,16,17
 938 566 938 566 845.5 640.5 c 128,-1,18
 753 715 753 715 588 715 c 2,19,-1
 414 715 l 1,20,-1
 414 881 l 1,21,-1
 596 881 l 2,22,23
 745 881 745 881 824 940.5 c 128,-1,24
 903 1000 903 1000 903 1112 c 0,25,26
 903 1227 903 1227 821.5 1288.5 c 128,-1,27
 740 1350 740 1350 588 1350 c 0,28,29
 505 1350 505 1350 410 1332 c 128,-1,30
 315 1314 315 1314 201 1276 c 1,31,-1
 201 1456 l 1,32,33
 316 1488 316 1488 416.5 1504 c 128,-1,34
 517 1520 517 1520 606 1520 c 0,35,36
 836 1520 836 1520 970 1415.5 c 128,-1,37
 1104 1311 1104 1311 1104 1133 c 0,38,39
 1104 1009 1104 1009 1033 923.5 c 128,-1,40
 962 838 962 838 831 805 c 1,0,1
EndSplineSet
EndChar
StartChar: four
Encoding: 52 52 23
Width: 1303
Flags: W
Fore
774 1317 m 1,0,-1
 264 520 l 1,1,-1
 774 520 l 1,2,-1
 774 1317 l 1,0,-1
721 1493 m 1,3,-1
 975 1493 l 1,4,-1
 975 520 l 1,5,-1
 1188 520 l 1,6,-1
 1188 352 l 1,7,-1
 975 352 l 1,8,-1
 975 0 l 1,9,-1
 774 0 l 1,10,-1
 774 352 l 1,11,-1
 100 352 l 1,12,-1
 100 547 l 1,13,-1
 721 1493 l 1,3,-1
EndSplineSet
EndChar
StartChar: five
Encoding: 53 53 24
Width: 1303
Flags: W
Fore
221 1493 m 1,0,-1
 1014 1493 l 1,1,-1
 1014 1323 l 1,2,-1
 406 1323 l 1,3,-1
 406 957 l 1,4,5
 450 972 450 972 494 979.5 c 128,-1,6
 538 987 538 987 582 987 c 0,7,8
 832 987 832 987 978 850 c 128,-1,9
 1124 713 1124 713 1124 479 c 0,10,11
 1124 238 1124 238 974 104.5 c 128,-1,12
 824 -29 824 -29 551 -29 c 0,13,14
 457 -29 457 -29 359.5 -13 c 128,-1,15
 262 3 262 3 158 35 c 1,16,-1
 158 238 l 1,17,18
 248 189 248 189 344 165 c 128,-1,19
 440 141 440 141 547 141 c 0,20,21
 720 141 720 141 821 232 c 128,-1,22
 922 323 922 323 922 479 c 0,23,24
 922 635 922 635 821 726 c 128,-1,25
 720 817 720 817 547 817 c 0,26,27
 466 817 466 817 385.5 799 c 128,-1,28
 305 781 305 781 221 743 c 1,29,-1
 221 1493 l 1,0,-1
EndSplineSet
EndChar
StartChar: six
Encoding: 54 54 25
Width: 1303
Flags: W
Fore
676 827 m 0,0,1
 540 827 540 827 460.5 734 c 128,-1,2
 381 641 381 641 381 479 c 0,3,4
 381 318 381 318 460.5 224.5 c 128,-1,5
 540 131 540 131 676 131 c 0,6,7
 812 131 812 131 891.5 224.5 c 128,-1,8
 971 318 971 318 971 479 c 0,9,10
 971 641 971 641 891.5 734 c 128,-1,11
 812 827 812 827 676 827 c 0,0,1
1077 1460 m 1,12,-1
 1077 1276 l 1,13,14
 1001 1312 1001 1312 923.5 1331 c 128,-1,15
 846 1350 846 1350 770 1350 c 0,16,17
 570 1350 570 1350 464.5 1215 c 128,-1,18
 359 1080 359 1080 344 807 c 1,19,20
 403 894 403 894 492 940.5 c 128,-1,21
 581 987 581 987 688 987 c 0,22,23
 913 987 913 987 1043.5 850.5 c 128,-1,24
 1174 714 1174 714 1174 479 c 0,25,26
 1174 249 1174 249 1038 110 c 128,-1,27
 902 -29 902 -29 676 -29 c 0,28,29
 417 -29 417 -29 280 169.5 c 128,-1,30
 143 368 143 368 143 745 c 0,31,32
 143 1099 143 1099 311 1309.5 c 128,-1,33
 479 1520 479 1520 762 1520 c 0,34,35
 838 1520 838 1520 915.5 1505 c 128,-1,36
 993 1490 993 1490 1077 1460 c 1,12,-1
EndSplineSet
EndChar
StartChar: seven
Encoding: 55 55 26
Width: 1303
Flags: W
Fore
168 1493 m 1,0,-1
 1128 1493 l 1,1,-1
 1128 1407 l 1,2,-1
 586 0 l 1,3,-1
 375 0 l 1,4,-1
 885 1323 l 1,5,-1
 168 1323 l 1,6,-1
 168 1493 l 1,0,-1
EndSplineSet
EndChar
StartChar: eight
Encoding: 56 56 27
Width: 1303
Flags: W
Fore
651 709 m 0,0,1
 507 709 507 709 424.5 632 c 128,-1,2
 342 555 342 555 342 420 c 0,3,4
 342 285 342 285 424.5 208 c 128,-1,5
 507 131 507 131 651 131 c 0,6,7
 795 131 795 131 878 208.5 c 128,-1,8
 961 286 961 286 961 420 c 0,9,10
 961 555 961 555 878.5 632 c 128,-1,11
 796 709 796 709 651 709 c 0,0,1
449 795 m 1,12,13
 319 827 319 827 246.5 916 c 128,-1,14
 174 1005 174 1005 174 1133 c 0,15,16
 174 1312 174 1312 301.5 1416 c 128,-1,17
 429 1520 429 1520 651 1520 c 0,18,19
 874 1520 874 1520 1001 1416 c 128,-1,20
 1128 1312 1128 1312 1128 1133 c 0,21,22
 1128 1005 1128 1005 1055.5 916 c 128,-1,23
 983 827 983 827 854 795 c 1,24,25
 1000 761 1000 761 1081.5 662 c 128,-1,26
 1163 563 1163 563 1163 420 c 0,27,28
 1163 203 1163 203 1030.5 87 c 128,-1,29
 898 -29 898 -29 651 -29 c 0,30,31
 404 -29 404 -29 271.5 87 c 128,-1,32
 139 203 139 203 139 420 c 0,33,34
 139 563 139 563 221 662 c 128,-1,35
 303 761 303 761 449 795 c 1,12,13
375 1114 m 0,36,37
 375 998 375 998 447.5 933 c 128,-1,38
 520 868 520 868 651 868 c 0,39,40
 781 868 781 868 854.5 933 c 128,-1,41
 928 998 928 998 928 1114 c 0,42,43
 928 1230 928 1230 854.5 1295 c 128,-1,44
 781 1360 781 1360 651 1360 c 0,45,46
 520 1360 520 1360 447.5 1295 c 128,-1,47
 375 1230 375 1230 375 1114 c 0,36,37
EndSplineSet
EndChar
StartChar: nine
Encoding: 57 57 28
Width: 1303
Flags: W
Fore
225 31 m 1,0,-1
 225 215 l 1,1,2
 301 179 301 179 379 160 c 128,-1,3
 457 141 457 141 532 141 c 0,4,5
 732 141 732 141 837.5 275.5 c 128,-1,6
 943 410 943 410 958 684 c 1,7,8
 900 598 900 598 811 552 c 128,-1,9
 722 506 722 506 614 506 c 0,10,11
 390 506 390 506 259.5 641.5 c 128,-1,12
 129 777 129 777 129 1012 c 0,13,14
 129 1242 129 1242 265 1381 c 128,-1,15
 401 1520 401 1520 627 1520 c 0,16,17
 886 1520 886 1520 1022.5 1321.5 c 128,-1,18
 1159 1123 1159 1123 1159 745 c 0,19,20
 1159 392 1159 392 991.5 181.5 c 128,-1,21
 824 -29 824 -29 541 -29 c 0,22,23
 465 -29 465 -29 387 -14 c 128,-1,24
 309 1 309 1 225 31 c 1,0,-1
627 664 m 0,25,26
 763 664 763 664 842.5 757 c 128,-1,27
 922 850 922 850 922 1012 c 0,28,29
 922 1173 922 1173 842.5 1266.5 c 128,-1,30
 763 1360 763 1360 627 1360 c 0,31,32
 491 1360 491 1360 411.5 1266.5 c 128,-1,33
 332 1173 332 1173 332 1012 c 0,34,35
 332 850 332 850 411.5 757 c 128,-1,36
 491 664 491 664 627 664 c 0,25,26
EndSplineSet
EndChar
StartChar: colon
Encoding: 58 58 29
Width: 690
Flags: W
Fore
240 254 m 1,0,-1
 451 254 l 1,1,-1
 451 0 l 1,2,-1
 240 0 l 1,3,-1
 240 254 l 1,0,-1
240 1059 m 1,4,-1
 451 1059 l 1,5,-1
 451 805 l 1,6,-1
 240 805 l 1,7,-1
 240 1059 l 1,4,-1
EndSplineSet
EndChar
StartChar: semicolon
Encoding: 59 59 30
Width: 690
Flags: W
Fore
240 1059 m 1,0,-1
 451 1059 l 1,1,-1
 451 805 l 1,2,-1
 240 805 l 1,3,-1
 240 1059 l 1,0,-1
240 254 m 1,4,-1
 451 254 l 1,5,-1
 451 82 l 1,6,-1
 287 -238 l 1,7,-1
 158 -238 l 1,8,-1
 240 82 l 1,9,-1
 240 254 l 1,4,-1
EndSplineSet
EndChar
StartChar: less
Encoding: 60 60 31
Width: 1716
Flags: W
Fore
1499 1008 m 1,0,-1
 467 641 l 1,1,-1
 1499 276 l 1,2,-1
 1499 94 l 1,3,-1
 217 559 l 1,4,-1
 217 725 l 1,5,-1
 1499 1190 l 1,6,-1
 1499 1008 l 1,0,-1
EndSplineSet
EndChar
StartChar: equal
Encoding: 61 61 32
Width: 1716
Flags: W
Fore
217 930 m 1,0,-1
 1499 930 l 1,1,-1
 1499 762 l 1,2,-1
 217 762 l 1,3,-1
 217 930 l 1,0,-1
217 522 m 1,4,-1
 1499 522 l 1,5,-1
 1499 352 l 1,6,-1
 217 352 l 1,7,-1
 217 522 l 1,4,-1
EndSplineSet
EndChar
StartChar: greater
Encoding: 62 62 33
Width: 1716
Flags: W
Fore
217 1008 m 1,0,-1
 217 1190 l 1,1,-1
 1499 725 l 1,2,-1
 1499 559 l 1,3,-1
 217 94 l 1,4,-1
 217 276 l 1,5,-1
 1247 641 l 1,6,-1
 217 1008 l 1,0,-1
EndSplineSet
EndChar
StartChar: question
Encoding: 63 63 34
Width: 1087
Flags: W
Fore
391 254 m 1,0,-1
 594 254 l 1,1,-1
 594 0 l 1,2,-1
 391 0 l 1,3,-1
 391 254 l 1,0,-1
588 401 m 1,4,-1
 397 401 l 1,5,-1
 397 555 l 2,6,7
 397 656 397 656 425 721 c 128,-1,8
 453 786 453 786 543 872 c 1,9,-1
 633 961 l 1,10,11
 690 1014 690 1014 715.5 1061 c 128,-1,12
 741 1108 741 1108 741 1157 c 0,13,14
 741 1246 741 1246 675.5 1301 c 128,-1,15
 610 1356 610 1356 502 1356 c 0,16,17
 423 1356 423 1356 333.5 1321 c 128,-1,18
 244 1286 244 1286 147 1219 c 1,19,-1
 147 1407 l 1,20,21
 241 1464 241 1464 337.5 1492 c 128,-1,22
 434 1520 434 1520 537 1520 c 0,23,24
 721 1520 721 1520 832.5 1423 c 128,-1,25
 944 1326 944 1326 944 1167 c 0,26,27
 944 1091 944 1091 908 1022.5 c 128,-1,28
 872 954 872 954 782 868 c 2,29,-1
 694 782 l 2,30,31
 647 735 647 735 627.5 708.5 c 128,-1,32
 608 682 608 682 600 657 c 0,33,34
 594 636 594 636 591 606 c 128,-1,35
 588 576 588 576 588 524 c 2,36,-1
 588 401 l 1,4,-1
EndSplineSet
EndChar
StartChar: at
Encoding: 64 64 35
Width: 2048
Flags: W
Fore
762 537 m 0,0,1
 762 394 762 394 833 312.5 c 128,-1,2
 904 231 904 231 1028 231 c 0,3,4
 1151 231 1151 231 1221.5 313 c 128,-1,5
 1292 395 1292 395 1292 537 c 0,6,7
 1292 677 1292 677 1220 759.5 c 128,-1,8
 1148 842 1148 842 1026 842 c 0,9,10
 905 842 905 842 833.5 760 c 128,-1,11
 762 678 762 678 762 537 c 0,0,1
1307 238 m 1,12,13
 1247 161 1247 161 1169.5 124.5 c 128,-1,14
 1092 88 1092 88 989 88 c 0,15,16
 817 88 817 88 709.5 212.5 c 128,-1,17
 602 337 602 337 602 537 c 0,18,19
 602 737 602 737 710 862 c 128,-1,20
 818 987 818 987 989 987 c 0,21,22
 1092 987 1092 987 1170 949.5 c 128,-1,23
 1248 912 1248 912 1307 836 c 1,24,-1
 1307 967 l 1,25,-1
 1450 967 l 1,26,-1
 1450 231 l 1,27,28
 1596 253 1596 253 1678.5 364.5 c 128,-1,29
 1761 476 1761 476 1761 653 c 0,30,31
 1761 760 1761 760 1729.5 854 c 128,-1,32
 1698 948 1698 948 1634 1028 c 0,33,34
 1530 1159 1530 1159 1380.5 1228.5 c 128,-1,35
 1231 1298 1231 1298 1055 1298 c 0,36,37
 932 1298 932 1298 819 1265.5 c 128,-1,38
 706 1233 706 1233 610 1169 c 1,39,40
 453 1067 453 1067 364.5 901.5 c 128,-1,41
 276 736 276 736 276 543 c 0,42,43
 276 384 276 384 333.5 245 c 128,-1,44
 391 106 391 106 500 0 c 0,45,46
 605 -104 605 -104 743 -158.5 c 128,-1,47
 881 -213 881 -213 1038 -213 c 0,48,49
 1167 -213 1167 -213 1291.5 -169.5 c 128,-1,50
 1416 -126 1416 -126 1520 -45 c 1,51,-1
 1610 -156 l 1,52,53
 1485 -253 1485 -253 1337.5 -304.5 c 128,-1,54
 1190 -356 1190 -356 1038 -356 c 0,55,56
 853 -356 853 -356 689 -290.5 c 128,-1,57
 525 -225 525 -225 397 -100 c 0,58,59
 269 25 269 25 202 189.5 c 128,-1,60
 135 354 135 354 135 543 c 0,61,62
 135 725 135 725 203 890 c 128,-1,63
 271 1055 271 1055 397 1180 c 0,64,65
 526 1307 526 1307 695 1374.5 c 128,-1,66
 864 1442 864 1442 1053 1442 c 0,67,68
 1265 1442 1265 1442 1446.5 1355 c 128,-1,69
 1628 1268 1628 1268 1751 1108 c 0,70,71
 1826 1010 1826 1010 1865.5 895 c 128,-1,72
 1905 780 1905 780 1905 657 c 0,73,74
 1905 394 1905 394 1746 242 c 128,-1,75
 1587 90 1587 90 1307 84 c 1,76,-1
 1307 238 l 1,12,13
EndSplineSet
EndChar
StartChar: A
Encoding: 65 65 36
Width: 1401
Flags: W
Fore
700 1294 m 1,0,-1
 426 551 l 1,1,-1
 975 551 l 1,2,-1
 700 1294 l 1,0,-1
586 1493 m 1,3,-1
 815 1493 l 1,4,-1
 1384 0 l 1,5,-1
 1174 0 l 1,6,-1
 1038 383 l 1,7,-1
 365 383 l 1,8,-1
 229 0 l 1,9,-1
 16 0 l 1,10,-1
 586 1493 l 1,3,-1
EndSplineSet
KernsSLIF: 288 -36 0 0 284 -36 0 0 7923 -139 0 0 561 -36 0 0 562 -159 0 0 563 -139 0 0 375 -139 0 0 7813 -83 0 0 7811 -83 0 0 7809 -83 0 0 373 -83 0 0 539 -36 0 0 355 -36 0 0 493 -36 0 0 491 -36 0 0 337 -36 0 0 335 -36 0 0 333 -36 0 0 281 -36 0 0 279 -36 0 0 277 -36 0 0 275 -36 0 0 454 -36 0 0 273 -36 0 0 267 -36 0 0 265 -36 0 0 7922 -159 0 0 374 -159 0 0 7812 -112 0 0 7810 -112 0 0 7808 -112 0 0 372 -112 0 0 538 -159 0 0 354 -159 0 0 558 -36 0 0 492 -36 0 0 490 -36 0 0 336 -36 0 0 334 -36 0 0 332 -36 0 0 266 -36 0 0 264 -36 0 0 260 57 0 0 258 57 0 0 256 57 0 0 357 -36 0 0 356 -159 0 0 283 -36 0 0 271 -36 0 0 269 -36 0 0 268 -36 0 0 263 -36 0 0 262 -36 0 0 286 -36 0 0 253 -139 0 0 221 -159 0 0 210 -36 0 0 212 -36 0 0 211 -36 0 0 193 57 0 0 194 57 0 0 8222 47 0 0 376 -159 0 0 255 -139 0 0 8221 -253 0 0 8220 -264 0 0 213 -36 0 0 195 57 0 0 192 57 0 0 171 -73 0 0 245 -36 0 0 246 -36 0 0 244 -36 0 0 242 -36 0 0 243 -36 0 0 235 -36 0 0 234 -36 0 0 232 -36 0 0 233 -36 0 0 231 -36 0 0 214 -36 0 0 199 -36 0 0 196 57 0 0 121 -139 0 0 119 -83 0 0 118 -120 0 0 116 -36 0 0 113 -36 0 0 111 -36 0 0 102 -73 0 0 101 -36 0 0 100 -36 0 0 99 -36 0 0 89 -159 0 0 87 -112 0 0 86 -131 0 0 84 -159 0 0 81 -36 0 0 79 -36 0 0 71 -36 0 0 67 -36 0 0 65 57 0 0 58 -36 0 0 46 -36 0 0 45 -45 0 0
EndChar
StartChar: B
Encoding: 66 66 37
Width: 1405
Flags: W
Fore
403 713 m 1,0,-1
 403 166 l 1,1,-1
 727 166 l 2,2,3
 890 166 890 166 968.5 233.5 c 128,-1,4
 1047 301 1047 301 1047 440 c 0,5,6
 1047 580 1047 580 968.5 646.5 c 128,-1,7
 890 713 890 713 727 713 c 2,8,-1
 403 713 l 1,0,-1
403 1327 m 1,9,-1
 403 877 l 1,10,-1
 702 877 l 2,11,12
 850 877 850 877 922.5 932.5 c 128,-1,13
 995 988 995 988 995 1102 c 0,14,15
 995 1215 995 1215 922.5 1271 c 128,-1,16
 850 1327 850 1327 702 1327 c 2,17,-1
 403 1327 l 1,9,-1
201 1493 m 1,18,-1
 717 1493 l 2,19,20
 948 1493 948 1493 1073 1397 c 128,-1,21
 1198 1301 1198 1301 1198 1124 c 0,22,23
 1198 987 1198 987 1134 906 c 128,-1,24
 1070 825 1070 825 946 805 c 1,25,26
 1095 773 1095 773 1177.5 671.5 c 128,-1,27
 1260 570 1260 570 1260 418 c 0,28,29
 1260 218 1260 218 1124 109 c 128,-1,30
 988 0 988 0 737 0 c 2,31,-1
 201 0 l 1,32,-1
 201 1493 l 1,18,-1
EndSplineSet
KernsSLIF: 558 -36 0 0 492 -36 0 0 490 -36 0 0 7922 -112 0 0 374 -112 0 0 7812 -73 0 0 7810 -73 0 0 7808 -73 0 0 372 -73 0 0 536 -36 0 0 348 -36 0 0 346 -36 0 0 336 -36 0 0 334 -36 0 0 332 -36 0 0 290 -36 0 0 288 -36 0 0 284 -36 0 0 266 -36 0 0 264 -36 0 0 268 -36 0 0 262 -36 0 0 350 -36 0 0 286 -36 0 0 221 -112 0 0 352 -36 0 0 210 -36 0 0 212 -36 0 0 211 -36 0 0 8222 -83 0 0 376 -112 0 0 8221 -112 0 0 8220 -112 0 0 213 -36 0 0 187 -36 0 0 171 -63 0 0 214 -36 0 0 199 -36 0 0 89 -112 0 0 87 -73 0 0 86 -63 0 0 83 -36 0 0 79 -36 0 0 71 -36 0 0 67 -36 0 0
EndChar
StartChar: C
Encoding: 67 67 38
Width: 1430
Flags: W
Fore
1319 1378 m 1,0,-1
 1319 1165 l 1,1,2
 1217 1260 1217 1260 1101.5 1307 c 128,-1,3
 986 1354 986 1354 856 1354 c 0,4,5
 600 1354 600 1354 464 1197.5 c 128,-1,6
 328 1041 328 1041 328 745 c 0,7,8
 328 450 328 450 464 293.5 c 128,-1,9
 600 137 600 137 856 137 c 0,10,11
 986 137 986 137 1101.5 184 c 128,-1,12
 1217 231 1217 231 1319 326 c 1,13,-1
 1319 115 l 1,14,15
 1213 43 1213 43 1094.5 7 c 128,-1,16
 976 -29 976 -29 844 -29 c 0,17,18
 505 -29 505 -29 310 178.5 c 128,-1,19
 115 386 115 386 115 745 c 0,20,21
 115 1105 115 1105 310 1312.5 c 128,-1,22
 505 1520 505 1520 844 1520 c 0,23,24
 978 1520 978 1520 1096.5 1484.5 c 128,-1,25
 1215 1449 1215 1449 1319 1378 c 1,0,-1
EndSplineSet
KernsSLIF: 562 -36 0 0 7922 -36 0 0 374 -36 0 0 221 -36 0 0 376 -36 0 0 8221 38 0 0 187 -36 0 0 171 -36 0 0 89 -36 0 0
EndChar
StartChar: D
Encoding: 68 68 39
Width: 1577
Flags: W
Fore
403 1327 m 1,0,-1
 403 166 l 1,1,-1
 647 166 l 2,2,3
 956 166 956 166 1099.5 306 c 128,-1,4
 1243 446 1243 446 1243 748 c 0,5,6
 1243 1048 1243 1048 1099.5 1187.5 c 128,-1,7
 956 1327 956 1327 647 1327 c 2,8,-1
 403 1327 l 1,0,-1
201 1493 m 1,9,-1
 616 1493 l 2,10,11
 1050 1493 1050 1493 1253 1312.5 c 128,-1,12
 1456 1132 1456 1132 1456 748 c 0,13,14
 1456 362 1456 362 1252 181 c 128,-1,15
 1048 0 1048 0 616 0 c 2,16,-1
 201 0 l 1,17,-1
 201 1493 l 1,9,-1
EndSplineSet
KernsSLIF: 7922 -112 0 0 562 -112 0 0 374 -112 0 0 260 -36 0 0 258 -36 0 0 256 -36 0 0 221 -112 0 0 193 -36 0 0 194 -36 0 0 8222 -188 0 0 376 -112 0 0 8221 -55 0 0 8220 -45 0 0 195 -36 0 0 192 -36 0 0 187 -36 0 0 171 -36 0 0 196 -36 0 0 89 -112 0 0 86 -36 0 0 65 -36 0 0
EndChar
StartChar: E
Encoding: 69 69 40
Width: 1294
Flags: W
Fore
201 1493 m 1,0,-1
 1145 1493 l 1,1,-1
 1145 1323 l 1,2,-1
 403 1323 l 1,3,-1
 403 881 l 1,4,-1
 1114 881 l 1,5,-1
 1114 711 l 1,6,-1
 403 711 l 1,7,-1
 403 170 l 1,8,-1
 1163 170 l 1,9,-1
 1163 0 l 1,10,-1
 201 0 l 1,11,-1
 201 1493 l 1,0,-1
EndSplineSet
EndChar
StartChar: F
Encoding: 70 70 41
Width: 1178
Flags: W
Fore
201 1493 m 1,0,-1
 1059 1493 l 1,1,-1
 1059 1323 l 1,2,-1
 403 1323 l 1,3,-1
 403 883 l 1,4,-1
 995 883 l 1,5,-1
 995 713 l 1,6,-1
 403 713 l 1,7,-1
 403 0 l 1,8,-1
 201 0 l 1,9,-1
 201 1493 l 1,0,-1
EndSplineSet
KernsSLIF: 252 -112 0 0 229 -188 0 0 242 -73 0 0 244 -73 0 0 8222 -376 0 0 367 -112 0 0 245 -73 0 0 235 -112 0 0 249 -112 0 0 58 -159 0 0 224 -188 0 0 195 -188 0 0 234 -112 0 0 352 -36 0 0 341 -149 0 0 232 -112 0 0 196 -188 0 0 350 -36 0 0 193 -188 0 0 345 -149 0 0 251 -112 0 0 253 -188 0 0 227 -188 0 0 194 -188 0 0 65 -188 0 0 97 -188 0 0 228 -188 0 0 8220 -45 0 0 246 -73 0 0 250 -112 0 0 225 -188 0 0 46 -329 0 0 83 -36 0 0 84 -36 0 0 226 -188 0 0 233 -112 0 0 356 -36 0 0 283 -112 0 0 101 -112 0 0 105 -149 0 0 255 -188 0 0 111 -73 0 0 114 -149 0 0 117 -112 0 0 192 -188 0 0 121 -188 0 0 243 -73 0 0
EndChar
StartChar: G
Encoding: 71 71 42
Width: 1587
Flags: W
Fore
1219 213 m 1,0,-1
 1219 614 l 1,1,-1
 889 614 l 1,2,-1
 889 780 l 1,3,-1
 1419 780 l 1,4,-1
 1419 139 l 1,5,6
 1302 56 1302 56 1161 13.5 c 128,-1,7
 1020 -29 1020 -29 860 -29 c 0,8,9
 510 -29 510 -29 312.5 175.5 c 128,-1,10
 115 380 115 380 115 745 c 0,11,12
 115 1111 115 1111 312.5 1315.5 c 128,-1,13
 510 1520 510 1520 860 1520 c 0,14,15
 1006 1520 1006 1520 1137.5 1484 c 128,-1,16
 1269 1448 1269 1448 1380 1378 c 1,17,-1
 1380 1163 l 1,18,19
 1268 1258 1268 1258 1142 1306 c 128,-1,20
 1016 1354 1016 1354 877 1354 c 0,21,22
 603 1354 603 1354 465.5 1201 c 128,-1,23
 328 1048 328 1048 328 745 c 0,24,25
 328 443 328 443 465.5 290 c 128,-1,26
 603 137 603 137 877 137 c 0,27,28
 984 137 984 137 1068 155.5 c 128,-1,29
 1152 174 1152 174 1219 213 c 1,0,-1
EndSplineSet
KernsSLIF: 356 -73 0 0 221 -102 0 0 8222 -55 0 0 376 -102 0 0 8221 -45 0 0 8220 -45 0 0 187 -36 0 0 171 -36 0 0 89 -102 0 0 84 -73 0 0
EndChar
StartChar: H
Encoding: 72 72 43
Width: 1540
Flags: W
Fore
201 1493 m 1,0,-1
 403 1493 l 1,1,-1
 403 881 l 1,2,-1
 1137 881 l 1,3,-1
 1137 1493 l 1,4,-1
 1339 1493 l 1,5,-1
 1339 0 l 1,6,-1
 1137 0 l 1,7,-1
 1137 711 l 1,8,-1
 403 711 l 1,9,-1
 403 0 l 1,10,-1
 201 0 l 1,11,-1
 201 1493 l 1,0,-1
EndSplineSet
KernsSLIF: 8222 -73 0 0 8221 -63 0 0 8220 -73 0 0 46 -36 0 0
EndChar
StartChar: I
Encoding: 73 73 44
Width: 604
Flags: W
Fore
201 1493 m 1,0,-1
 403 1493 l 1,1,-1
 403 0 l 1,2,-1
 201 0 l 1,3,-1
 201 1493 l 1,0,-1
EndSplineSet
EndChar
StartChar: J
Encoding: 74 74 45
Width: 604
Flags: W
Fore
201 1493 m 1,0,-1
 403 1493 l 1,1,-1
 403 104 l 2,2,3
 403 -166 403 -166 300.5 -288 c 128,-1,4
 198 -410 198 -410 -29 -410 c 2,5,-1
 -106 -410 l 1,6,-1
 -106 -240 l 1,7,-1
 -43 -240 l 2,8,9
 91 -240 91 -240 146 -165 c 128,-1,10
 201 -90 201 -90 201 104 c 2,11,-1
 201 1493 l 1,0,-1
EndSplineSet
KernsSLIF: 193 -36 0 0 194 -36 0 0 8222 -112 0 0 8221 -63 0 0 8220 -73 0 0 195 -36 0 0 192 -36 0 0 187 -36 0 0 171 -36 0 0 196 -36 0 0 65 -36 0 0 45 -73 0 0
EndChar
StartChar: K
Encoding: 75 75 46
Width: 1343
Flags: W
Fore
201 1493 m 1,0,-1
 403 1493 l 1,1,-1
 403 862 l 1,2,-1
 1073 1493 l 1,3,-1
 1333 1493 l 1,4,-1
 592 797 l 1,5,-1
 1386 0 l 1,6,-1
 1120 0 l 1,7,-1
 403 719 l 1,8,-1
 403 0 l 1,9,-1
 201 0 l 1,10,-1
 201 1493 l 1,0,-1
EndSplineSet
KernsSLIF: 367 -102 0 0 366 -55 0 0 356 -159 0 0 283 -102 0 0 268 -112 0 0 262 -112 0 0 253 -149 0 0 221 -73 0 0 217 -55 0 0 219 -55 0 0 218 -55 0 0 210 -112 0 0 212 -112 0 0 211 -112 0 0 193 -36 0 0 194 -36 0 0 376 -73 0 0 255 -149 0 0 8221 -63 0 0 8220 -63 0 0 213 -112 0 0 195 -36 0 0 192 -36 0 0 171 -131 0 0 252 -102 0 0 251 -102 0 0 249 -102 0 0 250 -102 0 0 245 -102 0 0 246 -102 0 0 244 -102 0 0 242 -102 0 0 243 -102 0 0 235 -102 0 0 234 -102 0 0 232 -102 0 0 233 -102 0 0 229 -36 0 0 227 -36 0 0 228 -36 0 0 226 -36 0 0 224 -36 0 0 225 -36 0 0 220 -55 0 0 214 -112 0 0 199 -112 0 0 196 -36 0 0 121 -149 0 0 117 -102 0 0 111 -102 0 0 101 -102 0 0 97 -36 0 0 89 -73 0 0 87 -73 0 0 85 -55 0 0 84 -159 0 0 79 -112 0 0 67 -112 0 0 65 -36 0 0 45 -215 0 0
EndChar
StartChar: L
Encoding: 76 76 47
Width: 1141
Flags: W
Fore
201 1493 m 1,0,-1
 403 1493 l 1,1,-1
 403 170 l 1,2,-1
 1130 170 l 1,3,-1
 1130 0 l 1,4,-1
 201 0 l 1,5,-1
 201 1493 l 1,0,-1
EndSplineSet
KernsSLIF: 367 -36 0 0 366 -102 0 0 356 -282 0 0 283 -36 0 0 253 -188 0 0 221 -272 0 0 217 -102 0 0 219 -102 0 0 218 -102 0 0 210 -73 0 0 212 -73 0 0 211 -73 0 0 193 47 0 0 194 47 0 0 376 -272 0 0 255 -188 0 0 8221 -538 0 0 8220 -415 0 0 213 -73 0 0 195 47 0 0 192 47 0 0 252 -36 0 0 251 -36 0 0 249 -36 0 0 250 -36 0 0 245 -36 0 0 246 -36 0 0 244 -36 0 0 242 -36 0 0 243 -36 0 0 235 -36 0 0 234 -36 0 0 232 -36 0 0 233 -36 0 0 220 -102 0 0 214 -73 0 0 196 47 0 0 121 -188 0 0 117 -36 0 0 111 -36 0 0 101 -36 0 0 89 -272 0 0 87 -188 0 0 86 -225 0 0 85 -102 0 0 84 -282 0 0 79 -73 0 0 65 47 0 0 45 -36 0 0
EndChar
StartChar: M
Encoding: 77 77 48
Width: 1767
Flags: W
Fore
201 1493 m 1,0,-1
 502 1493 l 1,1,-1
 883 477 l 1,2,-1
 1266 1493 l 1,3,-1
 1567 1493 l 1,4,-1
 1567 0 l 1,5,-1
 1370 0 l 1,6,-1
 1370 1311 l 1,7,-1
 985 287 l 1,8,-1
 782 287 l 1,9,-1
 397 1311 l 1,10,-1
 397 0 l 1,11,-1
 201 0 l 1,12,-1
 201 1493 l 1,0,-1
EndSplineSet
EndChar
StartChar: N
Encoding: 78 78 49
Width: 1532
Flags: W
Fore
201 1493 m 1,0,-1
 473 1493 l 1,1,-1
 1135 244 l 1,2,-1
 1135 1493 l 1,3,-1
 1331 1493 l 1,4,-1
 1331 0 l 1,5,-1
 1059 0 l 1,6,-1
 397 1249 l 1,7,-1
 397 0 l 1,8,-1
 201 0 l 1,9,-1
 201 1493 l 1,0,-1
EndSplineSet
EndChar
StartChar: O
Encoding: 79 79 50
Width: 1612
Flags: W
Fore
807 1356 m 0,0,1
 587 1356 587 1356 457.5 1192 c 128,-1,2
 328 1028 328 1028 328 745 c 0,3,4
 328 463 328 463 457.5 299 c 128,-1,5
 587 135 587 135 807 135 c 0,6,7
 1027 135 1027 135 1155.5 299 c 128,-1,8
 1284 463 1284 463 1284 745 c 0,9,10
 1284 1028 1284 1028 1155.5 1192 c 128,-1,11
 1027 1356 1027 1356 807 1356 c 0,0,1
807 1520 m 0,12,13
 1121 1520 1121 1520 1309 1309.5 c 128,-1,14
 1497 1099 1497 1099 1497 745 c 0,15,16
 1497 392 1497 392 1309 181.5 c 128,-1,17
 1121 -29 1121 -29 807 -29 c 0,18,19
 492 -29 492 -29 303.5 181 c 128,-1,20
 115 391 115 391 115 745 c 0,21,22
 115 1099 115 1099 303.5 1309.5 c 128,-1,23
 492 1520 492 1520 807 1520 c 0,12,13
EndSplineSet
KernsSLIF: 221 -112 0 0 193 -36 0 0 194 -36 0 0 8222 -188 0 0 376 -112 0 0 8221 -36 0 0 8220 -45 0 0 195 -36 0 0 192 -36 0 0 171 -36 0 0 196 -36 0 0 89 -112 0 0 88 -131 0 0 86 -36 0 0 65 -36 0 0 58 -36 0 0 46 -83 0 0 45 57 0 0
EndChar
StartChar: P
Encoding: 80 80 51
Width: 1235
Flags: W
Fore
403 1327 m 1,0,-1
 403 766 l 1,1,-1
 657 766 l 2,2,3
 798 766 798 766 875 839 c 128,-1,4
 952 912 952 912 952 1047 c 0,5,6
 952 1181 952 1181 875 1254 c 128,-1,7
 798 1327 798 1327 657 1327 c 2,8,-1
 403 1327 l 1,0,-1
201 1493 m 1,9,-1
 657 1493 l 2,10,11
 908 1493 908 1493 1036.5 1379.5 c 128,-1,12
 1165 1266 1165 1266 1165 1047 c 0,13,14
 1165 826 1165 826 1036.5 713 c 128,-1,15
 908 600 908 600 657 600 c 2,16,-1
 403 600 l 1,17,-1
 403 0 l 1,18,-1
 201 0 l 1,19,-1
 201 1493 l 1,9,-1
EndSplineSet
KernsSLIF: 252 -36 0 0 229 -92 0 0 242 -73 0 0 45 -45 0 0 8222 -329 0 0 367 -36 0 0 245 -73 0 0 235 -73 0 0 226 -92 0 0 249 -36 0 0 221 -45 0 0 224 -92 0 0 195 -131 0 0 234 -73 0 0 341 -36 0 0 8221 38 0 0 232 -73 0 0 196 -131 0 0 241 -36 0 0 193 -131 0 0 345 -36 0 0 233 -73 0 0 251 -36 0 0 227 -92 0 0 194 -131 0 0 244 -73 0 0 353 -36 0 0 65 -131 0 0 97 -92 0 0 228 -92 0 0 8220 38 0 0 246 -73 0 0 250 -36 0 0 351 -36 0 0 376 -45 0 0 225 -92 0 0 46 -319 0 0 89 -45 0 0 101 -73 0 0 283 -73 0 0 171 -36 0 0 105 -45 0 0 111 -73 0 0 110 -36 0 0 115 -36 0 0 114 -36 0 0 117 -36 0 0 192 -131 0 0 328 -36 0 0 243 -73 0 0
EndChar
StartChar: Q
Encoding: 81 81 52
Width: 1612
Flags: W
Fore
807 1356 m 0,0,1
 587 1356 587 1356 457.5 1192 c 128,-1,2
 328 1028 328 1028 328 745 c 0,3,4
 328 463 328 463 457.5 299 c 128,-1,5
 587 135 587 135 807 135 c 0,6,7
 1027 135 1027 135 1155.5 299 c 128,-1,8
 1284 463 1284 463 1284 745 c 0,9,10
 1284 1028 1284 1028 1155.5 1192 c 128,-1,11
 1027 1356 1027 1356 807 1356 c 0,0,1
1090 27 m 1,12,-1
 1356 -264 l 1,13,-1
 1112 -264 l 1,14,-1
 891 -25 l 1,15,16
 858 -27 858 -27 840.5 -28 c 128,-1,17
 823 -29 823 -29 807 -29 c 0,18,19
 492 -29 492 -29 303.5 181.5 c 128,-1,20
 115 392 115 392 115 745 c 0,21,22
 115 1099 115 1099 303.5 1309.5 c 128,-1,23
 492 1520 492 1520 807 1520 c 0,24,25
 1121 1520 1121 1520 1309 1309.5 c 128,-1,26
 1497 1099 1497 1099 1497 745 c 0,27,28
 1497 485 1497 485 1392.5 300 c 128,-1,29
 1288 115 1288 115 1090 27 c 1,12,-1
EndSplineSet
KernsSLIF: 8222 -131 0 0 8221 -36 0 0 8220 -45 0 0 45 57 0 0
EndChar
StartChar: R
Encoding: 82 82 53
Width: 1423
Flags: W
Fore
909 700 m 1,0,1
 974 678 974 678 1035.5 606 c 128,-1,2
 1097 534 1097 534 1159 408 c 1,3,-1
 1364 0 l 1,4,-1
 1147 0 l 1,5,-1
 956 383 l 1,6,7
 882 533 882 533 812.5 582 c 128,-1,8
 743 631 743 631 623 631 c 2,9,-1
 403 631 l 1,10,-1
 403 0 l 1,11,-1
 201 0 l 1,12,-1
 201 1493 l 1,13,-1
 657 1493 l 2,14,15
 913 1493 913 1493 1039 1386 c 128,-1,16
 1165 1279 1165 1279 1165 1063 c 0,17,18
 1165 922 1165 922 1099.5 829 c 128,-1,19
 1034 736 1034 736 909 700 c 1,0,1
403 1327 m 1,20,-1
 403 797 l 1,21,-1
 657 797 l 2,22,23
 803 797 803 797 877.5 864.5 c 128,-1,24
 952 932 952 932 952 1063 c 0,25,26
 952 1194 952 1194 877.5 1260.5 c 128,-1,27
 803 1327 803 1327 657 1327 c 2,28,-1
 403 1327 l 1,20,-1
EndSplineSet
KernsSLIF: 367 -92 0 0 356 -149 0 0 283 -92 0 0 268 -102 0 0 262 -102 0 0 253 -112 0 0 221 -131 0 0 193 -83 0 0 194 -83 0 0 8222 -36 0 0 376 -131 0 0 255 -112 0 0 8221 -131 0 0 8220 -149 0 0 195 -83 0 0 192 -83 0 0 187 -36 0 0 171 -112 0 0 252 -92 0 0 251 -92 0 0 249 -92 0 0 250 -92 0 0 245 -92 0 0 246 -92 0 0 244 -92 0 0 242 -92 0 0 243 -92 0 0 235 -92 0 0 234 -92 0 0 232 -92 0 0 233 -92 0 0 229 -45 0 0 227 -45 0 0 228 -45 0 0 226 -45 0 0 224 -45 0 0 225 -45 0 0 199 -102 0 0 196 -83 0 0 121 -112 0 0 117 -92 0 0 111 -92 0 0 101 -92 0 0 97 -45 0 0 89 -131 0 0 87 -83 0 0 86 -112 0 0 84 -149 0 0 67 -102 0 0 65 -83 0 0 58 -63 0 0 46 -73 0 0 45 -83 0 0
EndChar
StartChar: S
Encoding: 83 83 54
Width: 1300
Flags: W
Fore
1096 1444 m 1,0,-1
 1096 1247 l 1,1,2
 981 1302 981 1302 879 1329 c 128,-1,3
 777 1356 777 1356 682 1356 c 0,4,5
 517 1356 517 1356 427.5 1292 c 128,-1,6
 338 1228 338 1228 338 1110 c 0,7,8
 338 1011 338 1011 397.5 960.5 c 128,-1,9
 457 910 457 910 623 879 c 1,10,-1
 745 854 l 1,11,12
 971 811 971 811 1078.5 702.5 c 128,-1,13
 1186 594 1186 594 1186 412 c 0,14,15
 1186 195 1186 195 1040.5 83 c 128,-1,16
 895 -29 895 -29 614 -29 c 0,17,18
 508 -29 508 -29 388.5 -5 c 128,-1,19
 269 19 269 19 141 66 c 1,20,-1
 141 274 l 1,21,22
 264 205 264 205 382 170 c 128,-1,23
 500 135 500 135 614 135 c 0,24,25
 787 135 787 135 881 203 c 128,-1,26
 975 271 975 271 975 397 c 0,27,28
 975 507 975 507 907.5 569 c 128,-1,29
 840 631 840 631 686 662 c 2,30,-1
 563 686 l 2,31,32
 337 731 337 731 236 827 c 128,-1,33
 135 923 135 923 135 1094 c 0,34,35
 135 1292 135 1292 274.5 1406 c 128,-1,36
 414 1520 414 1520 659 1520 c 0,37,38
 764 1520 764 1520 873 1501 c 128,-1,39
 982 1482 982 1482 1096 1444 c 1,0,-1
EndSplineSet
KernsSLIF: 193 38 0 0 194 38 0 0 195 38 0 0 192 38 0 0 196 38 0 0 65 38 0 0
EndChar
StartChar: T
Encoding: 84 84 55
Width: 1251
Flags: W
Fore
-6 1493 m 1,0,-1
 1257 1493 l 1,1,-1
 1257 1323 l 1,2,-1
 727 1323 l 1,3,-1
 727 0 l 1,4,-1
 524 0 l 1,5,-1
 524 1323 l 1,6,-1
 -6 1323 l 1,7,-1
 -6 1493 l 1,0,-1
EndSplineSet
KernsSLIF: 252 -311 0 0 229 -339 0 0 242 -348 0 0 45 -188 0 0 8222 -264 0 0 268 -120 0 0 245 -348 0 0 235 -348 0 0 249 -311 0 0 58 -225 0 0 224 -339 0 0 195 -159 0 0 234 -348 0 0 231 -348 0 0 341 -301 0 0 8221 -45 0 0 232 -348 0 0 196 -159 0 0 262 -120 0 0 193 -159 0 0 269 -348 0 0 345 -301 0 0 233 -348 0 0 251 -311 0 0 253 -319 0 0 227 -339 0 0 194 -159 0 0 367 -311 0 0 244 -348 0 0 353 -339 0 0 65 -159 0 0 283 -348 0 0 67 -120 0 0 351 -339 0 0 228 -339 0 0 119 -339 0 0 246 -348 0 0 250 -311 0 0 263 -348 0 0 225 -339 0 0 46 -243 0 0 187 -112 0 0 84 -36 0 0 226 -339 0 0 101 -348 0 0 356 -36 0 0 97 -339 0 0 99 -348 0 0 171 -188 0 0 105 -63 0 0 255 -319 0 0 111 -348 0 0 115 -339 0 0 114 -301 0 0 117 -311 0 0 192 -159 0 0 121 -319 0 0 199 -120 0 0 243 -348 0 0
EndChar
StartChar: U
Encoding: 85 85 56
Width: 1499
Flags: W
Fore
178 1493 m 1,0,-1
 381 1493 l 1,1,-1
 381 586 l 2,2,3
 381 346 381 346 468 240.5 c 128,-1,4
 555 135 555 135 750 135 c 0,5,6
 944 135 944 135 1031 240.5 c 128,-1,7
 1118 346 1118 346 1118 586 c 2,8,-1
 1118 1493 l 1,9,-1
 1321 1493 l 1,10,-1
 1321 561 l 2,11,12
 1321 269 1321 269 1176.5 120 c 128,-1,13
 1032 -29 1032 -29 750 -29 c 0,14,15
 467 -29 467 -29 322.5 120 c 128,-1,16
 178 269 178 269 178 561 c 2,17,-1
 178 1493 l 1,0,-1
EndSplineSet
KernsSLIF: 381 -36 0 0 90 -36 0 0
EndChar
StartChar: V
Encoding: 86 86 57
Width: 1401
Flags: W
Fore
586 0 m 1,0,-1
 16 1493 l 1,1,-1
 227 1493 l 1,2,-1
 700 236 l 1,3,-1
 1174 1493 l 1,4,-1
 1384 1493 l 1,5,-1
 815 0 l 1,6,-1
 586 0 l 1,0,-1
EndSplineSet
KernsSLIF: 367 -139 0 0 283 -159 0 0 253 -55 0 0 210 -36 0 0 212 -36 0 0 211 -36 0 0 193 -131 0 0 194 -131 0 0 8222 -282 0 0 255 -55 0 0 213 -36 0 0 195 -131 0 0 192 -131 0 0 187 -112 0 0 171 -178 0 0 252 -139 0 0 251 -139 0 0 249 -139 0 0 250 -139 0 0 245 -159 0 0 246 -159 0 0 244 -159 0 0 242 -159 0 0 243 -159 0 0 235 -159 0 0 234 -159 0 0 232 -159 0 0 233 -159 0 0 229 -159 0 0 227 -159 0 0 228 -159 0 0 226 -159 0 0 224 -159 0 0 225 -159 0 0 214 -36 0 0 196 -131 0 0 121 -55 0 0 117 -139 0 0 111 -159 0 0 105 -45 0 0 101 -159 0 0 97 -159 0 0 79 -36 0 0 65 -131 0 0 58 -167 0 0 46 -264 0 0 45 -120 0 0
EndChar
StartChar: W
Encoding: 87 87 58
Width: 2025
Flags: W
Fore
68 1493 m 1,0,-1
 272 1493 l 1,1,-1
 586 231 l 1,2,-1
 899 1493 l 1,3,-1
 1126 1493 l 1,4,-1
 1440 231 l 1,5,-1
 1753 1493 l 1,6,-1
 1958 1493 l 1,7,-1
 1583 0 l 1,8,-1
 1329 0 l 1,9,-1
 1014 1296 l 1,10,-1
 696 0 l 1,11,-1
 442 0 l 1,12,-1
 68 1493 l 1,0,-1
EndSplineSet
KernsSLIF: 252 -73 0 0 229 -131 0 0 242 -120 0 0 45 -83 0 0 8222 -264 0 0 367 -73 0 0 245 -120 0 0 235 -120 0 0 249 -73 0 0 58 -120 0 0 224 -131 0 0 195 -112 0 0 234 -120 0 0 341 -92 0 0 232 -120 0 0 196 -112 0 0 193 -112 0 0 345 -92 0 0 233 -120 0 0 251 -73 0 0 253 -36 0 0 227 -131 0 0 194 -112 0 0 244 -120 0 0 65 -112 0 0 97 -131 0 0 187 -36 0 0 228 -131 0 0 8220 -36 0 0 246 -120 0 0 250 -73 0 0 225 -131 0 0 46 -235 0 0 226 -131 0 0 101 -120 0 0 283 -120 0 0 171 -112 0 0 105 -45 0 0 255 -36 0 0 111 -120 0 0 114 -92 0 0 117 -73 0 0 192 -112 0 0 121 -36 0 0 243 -120 0 0
EndChar
StartChar: X
Encoding: 88 88 59
Width: 1403
Flags: W
Fore
129 1493 m 1,0,-1
 346 1493 l 1,1,-1
 717 938 l 1,2,-1
 1090 1493 l 1,3,-1
 1307 1493 l 1,4,-1
 827 776 l 1,5,-1
 1339 0 l 1,6,-1
 1122 0 l 1,7,-1
 702 635 l 1,8,-1
 279 0 l 1,9,-1
 61 0 l 1,10,-1
 594 797 l 1,11,-1
 129 1493 l 1,0,-1
EndSplineSet
KernsSLIF: 356 -36 0 0 283 -92 0 0 268 -149 0 0 262 -149 0 0 210 -131 0 0 212 -131 0 0 211 -131 0 0 8222 -45 0 0 8221 -83 0 0 8220 -159 0 0 213 -131 0 0 171 -112 0 0 235 -92 0 0 234 -92 0 0 232 -92 0 0 233 -92 0 0 214 -131 0 0 199 -149 0 0 101 -92 0 0 84 -36 0 0 79 -131 0 0 67 -149 0 0 45 -102 0 0
EndChar
StartChar: Y
Encoding: 89 89 60
Width: 1251
Flags: W
Fore
-4 1493 m 1,0,-1
 213 1493 l 1,1,-1
 627 879 l 1,2,-1
 1038 1493 l 1,3,-1
 1255 1493 l 1,4,-1
 727 711 l 1,5,-1
 727 0 l 1,6,-1
 524 0 l 1,7,-1
 524 711 l 1,8,-1
 -4 1493 l 1,0,-1
EndSplineSet
KernsSLIF: 367 -235 0 0 283 -272 0 0 268 -112 0 0 262 -112 0 0 210 -112 0 0 212 -112 0 0 211 -112 0 0 193 -159 0 0 194 -159 0 0 8222 -264 0 0 8221 -36 0 0 8220 -112 0 0 213 -112 0 0 195 -159 0 0 192 -159 0 0 187 -149 0 0 171 -225 0 0 252 -235 0 0 251 -235 0 0 249 -235 0 0 250 -235 0 0 245 -272 0 0 246 -272 0 0 244 -272 0 0 242 -272 0 0 243 -272 0 0 235 -272 0 0 234 -272 0 0 232 -272 0 0 233 -272 0 0 229 -282 0 0 227 -282 0 0 228 -282 0 0 226 -282 0 0 224 -282 0 0 225 -282 0 0 214 -112 0 0 199 -112 0 0 196 -159 0 0 117 -235 0 0 111 -272 0 0 105 -73 0 0 101 -272 0 0 97 -282 0 0 79 -112 0 0 67 -112 0 0 65 -159 0 0 58 -272 0 0 46 -415 0 0 45 -243 0 0
EndChar
StartChar: Z
Encoding: 90 90 61
Width: 1403
Flags: W
Fore
115 1493 m 1,0,-1
 1288 1493 l 1,1,-1
 1288 1339 l 1,2,-1
 344 170 l 1,3,-1
 1311 170 l 1,4,-1
 1311 0 l 1,5,-1
 92 0 l 1,6,-1
 92 154 l 1,7,-1
 1036 1323 l 1,8,-1
 115 1323 l 1,9,-1
 115 1493 l 1,0,-1
EndSplineSet
KernsSLIF: 8222 -36 0 0 8221 -36 0 0 8220 -36 0 0 45 -36 0 0
EndChar
StartChar: bracketleft
Encoding: 91 91 62
Width: 799
Flags: W
Fore
176 1556 m 1,0,-1
 600 1556 l 1,1,-1
 600 1413 l 1,2,-1
 360 1413 l 1,3,-1
 360 -127 l 1,4,-1
 600 -127 l 1,5,-1
 600 -270 l 1,6,-1
 176 -270 l 1,7,-1
 176 1556 l 1,0,-1
EndSplineSet
EndChar
StartChar: backslash
Encoding: 92 92 63
Width: 690
Flags: W
Fore
170 1493 m 1,0,-1
 690 -190 l 1,1,-1
 520 -190 l 1,2,-1
 0 1493 l 1,3,-1
 170 1493 l 1,0,-1
EndSplineSet
EndChar
StartChar: bracketright
Encoding: 93 93 64
Width: 799
Flags: W
Fore
623 1556 m 1,0,-1
 623 -270 l 1,1,-1
 199 -270 l 1,2,-1
 199 -127 l 1,3,-1
 438 -127 l 1,4,-1
 438 1413 l 1,5,-1
 199 1413 l 1,6,-1
 199 1556 l 1,7,-1
 623 1556 l 1,0,-1
EndSplineSet
EndChar
StartChar: asciicircum
Encoding: 94 94 65
Width: 1716
Flags: W
Fore
956 1493 m 1,0,-1
 1499 936 l 1,1,-1
 1298 936 l 1,2,-1
 858 1331 l 1,3,-1
 418 936 l 1,4,-1
 217 936 l 1,5,-1
 760 1493 l 1,6,-1
 956 1493 l 1,0,-1
EndSplineSet
EndChar
StartChar: underscore
Encoding: 95 95 66
Width: 1024
Flags: W
Fore
1044 -340 m 1,0,-1
 1044 -483 l 1,1,-1
 -20 -483 l 1,2,-1
 -20 -340 l 1,3,-1
 1044 -340 l 1,0,-1
EndSplineSet
EndChar
StartChar: grave
Encoding: 96 96 67
Width: 1024
Flags: W
Fore
367 1638 m 1,0,-1
 649 1264 l 1,1,-1
 496 1264 l 1,2,-1
 170 1638 l 1,3,-1
 367 1638 l 1,0,-1
EndSplineSet
EndChar
StartChar: a
Encoding: 97 97 68
Width: 1255
Flags: W
Fore
702 563 m 2,0,1
 479 563 479 563 393 512 c 128,-1,2
 307 461 307 461 307 338 c 0,3,4
 307 240 307 240 371.5 182.5 c 128,-1,5
 436 125 436 125 547 125 c 0,6,7
 700 125 700 125 792.5 233.5 c 128,-1,8
 885 342 885 342 885 522 c 2,9,-1
 885 563 l 1,10,-1
 702 563 l 2,0,1
1069 639 m 2,11,-1
 1069 0 l 1,12,-1
 885 0 l 1,13,-1
 885 170 l 1,14,15
 822 68 822 68 728 19.5 c 128,-1,16
 634 -29 634 -29 498 -29 c 0,17,18
 326 -29 326 -29 224.5 67.5 c 128,-1,19
 123 164 123 164 123 326 c 0,20,21
 123 515 123 515 249.5 611 c 128,-1,22
 376 707 376 707 627 707 c 2,23,-1
 885 707 l 1,24,-1
 885 725 l 2,25,26
 885 852 885 852 801.5 921.5 c 128,-1,27
 718 991 718 991 567 991 c 0,28,29
 471 991 471 991 380 968 c 128,-1,30
 289 945 289 945 205 899 c 1,31,-1
 205 1069 l 1,32,33
 306 1108 306 1108 401 1127.5 c 128,-1,34
 496 1147 496 1147 586 1147 c 0,35,36
 829 1147 829 1147 949 1021 c 128,-1,37
 1069 895 1069 895 1069 639 c 2,11,-1
EndSplineSet
EndChar
StartChar: b
Encoding: 98 98 69
Width: 1300
Flags: W
Fore
997 559 m 0,0,1
 997 762 997 762 913.5 877.5 c 128,-1,2
 830 993 830 993 684 993 c 0,3,4
 538 993 538 993 454.5 877.5 c 128,-1,5
 371 762 371 762 371 559 c 0,6,7
 371 356 371 356 454.5 240.5 c 128,-1,8
 538 125 538 125 684 125 c 0,9,10
 830 125 830 125 913.5 240.5 c 128,-1,11
 997 356 997 356 997 559 c 0,0,1
371 950 m 1,12,13
 429 1050 429 1050 517.5 1098.5 c 128,-1,14
 606 1147 606 1147 729 1147 c 0,15,16
 933 1147 933 1147 1060.5 985 c 128,-1,17
 1188 823 1188 823 1188 559 c 0,18,19
 1188 295 1188 295 1060.5 133 c 128,-1,20
 933 -29 933 -29 729 -29 c 0,21,22
 606 -29 606 -29 517.5 19.5 c 128,-1,23
 429 68 429 68 371 168 c 1,24,-1
 371 0 l 1,25,-1
 186 0 l 1,26,-1
 186 1556 l 1,27,-1
 371 1556 l 1,28,-1
 371 950 l 1,12,13
EndSplineSet
EndChar
StartChar: c
Encoding: 99 99 70
Width: 1126
Flags: W
Fore
999 1077 m 1,0,-1
 999 905 l 1,1,2
 921 948 921 948 842.5 969.5 c 128,-1,3
 764 991 764 991 684 991 c 0,4,5
 505 991 505 991 406 877.5 c 128,-1,6
 307 764 307 764 307 559 c 0,7,8
 307 354 307 354 406 240.5 c 128,-1,9
 505 127 505 127 684 127 c 0,10,11
 764 127 764 127 842.5 148.5 c 128,-1,12
 921 170 921 170 999 213 c 1,13,-1
 999 43 l 1,14,15
 922 7 922 7 839.5 -11 c 128,-1,16
 757 -29 757 -29 664 -29 c 0,17,18
 411 -29 411 -29 262 130 c 128,-1,19
 113 289 113 289 113 559 c 0,20,21
 113 833 113 833 263.5 990 c 128,-1,22
 414 1147 414 1147 676 1147 c 0,23,24
 761 1147 761 1147 842 1129.5 c 128,-1,25
 923 1112 923 1112 999 1077 c 1,0,-1
EndSplineSet
EndChar
StartChar: d
Encoding: 100 100 71
Width: 1300
Flags: W
Fore
930 950 m 1,0,-1
 930 1556 l 1,1,-1
 1114 1556 l 1,2,-1
 1114 0 l 1,3,-1
 930 0 l 1,4,-1
 930 168 l 1,5,6
 872 68 872 68 783.5 19.5 c 128,-1,7
 695 -29 695 -29 571 -29 c 0,8,9
 368 -29 368 -29 240.5 133 c 128,-1,10
 113 295 113 295 113 559 c 0,11,12
 113 823 113 823 240.5 985 c 128,-1,13
 368 1147 368 1147 571 1147 c 0,14,15
 695 1147 695 1147 783.5 1098.5 c 128,-1,16
 872 1050 872 1050 930 950 c 1,0,-1
303 559 m 0,17,18
 303 356 303 356 386.5 240.5 c 128,-1,19
 470 125 470 125 616 125 c 0,20,21
 762 125 762 125 846 240.5 c 128,-1,22
 930 356 930 356 930 559 c 0,23,24
 930 762 930 762 846 877.5 c 128,-1,25
 762 993 762 993 616 993 c 0,26,27
 470 993 470 993 386.5 877.5 c 128,-1,28
 303 762 303 762 303 559 c 0,17,18
EndSplineSet
EndChar
StartChar: e
Encoding: 101 101 72
Width: 1260
Flags: W
Fore
1151 606 m 2,0,-1
 1151 516 l 1,1,-1
 305 516 l 1,2,3
 317 326 317 326 419.5 226.5 c 128,-1,4
 522 127 522 127 705 127 c 0,5,6
 811 127 811 127 910.5 153 c 128,-1,7
 1010 179 1010 179 1108 231 c 1,8,-1
 1108 57 l 1,9,10
 1009 15 1009 15 905 -7 c 128,-1,11
 801 -29 801 -29 694 -29 c 0,12,13
 426 -29 426 -29 269.5 127 c 128,-1,14
 113 283 113 283 113 549 c 0,15,16
 113 824 113 824 261.5 985.5 c 128,-1,17
 410 1147 410 1147 662 1147 c 0,18,19
 888 1147 888 1147 1019.5 1001.5 c 128,-1,20
 1151 856 1151 856 1151 606 c 2,0,-1
967 660 m 1,21,22
 965 811 965 811 882.5 901 c 128,-1,23
 800 991 800 991 664 991 c 0,24,25
 510 991 510 991 417.5 904 c 128,-1,26
 325 817 325 817 311 659 c 1,27,-1
 967 660 l 1,21,22
EndSplineSet
KernsSLIF: 120 -36 0 0
EndChar
StartChar: f
Encoding: 102 102 73
Width: 721
Flags: W
Fore
760 1556 m 1,0,-1
 760 1403 l 1,1,-1
 584 1403 l 2,2,3
 485 1403 485 1403 446.5 1363 c 128,-1,4
 408 1323 408 1323 408 1219 c 2,5,-1
 408 1120 l 1,6,-1
 711 1120 l 1,7,-1
 711 977 l 1,8,-1
 408 977 l 1,9,-1
 408 0 l 1,10,-1
 223 0 l 1,11,-1
 223 977 l 1,12,-1
 47 977 l 1,13,-1
 47 1120 l 1,14,-1
 223 1120 l 1,15,-1
 223 1198 l 2,16,17
 223 1385 223 1385 310 1470.5 c 128,-1,18
 397 1556 397 1556 586 1556 c 2,19,-1
 760 1556 l 1,0,-1
EndSplineSet
KernsSLIF: 357 -36 0 0 253 -36 0 0 8222 -235 0 0 255 -36 0 0 8220 65 0 0 187 -36 0 0 171 -73 0 0 121 -36 0 0 119 -36 0 0 116 -36 0 0 58 -73 0 0 46 -149 0 0 45 -112 0 0
EndChar
StartChar: g
Encoding: 103 103 74
Width: 1300
Flags: W
Fore
930 573 m 0,0,1
 930 773 930 773 847.5 883 c 128,-1,2
 765 993 765 993 616 993 c 0,3,4
 468 993 468 993 385.5 883 c 128,-1,5
 303 773 303 773 303 573 c 0,6,7
 303 374 303 374 385.5 264 c 128,-1,8
 468 154 468 154 616 154 c 0,9,10
 765 154 765 154 847.5 264 c 128,-1,11
 930 374 930 374 930 573 c 0,0,1
1114 139 m 2,12,13
 1114 -147 1114 -147 987 -286.5 c 128,-1,14
 860 -426 860 -426 598 -426 c 0,15,16
 501 -426 501 -426 415 -411.5 c 128,-1,17
 329 -397 329 -397 248 -367 c 1,18,-1
 248 -188 l 1,19,20
 329 -232 329 -232 408 -253 c 128,-1,21
 487 -274 487 -274 569 -274 c 0,22,23
 750 -274 750 -274 840 -179.5 c 128,-1,24
 930 -85 930 -85 930 106 c 2,25,-1
 930 197 l 1,26,27
 873 98 873 98 784 49 c 128,-1,28
 695 0 695 0 571 0 c 0,29,30
 365 0 365 0 239 157 c 128,-1,31
 113 314 113 314 113 573 c 0,32,33
 113 833 113 833 239 990 c 128,-1,34
 365 1147 365 1147 571 1147 c 0,35,36
 695 1147 695 1147 784 1098 c 128,-1,37
 873 1049 873 1049 930 950 c 1,38,-1
 930 1120 l 1,39,-1
 1114 1120 l 1,40,-1
 1114 139 l 2,12,13
EndSplineSet
EndChar
StartChar: h
Encoding: 104 104 75
Width: 1298
Flags: W
Fore
1124 676 m 2,0,-1
 1124 0 l 1,1,-1
 940 0 l 1,2,-1
 940 670 l 2,3,4
 940 829 940 829 878 908 c 128,-1,5
 816 987 816 987 692 987 c 0,6,7
 543 987 543 987 457 892 c 128,-1,8
 371 797 371 797 371 633 c 2,9,-1
 371 0 l 1,10,-1
 186 0 l 1,11,-1
 186 1556 l 1,12,-1
 371 1556 l 1,13,-1
 371 946 l 1,14,15
 437 1047 437 1047 526.5 1097 c 128,-1,16
 616 1147 616 1147 733 1147 c 0,17,18
 926 1147 926 1147 1025 1027.5 c 128,-1,19
 1124 908 1124 908 1124 676 c 2,0,-1
EndSplineSet
EndChar
StartChar: i
Encoding: 105 105 76
Width: 569
Flags: W
Fore
193 1120 m 1,0,-1
 377 1120 l 1,1,-1
 377 0 l 1,2,-1
 193 0 l 1,3,-1
 193 1120 l 1,0,-1
193 1556 m 1,4,-1
 377 1556 l 1,5,-1
 377 1323 l 1,6,-1
 193 1323 l 1,7,-1
 193 1556 l 1,4,-1
EndSplineSet
EndChar
StartChar: j
Encoding: 106 106 77
Width: 569
Flags: W
Fore
193 1120 m 1,0,-1
 377 1120 l 1,1,-1
 377 -20 l 2,2,3
 377 -234 377 -234 295.5 -330 c 128,-1,4
 214 -426 214 -426 33 -426 c 2,5,-1
 -37 -426 l 1,6,-1
 -37 -270 l 1,7,-1
 12 -270 l 2,8,9
 117 -270 117 -270 155 -221.5 c 128,-1,10
 193 -173 193 -173 193 -20 c 2,11,-1
 193 1120 l 1,0,-1
193 1556 m 1,12,-1
 377 1556 l 1,13,-1
 377 1323 l 1,14,-1
 193 1323 l 1,15,-1
 193 1556 l 1,12,-1
EndSplineSet
EndChar
StartChar: k
Encoding: 107 107 78
Width: 1186
Flags: W
Fore
186 1556 m 1,0,-1
 371 1556 l 1,1,-1
 371 637 l 1,2,-1
 920 1120 l 1,3,-1
 1155 1120 l 1,4,-1
 561 596 l 1,5,-1
 1180 0 l 1,6,-1
 940 0 l 1,7,-1
 371 547 l 1,8,-1
 371 0 l 1,9,-1
 186 0 l 1,10,-1
 186 1556 l 1,0,-1
EndSplineSet
KernsSLIF: 367 -63 0 0 283 -73 0 0 253 -73 0 0 255 -73 0 0 252 -63 0 0 251 -63 0 0 249 -63 0 0 250 -63 0 0 245 -73 0 0 246 -73 0 0 244 -73 0 0 242 -73 0 0 243 -73 0 0 235 -73 0 0 234 -73 0 0 232 -73 0 0 233 -73 0 0 229 -36 0 0 227 -36 0 0 228 -36 0 0 226 -36 0 0 224 -36 0 0 225 -36 0 0 121 -73 0 0 117 -63 0 0 111 -73 0 0 101 -73 0 0 97 -36 0 0
EndChar
StartChar: l
Encoding: 108 108 79
Width: 569
Flags: W
Fore
193 1556 m 1,0,-1
 377 1556 l 1,1,-1
 377 0 l 1,2,-1
 193 0 l 1,3,-1
 193 1556 l 1,0,-1
EndSplineSet
EndChar
StartChar: m
Encoding: 109 109 80
Width: 1995
Flags: W
Fore
1065 905 m 1,0,1
 1134 1029 1134 1029 1230 1088 c 128,-1,2
 1326 1147 1326 1147 1456 1147 c 0,3,4
 1631 1147 1631 1147 1726 1024.5 c 128,-1,5
 1821 902 1821 902 1821 676 c 2,6,-1
 1821 0 l 1,7,-1
 1636 0 l 1,8,-1
 1636 670 l 2,9,10
 1636 831 1636 831 1579 909 c 128,-1,11
 1522 987 1522 987 1405 987 c 0,12,13
 1262 987 1262 987 1179 892 c 128,-1,14
 1096 797 1096 797 1096 633 c 2,15,-1
 1096 0 l 1,16,-1
 911 0 l 1,17,-1
 911 670 l 2,18,19
 911 832 911 832 854 909.5 c 128,-1,20
 797 987 797 987 678 987 c 0,21,22
 537 987 537 987 454 891.5 c 128,-1,23
 371 796 371 796 371 633 c 2,24,-1
 371 0 l 1,25,-1
 186 0 l 1,26,-1
 186 1120 l 1,27,-1
 371 1120 l 1,28,-1
 371 946 l 1,29,30
 434 1049 434 1049 522 1098 c 128,-1,31
 610 1147 610 1147 731 1147 c 0,32,33
 853 1147 853 1147 938.5 1085 c 128,-1,34
 1024 1023 1024 1023 1065 905 c 1,0,1
EndSplineSet
EndChar
StartChar: n
Encoding: 110 110 81
Width: 1298
Flags: W
Fore
1124 676 m 2,0,-1
 1124 0 l 1,1,-1
 940 0 l 1,2,-1
 940 670 l 2,3,4
 940 829 940 829 878 908 c 128,-1,5
 816 987 816 987 692 987 c 0,6,7
 543 987 543 987 457 892 c 128,-1,8
 371 797 371 797 371 633 c 2,9,-1
 371 0 l 1,10,-1
 186 0 l 1,11,-1
 186 1120 l 1,12,-1
 371 1120 l 1,13,-1
 371 946 l 1,14,15
 437 1047 437 1047 526.5 1097 c 128,-1,16
 616 1147 616 1147 733 1147 c 0,17,18
 926 1147 926 1147 1025 1027.5 c 128,-1,19
 1124 908 1124 908 1124 676 c 2,0,-1
EndSplineSet
KernsSLIF: 8222 -92 0 0 8221 -112 0 0 8220 -149 0 0
EndChar
StartChar: o
Encoding: 111 111 82
Width: 1253
Flags: W
Fore
627 991 m 0,0,1
 479 991 479 991 393 875.5 c 128,-1,2
 307 760 307 760 307 559 c 0,3,4
 307 358 307 358 392.5 242.5 c 128,-1,5
 478 127 478 127 627 127 c 0,6,7
 774 127 774 127 860 243 c 128,-1,8
 946 359 946 359 946 559 c 0,9,10
 946 758 946 758 860 874.5 c 128,-1,11
 774 991 774 991 627 991 c 0,0,1
627 1147 m 0,12,13
 867 1147 867 1147 1004 991 c 128,-1,14
 1141 835 1141 835 1141 559 c 0,15,16
 1141 284 1141 284 1004 127.5 c 128,-1,17
 867 -29 867 -29 627 -29 c 0,18,19
 386 -29 386 -29 249.5 127.5 c 128,-1,20
 113 284 113 284 113 559 c 0,21,22
 113 835 113 835 249.5 991 c 128,-1,23
 386 1147 386 1147 627 1147 c 0,12,13
EndSplineSet
KernsSLIF: 8222 -131 0 0 8221 -73 0 0 8220 -149 0 0 120 -63 0 0 46 -36 0 0 45 38 0 0
EndChar
StartChar: p
Encoding: 112 112 83
Width: 1300
Flags: W
Fore
371 168 m 1,0,-1
 371 -426 l 1,1,-1
 186 -426 l 1,2,-1
 186 1120 l 1,3,-1
 371 1120 l 1,4,-1
 371 950 l 1,5,6
 429 1050 429 1050 517.5 1098.5 c 128,-1,7
 606 1147 606 1147 729 1147 c 0,8,9
 933 1147 933 1147 1060.5 985 c 128,-1,10
 1188 823 1188 823 1188 559 c 0,11,12
 1188 295 1188 295 1060.5 133 c 128,-1,13
 933 -29 933 -29 729 -29 c 0,14,15
 606 -29 606 -29 517.5 19.5 c 128,-1,16
 429 68 429 68 371 168 c 1,0,-1
997 559 m 0,17,18
 997 762 997 762 913.5 877.5 c 128,-1,19
 830 993 830 993 684 993 c 0,20,21
 538 993 538 993 454.5 877.5 c 128,-1,22
 371 762 371 762 371 559 c 0,23,24
 371 356 371 356 454.5 240.5 c 128,-1,25
 538 125 538 125 684 125 c 0,26,27
 830 125 830 125 913.5 240.5 c 128,-1,28
 997 356 997 356 997 559 c 0,17,18
EndSplineSet
EndChar
StartChar: q
Encoding: 113 113 84
Width: 1300
Flags: W
Fore
303 559 m 0,0,1
 303 356 303 356 386.5 240.5 c 128,-1,2
 470 125 470 125 616 125 c 0,3,4
 762 125 762 125 846 240.5 c 128,-1,5
 930 356 930 356 930 559 c 0,6,7
 930 762 930 762 846 877.5 c 128,-1,8
 762 993 762 993 616 993 c 0,9,10
 470 993 470 993 386.5 877.5 c 128,-1,11
 303 762 303 762 303 559 c 0,0,1
930 168 m 1,12,13
 872 68 872 68 783.5 19.5 c 128,-1,14
 695 -29 695 -29 571 -29 c 0,15,16
 368 -29 368 -29 240.5 133 c 128,-1,17
 113 295 113 295 113 559 c 0,18,19
 113 823 113 823 240.5 985 c 128,-1,20
 368 1147 368 1147 571 1147 c 0,21,22
 695 1147 695 1147 783.5 1098.5 c 128,-1,23
 872 1050 872 1050 930 950 c 1,24,-1
 930 1120 l 1,25,-1
 1114 1120 l 1,26,-1
 1114 -426 l 1,27,-1
 930 -426 l 1,28,-1
 930 168 l 1,12,13
EndSplineSet
EndChar
StartChar: r
Encoding: 114 114 85
Width: 842
Flags: W
Fore
842 948 m 1,0,1
 811 966 811 966 774.5 974.5 c 128,-1,2
 738 983 738 983 694 983 c 0,3,4
 538 983 538 983 454.5 881.5 c 128,-1,5
 371 780 371 780 371 590 c 2,6,-1
 371 0 l 1,7,-1
 186 0 l 1,8,-1
 186 1120 l 1,9,-1
 371 1120 l 1,10,-1
 371 946 l 1,11,12
 429 1048 429 1048 522 1097.5 c 128,-1,13
 615 1147 615 1147 748 1147 c 0,14,15
 767 1147 767 1147 790 1144.5 c 128,-1,16
 813 1142 813 1142 841 1137 c 1,17,-1
 842 948 l 1,0,1
EndSplineSet
KernsSLIF: 242 -45 0 0 45 -131 0 0 8222 -311 0 0 235 -45 0 0 58 -36 0 0 233 -45 0 0 231 -45 0 0 341 -36 0 0 8221 86 0 0 232 -45 0 0 245 -45 0 0 269 -45 0 0 271 72 0 0 345 -36 0 0 241 -36 0 0 244 -45 0 0 287 -36 0 0 234 -45 0 0 246 -45 0 0 263 -45 0 0 46 -188 0 0 120 -55 0 0 101 -45 0 0 283 -45 0 0 99 -45 0 0 171 -73 0 0 100 -36 0 0 103 -36 0 0 104 -36 0 0 109 -36 0 0 111 -45 0 0 110 -36 0 0 113 -36 0 0 114 -36 0 0 328 -36 0 0 243 -45 0 0
EndChar
StartChar: s
Encoding: 115 115 86
Width: 1067
Flags: W
Fore
907 1087 m 1,0,-1
 907 913 l 1,1,2
 829 953 829 953 745 973 c 128,-1,3
 661 993 661 993 571 993 c 0,4,5
 434 993 434 993 365.5 951 c 128,-1,6
 297 909 297 909 297 825 c 0,7,8
 297 761 297 761 346 724.5 c 128,-1,9
 395 688 395 688 543 655 c 2,10,-1
 606 641 l 2,11,12
 802 599 802 599 884.5 522.5 c 128,-1,13
 967 446 967 446 967 309 c 0,14,15
 967 153 967 153 843.5 62 c 128,-1,16
 720 -29 720 -29 504 -29 c 0,17,18
 414 -29 414 -29 316.5 -11.5 c 128,-1,19
 219 6 219 6 111 41 c 1,20,-1
 111 231 l 1,21,22
 213 178 213 178 312 151.5 c 128,-1,23
 411 125 411 125 508 125 c 0,24,25
 638 125 638 125 708 169.5 c 128,-1,26
 778 214 778 214 778 295 c 0,27,28
 778 370 778 370 727.5 410 c 128,-1,29
 677 450 677 450 506 487 c 2,30,-1
 442 502 l 1,31,32
 271 538 271 538 195 612.5 c 128,-1,33
 119 687 119 687 119 817 c 0,34,35
 119 975 119 975 231 1061 c 128,-1,36
 343 1147 343 1147 549 1147 c 0,37,38
 651 1147 651 1147 741 1132 c 128,-1,39
 831 1117 831 1117 907 1087 c 1,0,-1
EndSplineSet
EndChar
StartChar: t
Encoding: 116 116 87
Width: 803
Flags: W
Fore
375 1438 m 1,0,-1
 375 1120 l 1,1,-1
 754 1120 l 1,2,-1
 754 977 l 1,3,-1
 375 977 l 1,4,-1
 375 369 l 2,5,6
 375 232 375 232 412.5 193 c 128,-1,7
 450 154 450 154 565 154 c 2,8,-1
 754 154 l 1,9,-1
 754 0 l 1,10,-1
 565 0 l 2,11,12
 352 0 352 0 271 79.5 c 128,-1,13
 190 159 190 159 190 369 c 2,14,-1
 190 977 l 1,15,-1
 55 977 l 1,16,-1
 55 1120 l 1,17,-1
 190 1120 l 1,18,-1
 190 1438 l 1,19,-1
 375 1438 l 1,0,-1
EndSplineSet
EndChar
StartChar: u
Encoding: 117 117 88
Width: 1298
Flags: W
Fore
174 442 m 2,0,-1
 174 1120 l 1,1,-1
 358 1120 l 1,2,-1
 358 449 l 2,3,4
 358 290 358 290 420 210.5 c 128,-1,5
 482 131 482 131 606 131 c 0,6,7
 755 131 755 131 841.5 226 c 128,-1,8
 928 321 928 321 928 485 c 2,9,-1
 928 1120 l 1,10,-1
 1112 1120 l 1,11,-1
 1112 0 l 1,12,-1
 928 0 l 1,13,-1
 928 172 l 1,14,15
 861 70 861 70 772.5 20.5 c 128,-1,16
 684 -29 684 -29 567 -29 c 0,17,18
 374 -29 374 -29 274 91 c 128,-1,19
 174 211 174 211 174 442 c 2,0,-1
EndSplineSet
EndChar
StartChar: v
Encoding: 118 118 89
Width: 1212
Flags: W
Fore
61 1120 m 1,0,-1
 256 1120 l 1,1,-1
 606 180 l 1,2,-1
 956 1120 l 1,3,-1
 1151 1120 l 1,4,-1
 731 0 l 1,5,-1
 481 0 l 1,6,-1
 61 1120 l 1,0,-1
EndSplineSet
KernsSLIF: 8222 -272 0 0 8221 -36 0 0 187 -36 0 0 171 -36 0 0 58 -112 0 0 46 -159 0 0 45 -55 0 0
EndChar
StartChar: w
Encoding: 119 119 90
Width: 1675
Flags: W
Fore
86 1120 m 1,0,-1
 270 1120 l 1,1,-1
 500 246 l 1,2,-1
 729 1120 l 1,3,-1
 946 1120 l 1,4,-1
 1176 246 l 1,5,-1
 1405 1120 l 1,6,-1
 1589 1120 l 1,7,-1
 1296 0 l 1,8,-1
 1079 0 l 1,9,-1
 838 918 l 1,10,-1
 596 0 l 1,11,-1
 379 0 l 1,12,-1
 86 1120 l 1,0,-1
EndSplineSet
KernsSLIF: 8222 -215 0 0 187 -36 0 0 171 -36 0 0 58 -112 0 0 46 -188 0 0
EndChar
StartChar: x
Encoding: 120 120 91
Width: 1212
Flags: W
Fore
1124 1120 m 1,0,-1
 719 575 l 1,1,-1
 1145 0 l 1,2,-1
 928 0 l 1,3,-1
 602 440 l 1,4,-1
 276 0 l 1,5,-1
 59 0 l 1,6,-1
 494 586 l 1,7,-1
 96 1120 l 1,8,-1
 313 1120 l 1,9,-1
 610 721 l 1,10,-1
 907 1120 l 1,11,-1
 1124 1120 l 1,0,-1
EndSplineSet
KernsSLIF: 283 -63 0 0 269 -36 0 0 263 -36 0 0 245 -63 0 0 246 -63 0 0 244 -63 0 0 242 -63 0 0 243 -63 0 0 235 -63 0 0 234 -63 0 0 232 -63 0 0 233 -63 0 0 231 -36 0 0 111 -63 0 0 101 -63 0 0 99 -36 0 0
EndChar
StartChar: y
Encoding: 121 121 92
Width: 1212
Flags: W
Fore
659 -104 m 1,0,1
 581 -304 581 -304 507 -365 c 128,-1,2
 433 -426 433 -426 309 -426 c 2,3,-1
 162 -426 l 1,4,-1
 162 -272 l 1,5,-1
 270 -272 l 2,6,7
 346 -272 346 -272 388 -236 c 128,-1,8
 430 -200 430 -200 481 -66 c 1,9,-1
 514 18 l 1,10,-1
 61 1120 l 1,11,-1
 256 1120 l 1,12,-1
 606 244 l 1,13,-1
 956 1120 l 1,14,-1
 1151 1120 l 1,15,-1
 659 -104 l 1,0,1
EndSplineSet
KernsSLIF: 8222 -301 0 0 187 -36 0 0 171 -36 0 0 58 -149 0 0 46 -292 0 0 45 -36 0 0
EndChar
StartChar: z
Encoding: 122 122 93
Width: 1075
Flags: W
Fore
113 1120 m 1,0,-1
 987 1120 l 1,1,-1
 987 952 l 1,2,-1
 295 147 l 1,3,-1
 987 147 l 1,4,-1
 987 0 l 1,5,-1
 88 0 l 1,6,-1
 88 168 l 1,7,-1
 780 973 l 1,8,-1
 113 973 l 1,9,-1
 113 1120 l 1,0,-1
EndSplineSet
EndChar
StartChar: braceleft
Encoding: 123 123 94
Width: 1303
Flags: W
Fore
1047 -190 m 1,0,-1
 1047 -334 l 1,1,-1
 985 -334 l 2,2,3
 736 -334 736 -334 651.5 -260 c 128,-1,4
 567 -186 567 -186 567 35 c 2,5,-1
 567 274 l 2,6,7
 567 425 567 425 513 483 c 128,-1,8
 459 541 459 541 317 541 c 2,9,-1
 256 541 l 1,10,-1
 256 684 l 1,11,-1
 317 684 l 2,12,13
 460 684 460 684 513.5 741.5 c 128,-1,14
 567 799 567 799 567 948 c 2,15,-1
 567 1188 l 2,16,17
 567 1409 567 1409 651.5 1482.5 c 128,-1,18
 736 1556 736 1556 985 1556 c 2,19,-1
 1047 1556 l 1,20,-1
 1047 1413 l 1,21,-1
 979 1413 l 2,22,23
 838 1413 838 1413 795 1369 c 128,-1,24
 752 1325 752 1325 752 1184 c 2,25,-1
 752 936 l 2,26,27
 752 779 752 779 706.5 708 c 128,-1,28
 661 637 661 637 551 612 c 1,29,30
 662 585 662 585 707 514 c 128,-1,31
 752 443 752 443 752 287 c 2,32,-1
 752 39 l 2,33,34
 752 -102 752 -102 795 -146 c 128,-1,35
 838 -190 838 -190 979 -190 c 2,36,-1
 1047 -190 l 1,0,-1
EndSplineSet
EndChar
StartChar: bar
Encoding: 124 124 95
Width: 690
Flags: W
Fore
430 1565 m 1,0,-1
 430 -483 l 1,1,-1
 260 -483 l 1,2,-1
 260 1565 l 1,3,-1
 430 1565 l 1,0,-1
EndSplineSet
EndChar
StartChar: braceright
Encoding: 125 125 96
Width: 1303
Flags: W
Fore
256 -190 m 1,0,-1
 326 -190 l 2,1,2
 466 -190 466 -190 508.5 -147 c 128,-1,3
 551 -104 551 -104 551 39 c 2,4,-1
 551 287 l 2,5,6
 551 443 551 443 596 514 c 128,-1,7
 641 585 641 585 752 612 c 1,8,9
 641 637 641 637 596 708 c 128,-1,10
 551 779 551 779 551 936 c 2,11,-1
 551 1184 l 2,12,13
 551 1326 551 1326 508.5 1369.5 c 128,-1,14
 466 1413 466 1413 326 1413 c 2,15,-1
 256 1413 l 1,16,-1
 256 1556 l 1,17,-1
 319 1556 l 2,18,19
 568 1556 568 1556 651.5 1482.5 c 128,-1,20
 735 1409 735 1409 735 1188 c 2,21,-1
 735 948 l 2,22,23
 735 799 735 799 789 741.5 c 128,-1,24
 843 684 843 684 985 684 c 2,25,-1
 1047 684 l 1,26,-1
 1047 541 l 1,27,-1
 985 541 l 2,28,29
 843 541 843 541 789 483 c 128,-1,30
 735 425 735 425 735 274 c 2,31,-1
 735 35 l 2,32,33
 735 -186 735 -186 651.5 -260 c 128,-1,34
 568 -334 568 -334 319 -334 c 2,35,-1
 256 -334 l 1,36,-1
 256 -190 l 1,0,-1
EndSplineSet
EndChar
StartChar: asciitilde
Encoding: 126 126 97
Width: 1716
Flags: W
Fore
1499 817 m 1,0,-1
 1499 639 l 1,1,2
 1394 560 1394 560 1304.5 526 c 128,-1,3
 1215 492 1215 492 1118 492 c 0,4,5
 1008 492 1008 492 862 551 c 0,6,7
 851 555 851 555 846 557 c 0,8,9
 839 560 839 560 824 565 c 0,10,11
 669 627 669 627 575 627 c 0,12,13
 487 627 487 627 401 588.5 c 128,-1,14
 315 550 315 550 217 467 c 1,15,-1
 217 645 l 1,16,17
 322 724 322 724 411.5 758.5 c 128,-1,18
 501 793 501 793 598 793 c 0,19,20
 708 793 708 793 855 733 c 0,21,22
 865 729 865 729 870 727 c 0,23,24
 878 724 878 724 892 719 c 0,25,26
 1047 657 1047 657 1141 657 c 0,27,28
 1227 657 1227 657 1311.5 695 c 128,-1,29
 1396 733 1396 733 1499 817 c 1,0,-1
EndSplineSet
EndChar
StartChar: exclamdown
Encoding: 161 161 163
Width: 821
Flags: W
Fore
512 1239 m 1,0,-1
 309 1239 l 1,1,-1
 309 1493 l 1,2,-1
 512 1493 l 1,3,-1
 512 1239 l 1,0,-1
512 0 m 1,4,-1
 309 0 l 1,5,-1
 309 655 l 1,6,-1
 330 1012 l 1,7,-1
 492 1012 l 1,8,-1
 512 655 l 1,9,-1
 512 0 l 1,4,-1
EndSplineSet
EndChar
StartChar: cent
Encoding: 162 162 132
Width: 1303
Flags: W
Fore
678 131 m 1,0,-1
 678 987 l 1,1,2
 531 969 531 969 449 856 c 128,-1,3
 367 743 367 743 367 559 c 0,4,5
 367 374 367 374 449 261 c 128,-1,6
 531 148 531 148 678 131 c 1,0,-1
1059 1077 m 1,7,-1
 1059 905 l 1,8,9
 985 946 985 946 917 967 c 128,-1,10
 849 988 849 988 781 991 c 1,11,-1
 780 127 l 1,12,13
 850 132 850 132 918.5 153 c 128,-1,14
 987 174 987 174 1059 213 c 1,15,-1
 1059 43 l 1,16,17
 994 13 994 13 925.5 -4.5 c 128,-1,18
 857 -22 857 -22 780 -29 c 1,19,-1
 780 -313 l 1,20,-1
 678 -313 l 1,21,-1
 678 -25 l 1,22,23
 437 -5 437 -5 304.5 148.5 c 128,-1,24
 172 302 172 302 172 559 c 0,25,26
 172 817 172 817 304.5 970 c 128,-1,27
 437 1123 437 1123 678 1145 c 1,28,-1
 678 1432 l 1,29,-1
 780 1432 l 1,30,-1
 781 1145 l 1,31,32
 854 1141 854 1141 922.5 1124.5 c 128,-1,33
 991 1108 991 1108 1059 1077 c 1,7,-1
EndSplineSet
EndChar
StartChar: sterling
Encoding: 163 163 133
Width: 1303
Flags: W
Fore
1102 1460 m 1,0,-1
 1102 1278 l 1,1,2
 1026 1319 1026 1319 958 1339.5 c 128,-1,3
 890 1360 890 1360 829 1360 c 0,4,5
 681 1360 681 1360 623 1282.5 c 128,-1,6
 565 1205 565 1205 565 993 c 2,7,-1
 565 778 l 1,8,-1
 956 778 l 1,9,-1
 956 635 l 1,10,-1
 565 635 l 1,11,-1
 565 170 l 1,12,-1
 1122 170 l 1,13,-1
 1122 0 l 1,14,-1
 129 0 l 1,15,-1
 129 170 l 1,16,-1
 365 170 l 1,17,-1
 365 635 l 1,18,-1
 166 635 l 1,19,-1
 166 778 l 1,20,-1
 365 778 l 1,21,-1
 365 1016 l 2,22,23
 365 1277 365 1277 472 1398.5 c 128,-1,24
 579 1520 579 1520 811 1520 c 0,25,26
 872 1520 872 1520 947.5 1504.5 c 128,-1,27
 1023 1489 1023 1489 1102 1460 c 1,0,-1
EndSplineSet
EndChar
StartChar: currency
Encoding: 164 164 189
Width: 1303
Flags: W
Fore
891 993 m 1,0,-1
 1098 1202 l 1,1,-1
 1212 1087 l 1,2,-1
 1006 881 l 1,3,4
 1043 822 1043 822 1061 762.5 c 128,-1,5
 1079 703 1079 703 1079 641 c 0,6,7
 1079 578 1079 578 1060 520.5 c 128,-1,8
 1041 463 1041 463 1001 406 c 1,9,-1
 1210 199 l 1,10,-1
 1096 86 l 1,11,-1
 889 293 l 1,12,13
 830 253 830 253 772 234 c 128,-1,14
 714 215 714 215 653 215 c 0,15,16
 595 215 595 215 535 233.5 c 128,-1,17
 475 252 475 252 414 289 c 1,18,-1
 207 82 l 1,19,-1
 94 197 l 1,20,-1
 301 403 l 1,21,22
 264 465 264 465 245.5 524 c 128,-1,23
 227 583 227 583 227 641 c 0,24,25
 227 705 227 705 246 763 c 128,-1,26
 265 821 265 821 303 877 c 1,27,-1
 96 1083 l 1,28,-1
 211 1198 l 1,29,-1
 418 991 l 1,30,31
 473 1030 473 1030 531 1048.5 c 128,-1,32
 589 1067 589 1067 653 1067 c 0,33,34
 713 1067 713 1067 771.5 1049 c 128,-1,35
 830 1031 830 1031 891 993 c 1,0,-1
922 643 m 0,36,37
 922 755 922 755 844.5 832 c 128,-1,38
 767 909 767 909 653 909 c 0,39,40
 541 909 541 909 462 832 c 128,-1,41
 383 755 383 755 383 643 c 0,42,43
 383 529 383 529 461.5 451 c 128,-1,44
 540 373 540 373 653 373 c 0,45,46
 766 373 766 373 844 451.5 c 128,-1,47
 922 530 922 530 922 643 c 0,36,37
EndSplineSet
EndChar
StartChar: yen
Encoding: 165 165 150
Width: 1303
Flags: W
Fore
1165 455 m 1,0,-1
 752 455 l 1,1,-1
 752 0 l 1,2,-1
 551 0 l 1,3,-1
 551 455 l 1,4,-1
 135 455 l 1,5,-1
 135 578 l 1,6,-1
 551 578 l 1,7,-1
 551 629 l 1,8,-1
 467 784 l 1,9,-1
 135 784 l 1,10,-1
 135 907 l 1,11,-1
 399 907 l 1,12,-1
 82 1493 l 1,13,-1
 272 1493 l 1,14,-1
 651 793 l 1,15,-1
 1028 1493 l 1,16,-1
 1219 1493 l 1,17,-1
 901 907 l 1,18,-1
 1165 907 l 1,19,-1
 1165 784 l 1,20,-1
 834 784 l 1,21,-1
 750 629 l 1,22,-1
 750 578 l 1,23,-1
 1165 578 l 1,24,-1
 1165 455 l 1,0,-1
EndSplineSet
EndChar
StartChar: brokenbar
Encoding: 166 166 231
Width: 690
Flags: W
Fore
430 408 m 1,0,-1
 430 -350 l 1,1,-1
 260 -350 l 1,2,-1
 260 408 l 1,3,-1
 430 408 l 1,0,-1
430 1432 m 1,4,-1
 430 674 l 1,5,-1
 260 674 l 1,6,-1
 260 1432 l 1,7,-1
 430 1432 l 1,4,-1
EndSplineSet
EndChar
StartChar: section
Encoding: 167 167 134
Width: 1024
Flags: W
Fore
379 936 m 1,0,1
 316 890 316 890 285 845 c 128,-1,2
 254 800 254 800 254 754 c 0,3,4
 254 678 254 678 323.5 611.5 c 128,-1,5
 393 545 393 545 643 410 c 1,6,7
 706 455 706 455 737 500.5 c 128,-1,8
 768 546 768 546 768 592 c 0,9,10
 768 667 768 667 696.5 735 c 128,-1,11
 625 803 625 803 379 936 c 1,0,1
829 1462 m 1,12,-1
 829 1298 l 1,13,14
 746 1337 746 1337 674.5 1356.5 c 128,-1,15
 603 1376 603 1376 547 1376 c 0,16,17
 450 1376 450 1376 396 1336 c 128,-1,18
 342 1296 342 1296 342 1225 c 0,19,20
 342 1135 342 1135 548 1020 c 0,21,22
 574 1005 574 1005 588 997 c 0,23,24
 799 878 799 878 864.5 801 c 128,-1,25
 930 724 930 724 930 623 c 0,26,27
 930 533 930 533 884 463 c 128,-1,28
 838 393 838 393 745 340 c 1,29,30
 807 288 807 288 835.5 233.5 c 128,-1,31
 864 179 864 179 864 115 c 0,32,33
 864 -27 864 -27 762 -111 c 128,-1,34
 660 -195 660 -195 487 -195 c 0,35,36
 414 -195 414 -195 337 -180.5 c 128,-1,37
 260 -166 260 -166 172 -137 c 1,38,-1
 172 27 l 1,39,40
 259 -12 259 -12 333 -31.5 c 128,-1,41
 407 -51 407 -51 465 -51 c 0,42,43
 567 -51 567 -51 623.5 -9 c 128,-1,44
 680 33 680 33 680 109 c 0,45,46
 680 211 680 211 459 334 c 2,47,-1
 434 348 l 2,48,49
 220 468 220 468 156 544.5 c 128,-1,50
 92 621 92 621 92 723 c 0,51,52
 92 814 92 814 138.5 885.5 c 128,-1,53
 185 957 185 957 276 1006 c 1,54,55
 217 1050 217 1050 187.5 1106 c 128,-1,56
 158 1162 158 1162 158 1231 c 0,57,58
 158 1361 158 1361 258 1440.5 c 128,-1,59
 358 1520 358 1520 524 1520 c 0,60,61
 597 1520 597 1520 673.5 1505.5 c 128,-1,62
 750 1491 750 1491 829 1462 c 1,12,-1
EndSplineSet
EndChar
StartChar: dieresis
Encoding: 168 168 142
Width: 1024
Flags: W
Fore
606 1552 m 1,0,-1
 809 1552 l 1,1,-1
 809 1350 l 1,2,-1
 606 1350 l 1,3,-1
 606 1552 l 1,0,-1
215 1552 m 1,4,-1
 418 1552 l 1,5,-1
 418 1350 l 1,6,-1
 215 1350 l 1,7,-1
 215 1552 l 1,4,-1
EndSplineSet
Ligature: 0 1 'liga' space uni0308
EndChar
StartChar: copyright
Encoding: 169 169 139
Width: 2048
Flags: W
Fore
1024 1485 m 0,0,1
 1176 1485 1176 1485 1307.5 1430 c 128,-1,2
 1439 1375 1439 1375 1548 1266 c 0,3,4
 1657 1157 1657 1157 1711 1026 c 128,-1,5
 1765 895 1765 895 1765 741 c 0,6,7
 1765 589 1765 589 1711 458.5 c 128,-1,8
 1657 328 1657 328 1548 219 c 0,9,10
 1439 110 1439 110 1307.5 55 c 128,-1,11
 1176 0 1176 0 1024 0 c 0,12,13
 872 0 872 0 740.5 55 c 128,-1,14
 609 110 609 110 500 219 c 0,15,16
 391 328 391 328 337 458.5 c 128,-1,17
 283 589 283 589 283 741 c 0,18,19
 283 895 283 895 337 1026 c 128,-1,20
 391 1157 391 1157 500 1266 c 0,21,22
 609 1375 609 1375 740.5 1430 c 128,-1,23
 872 1485 872 1485 1024 1485 c 0,0,1
1024 1382 m 0,24,25
 893 1382 893 1382 780 1335 c 128,-1,26
 667 1288 667 1288 573 1194 c 0,27,28
 479 1100 479 1100 431 985.5 c 128,-1,29
 383 871 383 871 383 741 c 0,30,31
 383 612 383 612 431 498.5 c 128,-1,32
 479 385 479 385 573 291 c 0,33,34
 667 197 667 197 780 149.5 c 128,-1,35
 893 102 893 102 1024 102 c 0,36,37
 1156 102 1156 102 1269.5 149.5 c 128,-1,38
 1383 197 1383 197 1477 291 c 0,39,40
 1570 384 1570 384 1616.5 497 c 128,-1,41
 1663 610 1663 610 1663 741 c 0,42,43
 1663 874 1663 874 1616 987.5 c 128,-1,44
 1569 1101 1569 1101 1477 1194 c 0,45,46
 1383 1288 1383 1288 1269.5 1335 c 128,-1,47
 1156 1382 1156 1382 1024 1382 c 0,24,25
1323 1137 m 1,48,-1
 1323 1008 l 1,49,50
 1257 1041 1257 1041 1192 1057 c 128,-1,51
 1127 1073 1127 1073 1061 1073 c 0,52,53
 912 1073 912 1073 828.5 985.5 c 128,-1,54
 745 898 745 898 745 741 c 0,55,56
 745 582 745 582 830.5 495 c 128,-1,57
 916 408 916 408 1071 408 c 0,58,59
 1135 408 1135 408 1196 423.5 c 128,-1,60
 1257 439 1257 439 1323 473 c 1,61,-1
 1323 346 l 1,62,63
 1256 317 1256 317 1187.5 303 c 128,-1,64
 1119 289 1119 289 1049 289 c 0,65,66
 833 289 833 289 707.5 411 c 128,-1,67
 582 533 582 533 582 741 c 0,68,69
 582 950 582 950 707.5 1071 c 128,-1,70
 833 1192 833 1192 1049 1192 c 0,71,72
 1122 1192 1122 1192 1190 1178 c 128,-1,73
 1258 1164 1258 1164 1323 1137 c 1,48,-1
EndSplineSet
EndChar
StartChar: ordfeminine
Encoding: 170 170 157
Width: 965
Flags: W
Fore
139 592 m 1,0,-1
 827 592 l 1,1,-1
 827 469 l 1,2,-1
 139 469 l 1,3,-1
 139 592 l 1,0,-1
825 1165 m 2,4,-1
 825 717 l 1,5,-1
 676 717 l 1,6,-1
 676 829 l 1,7,8
 632 766 632 766 560 732 c 128,-1,9
 488 698 488 698 395 698 c 0,10,11
 267 698 267 698 191 765.5 c 128,-1,12
 115 833 115 833 115 946 c 0,13,14
 115 1081 115 1081 210.5 1150 c 128,-1,15
 306 1219 306 1219 494 1219 c 2,16,-1
 676 1219 l 1,17,-1
 676 1223 l 2,18,19
 676 1314 676 1314 617.5 1359.5 c 128,-1,20
 559 1405 559 1405 442 1405 c 0,21,22
 380 1405 380 1405 312 1388 c 128,-1,23
 244 1371 244 1371 176 1337 c 1,24,-1
 176 1464 l 1,25,26
 249 1492 249 1492 321.5 1506 c 128,-1,27
 394 1520 394 1520 463 1520 c 0,28,29
 646 1520 646 1520 735.5 1432 c 128,-1,30
 825 1344 825 1344 825 1165 c 2,4,-1
549 1104 m 2,31,32
 388 1104 388 1104 325 1070.5 c 128,-1,33
 262 1037 262 1037 262 958 c 0,34,35
 262 894 262 894 311 855.5 c 128,-1,36
 360 817 360 817 442 817 c 0,37,38
 546 817 546 817 611 889 c 128,-1,39
 676 961 676 961 676 1075 c 2,40,-1
 676 1104 l 1,41,-1
 549 1104 l 2,31,32
EndSplineSet
EndChar
StartChar: guillemotleft
Encoding: 171 171 169
Width: 1253
Flags: W
Fore
1061 1059 m 1,0,-1
 1061 868 l 1,1,-1
 760 600 l 1,2,-1
 1061 332 l 1,3,-1
 1061 141 l 1,4,-1
 592 559 l 1,5,-1
 592 641 l 1,6,-1
 1061 1059 l 1,0,-1
627 1059 m 1,7,-1
 627 868 l 1,8,-1
 326 600 l 1,9,-1
 627 332 l 1,10,-1
 627 141 l 1,11,-1
 158 559 l 1,12,-1
 158 641 l 1,13,-1
 627 1059 l 1,7,-1
EndSplineSet
KernsSLIF: 356 -112 0 0 270 -36 0 0 268 -36 0 0 262 -36 0 0 286 -36 0 0 253 -36 0 0 221 -149 0 0 376 -149 0 0 255 -36 0 0 198 151 0 0 199 -36 0 0 121 -36 0 0 119 -36 0 0 118 -36 0 0 89 -149 0 0 87 -36 0 0 86 -112 0 0 84 -112 0 0 74 -36 0 0 71 -36 0 0 68 -36 0 0 67 -36 0 0 66 -36 0 0
EndChar
StartChar: logicalnot
Encoding: 172 172 164
Width: 1716
Flags: W
Fore
217 862 m 1,0,-1
 1499 862 l 1,1,-1
 1499 287 l 1,2,-1
 1331 287 l 1,3,-1
 1331 692 l 1,4,-1
 217 692 l 1,5,-1
 217 862 l 1,0,-1
EndSplineSet
EndChar
StartChar: sfthyphen
Encoding: 173 173 256
Width: 739
Flags: W
Fore
100 643 m 1,0,-1
 639 643 l 1,1,-1
 639 479 l 1,2,-1
 100 479 l 1,3,-1
 100 643 l 1,0,-1
EndSplineSet
EndChar
StartChar: registered
Encoding: 174 174 138
Width: 2048
Flags: W
Fore
1024 1382 m 0,0,1
 893 1382 893 1382 780 1335 c 128,-1,2
 667 1288 667 1288 573 1194 c 0,3,4
 479 1100 479 1100 431 985.5 c 128,-1,5
 383 871 383 871 383 741 c 0,6,7
 383 612 383 612 431 498.5 c 128,-1,8
 479 385 479 385 573 291 c 0,9,10
 667 197 667 197 780 149.5 c 128,-1,11
 893 102 893 102 1024 102 c 0,12,13
 1156 102 1156 102 1269.5 149.5 c 128,-1,14
 1383 197 1383 197 1477 291 c 0,15,16
 1570 384 1570 384 1616.5 497 c 128,-1,17
 1663 610 1663 610 1663 741 c 0,18,19
 1663 874 1663 874 1616 987.5 c 128,-1,20
 1569 1101 1569 1101 1477 1194 c 0,21,22
 1383 1288 1383 1288 1269.5 1335 c 128,-1,23
 1156 1382 1156 1382 1024 1382 c 0,0,1
1024 1485 m 0,24,25
 1176 1485 1176 1485 1307.5 1430 c 128,-1,26
 1439 1375 1439 1375 1548 1266 c 0,27,28
 1657 1157 1657 1157 1711 1026 c 128,-1,29
 1765 895 1765 895 1765 741 c 0,30,31
 1765 589 1765 589 1711 458.5 c 128,-1,32
 1657 328 1657 328 1548 219 c 0,33,34
 1439 110 1439 110 1307.5 55 c 128,-1,35
 1176 0 1176 0 1024 0 c 0,36,37
 872 0 872 0 740.5 55 c 128,-1,38
 609 110 609 110 500 219 c 0,39,40
 391 328 391 328 337 458.5 c 128,-1,41
 283 589 283 589 283 741 c 0,42,43
 283 895 283 895 337 1026 c 128,-1,44
 391 1157 391 1157 500 1266 c 0,45,46
 609 1375 609 1375 740.5 1430 c 128,-1,47
 872 1485 872 1485 1024 1485 c 0,24,25
997 1071 m 2,48,-1
 874 1071 l 1,49,-1
 874 795 l 1,50,-1
 997 795 l 2,51,52
 1107 795 1107 795 1150.5 826 c 128,-1,53
 1194 857 1194 857 1194 932 c 0,54,55
 1194 1008 1194 1008 1150 1039.5 c 128,-1,56
 1106 1071 1106 1071 997 1071 c 2,48,-1
1004 1174 m 2,57,58
 1180 1174 1180 1174 1267 1114.5 c 128,-1,59
 1354 1055 1354 1055 1354 934 c 0,60,61
 1354 848 1354 848 1301.5 792 c 128,-1,62
 1249 736 1249 736 1153 719 c 1,63,64
 1177 711 1177 711 1210.5 672.5 c 128,-1,65
 1244 634 1244 634 1290 561 c 1,66,-1
 1427 338 l 1,67,-1
 1255 338 l 1,68,-1
 1126 547 l 2,69,70
 1067 643 1067 643 1030.5 668.5 c 128,-1,71
 994 694 994 694 940 694 c 2,72,-1
 874 694 l 1,73,-1
 874 338 l 1,74,-1
 719 338 l 1,75,-1
 719 1174 l 1,76,-1
 1004 1174 l 2,57,58
EndSplineSet
EndChar
StartChar: macron
Encoding: 175 175 217
Width: 1024
Flags: W
Fore
213 1526 m 1,0,-1
 811 1526 l 1,1,-1
 811 1378 l 1,2,-1
 213 1378 l 1,3,-1
 213 1526 l 1,0,-1
EndSplineSet
Ligature: 0 1 'liga' space uni0304
EndChar
StartChar: degree
Encoding: 176 176 131
Width: 1024
Flags: W
Fore
512 1391 m 0,0,1
 432 1391 432 1391 377 1335.5 c 128,-1,2
 322 1280 322 1280 322 1200 c 0,3,4
 322 1121 322 1121 377 1066.5 c 128,-1,5
 432 1012 432 1012 512 1012 c 0,6,7
 592 1012 592 1012 647 1066.5 c 128,-1,8
 702 1121 702 1121 702 1200 c 0,9,10
 702 1279 702 1279 646.5 1335 c 128,-1,11
 591 1391 591 1391 512 1391 c 0,0,1
512 1520 m 0,12,13
 576 1520 576 1520 635 1495.5 c 128,-1,14
 694 1471 694 1471 737 1425 c 1,15,16
 783 1380 783 1380 806 1323 c 128,-1,17
 829 1266 829 1266 829 1200 c 0,18,19
 829 1068 829 1068 736.5 976.5 c 128,-1,20
 644 885 644 885 510 885 c 0,21,22
 375 885 375 885 285 975 c 128,-1,23
 195 1065 195 1065 195 1200 c 0,24,25
 195 1334 195 1334 287 1427 c 128,-1,26
 379 1520 379 1520 512 1520 c 0,12,13
EndSplineSet
EndChar
StartChar: plusminus
Encoding: 177 177 147
Width: 1716
Flags: W
Fore
942 1284 m 1,0,-1
 942 897 l 1,1,-1
 1499 897 l 1,2,-1
 1499 727 l 1,3,-1
 942 727 l 1,4,-1
 942 340 l 1,5,-1
 774 340 l 1,6,-1
 774 727 l 1,7,-1
 217 727 l 1,8,-1
 217 897 l 1,9,-1
 774 897 l 1,10,-1
 774 1284 l 1,11,-1
 942 1284 l 1,0,-1
217 170 m 1,12,-1
 1499 170 l 1,13,-1
 1499 0 l 1,14,-1
 217 0 l 1,15,-1
 217 170 l 1,12,-1
EndSplineSet
EndChar
StartChar: twosuperior
Encoding: 178 178 241
Width: 821
Flags: W
Fore
268 782 m 1,0,-1
 692 782 l 1,1,-1
 692 668 l 1,2,-1
 94 668 l 1,3,-1
 94 778 l 1,4,5
 128 809 128 809 191 865 c 0,6,7
 535 1170 535 1170 535 1264 c 0,8,9
 535 1330 535 1330 483 1370.5 c 128,-1,10
 431 1411 431 1411 346 1411 c 0,11,12
 294 1411 294 1411 233 1393.5 c 128,-1,13
 172 1376 172 1376 100 1341 c 1,14,-1
 100 1464 l 1,15,16
 177 1492 177 1492 243.5 1506 c 128,-1,17
 310 1520 310 1520 367 1520 c 0,18,19
 512 1520 512 1520 599 1454 c 128,-1,20
 686 1388 686 1388 686 1280 c 0,21,22
 686 1141 686 1141 355 857 c 0,23,24
 299 809 299 809 268 782 c 1,0,-1
EndSplineSet
EndChar
StartChar: threesuperior
Encoding: 179 179 242
Width: 821
Flags: W
Fore
524 1120 m 1,0,1
 616 1102 616 1102 666.5 1047.5 c 128,-1,2
 717 993 717 993 717 911 c 0,3,4
 717 787 717 787 622 720 c 128,-1,5
 527 653 527 653 350 653 c 0,6,7
 293 653 293 653 230.5 663.5 c 128,-1,8
 168 674 168 674 98 694 c 1,9,-1
 98 815 l 1,10,11
 150 788 150 788 209.5 775 c 128,-1,12
 269 762 269 762 336 762 c 0,13,14
 445 762 445 762 505 801.5 c 128,-1,15
 565 841 565 841 565 911 c 0,16,17
 565 985 565 985 509.5 1023 c 128,-1,18
 454 1061 454 1061 346 1061 c 2,19,-1
 260 1061 l 1,20,-1
 260 1169 l 1,21,-1
 354 1169 l 2,22,23
 448 1169 448 1169 496.5 1200.5 c 128,-1,24
 545 1232 545 1232 545 1292 c 0,25,26
 545 1350 545 1350 495 1380.5 c 128,-1,27
 445 1411 445 1411 350 1411 c 0,28,29
 310 1411 310 1411 259 1402 c 128,-1,30
 208 1393 208 1393 127 1370 c 1,31,-1
 127 1485 l 1,32,33
 200 1502 200 1502 264 1511 c 128,-1,34
 328 1520 328 1520 383 1520 c 0,35,36
 527 1520 527 1520 611.5 1461 c 128,-1,37
 696 1402 696 1402 696 1303 c 0,38,39
 696 1234 696 1234 651 1186 c 128,-1,40
 606 1138 606 1138 524 1120 c 1,0,1
EndSplineSet
EndChar
StartChar: acute
Encoding: 180 180 141
Width: 1024
Flags: W
Fore
651 1638 m 1,0,-1
 850 1638 l 1,1,-1
 524 1262 l 1,2,-1
 371 1262 l 1,3,-1
 651 1638 l 1,0,-1
EndSplineSet
LCarets: 0 65535 '    ' 1 0 
Ligature: 0 1 'liga' space acutecomb
EndChar
StartChar: mu
Encoding: 181 181 151
Width: 1303
Flags: W
Fore
174 -426 m 1,0,-1
 174 1120 l 1,1,-1
 358 1120 l 1,2,-1
 358 424 l 2,3,4
 358 279 358 279 427 205 c 128,-1,5
 496 131 496 131 631 131 c 0,6,7
 779 131 779 131 853.5 215 c 128,-1,8
 928 299 928 299 928 467 c 2,9,-1
 928 1120 l 1,10,-1
 1112 1120 l 1,11,-1
 1112 258 l 2,12,13
 1112 198 1112 198 1129.5 169.5 c 128,-1,14
 1147 141 1147 141 1184 141 c 0,15,16
 1193 141 1193 141 1209 146.5 c 128,-1,17
 1225 152 1225 152 1253 164 c 1,18,-1
 1253 16 l 1,19,20
 1212 -7 1212 -7 1175.5 -18 c 128,-1,21
 1139 -29 1139 -29 1104 -29 c 0,22,23
 1035 -29 1035 -29 994 10 c 128,-1,24
 953 49 953 49 938 129 c 1,25,26
 888 50 888 50 815.5 10.5 c 128,-1,27
 743 -29 743 -29 645 -29 c 0,28,29
 543 -29 543 -29 471.5 10 c 128,-1,30
 400 49 400 49 358 127 c 1,31,-1
 358 -426 l 1,32,-1
 174 -426 l 1,0,-1
EndSplineSet
EndChar
StartChar: paragraph
Encoding: 182 182 136
Width: 1303
Flags: W
Fore
633 1493 m 2,0,-1
 1081 1493 l 1,1,-1
 1081 -197 l 1,2,-1
 940 -197 l 1,3,-1
 940 1370 l 1,4,-1
 750 1370 l 1,5,-1
 750 -197 l 1,6,-1
 608 -197 l 1,7,-1
 608 649 l 1,8,9
 393 666 393 666 275.5 776.5 c 128,-1,10
 158 887 158 887 158 1071 c 0,11,12
 158 1261 158 1261 288 1377 c 128,-1,13
 418 1493 418 1493 633 1493 c 2,0,-1
EndSplineSet
EndChar
StartChar: periodcentered
Encoding: 183 183 195
Width: 651
Flags: W
Fore
219 838 m 1,0,-1
 430 838 l 1,1,-1
 430 584 l 1,2,-1
 219 584 l 1,3,-1
 219 838 l 1,0,-1
EndSplineSet
EndChar
StartChar: cedilla
Encoding: 184 184 221
Width: 1024
Flags: W
Fore
596 0 m 1,0,1
 651 -62 651 -62 678 -114.5 c 128,-1,2
 705 -167 705 -167 705 -215 c 0,3,4
 705 -304 705 -304 645 -349.5 c 128,-1,5
 585 -395 585 -395 467 -395 c 0,6,7
 421 -395 421 -395 377.5 -389 c 128,-1,8
 334 -383 334 -383 291 -371 c 1,9,-1
 291 -240 l 1,10,11
 325 -257 325 -257 362 -264.5 c 128,-1,12
 399 -272 399 -272 446 -272 c 0,13,14
 505 -272 505 -272 535 -248 c 128,-1,15
 565 -224 565 -224 565 -178 c 0,16,17
 565 -148 565 -148 543.5 -104.5 c 128,-1,18
 522 -61 522 -61 477 0 c 1,19,-1
 596 0 l 1,0,1
EndSplineSet
LCarets: 0 65535 '    ' 1 0 
Ligature: 0 1 'liga' space uni0327
EndChar
StartChar: onesuperior
Encoding: 185 185 240
Width: 821
Flags: W
Fore
156 778 m 1,0,-1
 360 778 l 1,1,-1
 360 1389 l 1,2,-1
 137 1348 l 1,3,-1
 137 1464 l 1,4,-1
 367 1503 l 1,5,-1
 504 1503 l 1,6,-1
 504 778 l 1,7,-1
 709 778 l 1,8,-1
 709 668 l 1,9,-1
 156 668 l 1,10,-1
 156 778 l 1,0,-1
EndSplineSet
EndChar
StartChar: ordmasculine
Encoding: 186 186 158
Width: 965
Flags: W
Fore
139 592 m 1,0,-1
 827 592 l 1,1,-1
 827 469 l 1,2,-1
 139 469 l 1,3,-1
 139 592 l 1,0,-1
483 1520 m 0,4,5
 662 1520 662 1520 765 1409.5 c 128,-1,6
 868 1299 868 1299 868 1108 c 0,7,8
 868 917 868 917 765 807.5 c 128,-1,9
 662 698 662 698 483 698 c 0,10,11
 304 698 304 698 200 808 c 128,-1,12
 96 918 96 918 96 1108 c 0,13,14
 96 1299 96 1299 200 1409.5 c 128,-1,15
 304 1520 304 1520 483 1520 c 0,4,5
483 1405 m 0,16,17
 378 1405 378 1405 315 1324.5 c 128,-1,18
 252 1244 252 1244 252 1108 c 0,19,20
 252 975 252 975 315.5 895 c 128,-1,21
 379 815 379 815 483 815 c 0,22,23
 588 815 588 815 650.5 895 c 128,-1,24
 713 975 713 975 713 1108 c 0,25,26
 713 1245 713 1245 651 1325 c 128,-1,27
 589 1405 589 1405 483 1405 c 0,16,17
EndSplineSet
EndChar
StartChar: guillemotright
Encoding: 187 187 170
Width: 1253
Flags: W
Fore
193 1059 m 1,0,-1
 662 641 l 1,1,-1
 662 559 l 1,2,-1
 193 141 l 1,3,-1
 193 332 l 1,4,-1
 494 600 l 1,5,-1
 193 868 l 1,6,-1
 193 1059 l 1,0,-1
627 1059 m 1,7,-1
 1096 641 l 1,8,-1
 1096 559 l 1,9,-1
 627 141 l 1,10,-1
 627 332 l 1,11,-1
 928 600 l 1,12,-1
 627 868 l 1,13,-1
 627 1059 l 1,7,-1
EndSplineSet
KernsSLIF: 356 -188 0 0 270 -36 0 0 268 -36 0 0 262 -36 0 0 253 -36 0 0 221 -225 0 0 210 -36 0 0 212 -36 0 0 211 -36 0 0 193 -73 0 0 194 -73 0 0 376 -225 0 0 255 -36 0 0 213 -36 0 0 195 -73 0 0 192 -73 0 0 214 -36 0 0 199 -36 0 0 196 -73 0 0 121 -36 0 0 119 -36 0 0 118 -36 0 0 89 -225 0 0 88 -112 0 0 87 -112 0 0 86 -178 0 0 84 -188 0 0 79 -36 0 0 74 -36 0 0 68 -36 0 0 67 -36 0 0 66 -73 0 0 65 -73 0 0
EndChar
StartChar: questiondown
Encoding: 191 191 162
Width: 1087
Flags: W
Fore
500 1092 m 1,0,-1
 690 1092 l 1,1,-1
 690 936 l 2,2,3
 690 835 690 835 662.5 770 c 128,-1,4
 635 705 635 705 545 618 c 2,5,-1
 455 530 l 1,6,7
 397 477 397 477 371.5 430 c 128,-1,8
 346 383 346 383 346 334 c 0,9,10
 346 245 346 245 411.5 190 c 128,-1,11
 477 135 477 135 586 135 c 0,12,13
 664 135 664 135 754 170 c 128,-1,14
 844 205 844 205 940 272 c 1,15,-1
 940 84 l 1,16,17
 846 27 846 27 750 -1 c 128,-1,18
 654 -29 654 -29 551 -29 c 0,19,20
 367 -29 367 -29 255 68 c 128,-1,21
 143 165 143 165 143 324 c 0,22,23
 143 400 143 400 179.5 468.5 c 128,-1,24
 216 537 216 537 305 623 c 2,25,-1
 393 709 l 2,26,27
 441 756 441 756 460 782.5 c 128,-1,28
 479 809 479 809 487 834 c 0,29,30
 494 855 494 855 497 885 c 128,-1,31
 500 915 500 915 500 969 c 2,32,-1
 500 1092 l 1,0,-1
696 1239 m 1,33,-1
 494 1239 l 1,34,-1
 494 1493 l 1,35,-1
 696 1493 l 1,36,-1
 696 1239 l 1,33,-1
EndSplineSet
EndChar
StartChar: Aring
Encoding: 197 197 99
Width: 1401
Flags: W
Fore
852 1626 m 0,0,1
 852 1689 852 1689 807.5 1733.5 c 128,-1,2
 763 1778 763 1778 700 1778 c 0,3,4
 636 1778 636 1778 592.5 1734.5 c 128,-1,5
 549 1691 549 1691 549 1626 c 0,6,7
 549 1563 549 1563 593 1519 c 128,-1,8
 637 1475 637 1475 700 1475 c 0,9,10
 763 1475 763 1475 807.5 1519 c 128,-1,11
 852 1563 852 1563 852 1626 c 0,0,1
700 1294 m 1,12,-1
 428 551 l 1,13,-1
 973 551 l 1,14,-1
 700 1294 l 1,12,-1
549 1397 m 1,15,16
 488 1438 488 1438 457 1495.5 c 128,-1,17
 426 1553 426 1553 426 1626 c 0,18,19
 426 1741 426 1741 505.5 1821 c 128,-1,20
 585 1901 585 1901 700 1901 c 0,21,22
 814 1901 814 1901 894.5 1820.5 c 128,-1,23
 975 1740 975 1740 975 1626 c 0,24,25
 975 1556 975 1556 943.5 1497 c 128,-1,26
 912 1438 912 1438 852 1397 c 1,27,-1
 1384 0 l 1,28,-1
 1174 0 l 1,29,-1
 1038 383 l 1,30,-1
 365 383 l 1,31,-1
 229 0 l 1,32,-1
 16 0 l 1,33,-1
 549 1397 l 1,15,16
EndSplineSet
Ligature: 0 0 'liga' A uni030A
EndChar
StartChar: AE
Encoding: 198 198 144
Width: 1995
Flags: W
Fore
1845 1493 m 1,0,-1
 1845 1323 l 1,1,-1
 1104 1323 l 1,2,-1
 1104 881 l 1,3,-1
 1815 881 l 1,4,-1
 1815 711 l 1,5,-1
 1104 711 l 1,6,-1
 1104 170 l 1,7,-1
 1864 170 l 1,8,-1
 1864 0 l 1,9,-1
 901 0 l 1,10,-1
 901 383 l 1,11,-1
 373 383 l 1,12,-1
 213 0 l 1,13,-1
 8 0 l 1,14,-1
 633 1493 l 1,15,-1
 1845 1493 l 1,0,-1
772 1335 m 1,16,-1
 442 551 l 1,17,-1
 901 551 l 1,18,-1
 901 1335 l 1,19,-1
 772 1335 l 1,16,-1
EndSplineSet
KernsSLIF: 8222 -112 0 0 8221 -92 0 0 8220 -83 0 0
EndChar
StartChar: Eth
Encoding: 208 208 232
Width: 1587
Flags: W
Fore
211 1493 m 1,0,-1
 627 1493 l 2,1,2
 1060 1493 1060 1493 1263 1312.5 c 128,-1,3
 1466 1132 1466 1132 1466 748 c 0,4,5
 1466 362 1466 362 1262.5 181 c 128,-1,6
 1059 0 1059 0 627 0 c 2,7,-1
 211 0 l 1,8,-1
 211 700 l 1,9,-1
 10 700 l 1,10,-1
 10 844 l 1,11,-1
 211 844 l 1,12,-1
 211 1493 l 1,0,-1
414 1327 m 1,13,-1
 414 844 l 1,14,-1
 750 844 l 1,15,-1
 750 700 l 1,16,-1
 414 700 l 1,17,-1
 414 166 l 1,18,-1
 657 166 l 2,19,20
 966 166 966 166 1109.5 306 c 128,-1,21
 1253 446 1253 446 1253 748 c 0,22,23
 1253 1048 1253 1048 1109.5 1187.5 c 128,-1,24
 966 1327 966 1327 657 1327 c 2,25,-1
 414 1327 l 1,13,-1
EndSplineSet
KernsSLIF: 7922 -112 0 0 562 -112 0 0 374 -112 0 0 260 -36 0 0 258 -36 0 0 256 -36 0 0 221 -112 0 0 193 -36 0 0 194 -36 0 0 8222 -188 0 0 376 -112 0 0 8221 -55 0 0 8220 -45 0 0 195 -36 0 0 192 -36 0 0 187 -36 0 0 171 -36 0 0 196 -36 0 0 89 -112 0 0 86 -36 0 0 65 -36 0 0
EndChar
StartChar: multiply
Encoding: 215 215 239
Width: 1716
Flags: W
Fore
1436 1100 m 1,0,-1
 979 641 l 1,1,-1
 1436 184 l 1,2,-1
 1317 63 l 1,3,-1
 858 522 l 1,4,-1
 399 63 l 1,5,-1
 281 184 l 1,6,-1
 737 641 l 1,7,-1
 281 1100 l 1,8,-1
 399 1221 l 1,9,-1
 858 762 l 1,10,-1
 1317 1221 l 1,11,-1
 1436 1100 l 1,0,-1
EndSplineSet
EndChar
StartChar: Oslash
Encoding: 216 216 145
Width: 1612
Flags: W
Fore
1206 1112 m 1,0,-1
 489 266 l 1,1,2
 551 202 551 202 631.5 168.5 c 128,-1,3
 712 135 712 135 807 135 c 0,4,5
 1027 135 1027 135 1155.5 299 c 128,-1,6
 1284 463 1284 463 1284 745 c 0,7,8
 1284 857 1284 857 1264.5 949 c 128,-1,9
 1245 1041 1245 1041 1206 1112 c 1,0,-1
1124 1225 m 1,10,11
 1063 1289 1063 1289 982.5 1322.5 c 128,-1,12
 902 1356 902 1356 807 1356 c 0,13,14
 587 1356 587 1356 457.5 1192 c 128,-1,15
 328 1028 328 1028 328 745 c 0,16,17
 328 633 328 633 347.5 539 c 128,-1,18
 367 445 367 445 406 377 c 1,19,-1
 1124 1225 l 1,10,11
272 219 m 1,20,21
 194 321 194 321 154.5 453 c 128,-1,22
 115 585 115 585 115 745 c 0,23,24
 115 1099 115 1099 303.5 1309.5 c 128,-1,25
 492 1520 492 1520 807 1520 c 0,26,27
 937 1520 937 1520 1047.5 1481.5 c 128,-1,28
 1158 1443 1158 1443 1245 1368 c 1,29,-1
 1407 1559 l 1,30,-1
 1509 1470 l 1,31,-1
 1339 1272 l 1,32,33
 1417 1169 1417 1169 1457 1036 c 128,-1,34
 1497 903 1497 903 1497 745 c 0,35,36
 1497 392 1497 392 1309 181.5 c 128,-1,37
 1121 -29 1121 -29 807 -29 c 0,38,39
 679 -29 679 -29 568.5 8.5 c 128,-1,40
 458 46 458 46 367 121 c 1,41,-1
 205 -70 l 1,42,-1
 102 18 l 1,43,-1
 272 219 l 1,20,21
EndSplineSet
EndChar
StartChar: Thorn
Encoding: 222 222 236
Width: 1239
Flags: W
Fore
201 1493 m 1,0,-1
 403 1493 l 1,1,-1
 403 1229 l 1,2,-1
 657 1229 l 2,3,4
 908 1229 908 1229 1036.5 1116.5 c 128,-1,5
 1165 1004 1165 1004 1165 784 c 0,6,7
 1165 564 1165 564 1036.5 451 c 128,-1,8
 908 338 908 338 657 338 c 2,9,-1
 403 338 l 1,10,-1
 403 0 l 1,11,-1
 201 0 l 1,12,-1
 201 1493 l 1,0,-1
403 1063 m 1,13,-1
 403 504 l 1,14,-1
 657 504 l 2,15,16
 798 504 798 504 875 577 c 128,-1,17
 952 650 952 650 952 784 c 0,18,19
 952 918 952 918 875.5 990.5 c 128,-1,20
 799 1063 799 1063 657 1063 c 2,21,-1
 403 1063 l 1,13,-1
EndSplineSet
KernsSLIF: 8222 -188 0 0 8220 -36 0 0 58 -73 0 0 46 -149 0 0
EndChar
StartChar: germandbls
Encoding: 223 223 137
Width: 1290
Flags: W
Fore
186 1137 m 2,0,1
 186 1337 186 1337 305.5 1446.5 c 128,-1,2
 425 1556 425 1556 643 1556 c 0,3,4
 851 1556 851 1556 960.5 1440 c 128,-1,5
 1070 1324 1070 1324 1073 1100 c 1,6,7
 922 1092 922 1092 838 1034.5 c 128,-1,8
 754 977 754 977 754 881 c 0,9,10
 754 834 754 834 783 793.5 c 128,-1,11
 812 753 812 753 877 711 c 2,12,-1
 934 674 l 2,13,14
 1100 568 1100 568 1148 497 c 128,-1,15
 1196 426 1196 426 1196 326 c 0,16,17
 1196 154 1196 154 1083.5 62.5 c 128,-1,18
 971 -29 971 -29 760 -29 c 0,19,20
 696 -29 696 -29 628 -16.5 c 128,-1,21
 560 -4 560 -4 487 20 c 1,22,-1
 487 184 l 1,23,24
 567 154 567 154 637 139.5 c 128,-1,25
 707 125 707 125 772 125 c 0,26,27
 888 125 888 125 948 172.5 c 128,-1,28
 1008 220 1008 220 1008 311 c 0,29,30
 1008 374 1008 374 978.5 416 c 128,-1,31
 949 458 949 458 848 520 c 2,32,-1
 756 575 l 2,33,34
 660 634 660 634 616.5 701.5 c 128,-1,35
 573 769 573 769 573 860 c 0,36,37
 573 987 573 987 656.5 1073 c 128,-1,38
 740 1159 740 1159 891 1188 c 1,39,40
 883 1291 883 1291 817.5 1347 c 128,-1,41
 752 1403 752 1403 639 1403 c 0,42,43
 509 1403 509 1403 441 1333.5 c 128,-1,44
 373 1264 373 1264 373 1133 c 2,45,-1
 373 0 l 1,46,-1
 186 0 l 1,47,-1
 186 1137 l 2,0,1
EndSplineSet
KernsSLIF: 8222 -83 0 0 8221 -112 0 0 8220 -112 0 0 45 38 0 0
EndChar
StartChar: ae
Encoding: 230 230 160
Width: 2011
Flags: W
Fore
1718 660 m 1,0,1
 1717 811 1717 811 1634.5 901 c 128,-1,2
 1552 991 1552 991 1415 991 c 0,3,4
 1262 991 1262 991 1169.5 904 c 128,-1,5
 1077 817 1077 817 1063 659 c 1,6,-1
 1718 660 l 1,0,1
995 963 m 1,7,8
 1069 1053 1069 1053 1175 1100 c 128,-1,9
 1281 1147 1281 1147 1413 1147 c 0,10,11
 1639 1147 1639 1147 1771 1001.5 c 128,-1,12
 1903 856 1903 856 1903 606 c 2,13,-1
 1903 516 l 1,14,-1
 1057 516 l 1,15,16
 1069 325 1069 325 1171 225 c 128,-1,17
 1273 125 1273 125 1456 125 c 0,18,19
 1560 125 1560 125 1660 151.5 c 128,-1,20
 1760 178 1760 178 1860 231 c 1,21,-1
 1860 57 l 1,22,23
 1760 15 1760 15 1656 -7 c 128,-1,24
 1552 -29 1552 -29 1446 -29 c 0,25,26
 1279 -29 1279 -29 1155 31.5 c 128,-1,27
 1031 92 1031 92 954 211 c 1,28,29
 881 91 881 91 773 31 c 128,-1,30
 665 -29 665 -29 522 -29 c 0,31,32
 333 -29 333 -29 228 64.5 c 128,-1,33
 123 158 123 158 123 326 c 0,34,35
 123 515 123 515 249.5 611 c 128,-1,36
 376 707 376 707 627 707 c 2,37,-1
 885 707 l 1,38,-1
 885 725 l 2,39,40
 885 852 885 852 801.5 921.5 c 128,-1,41
 718 991 718 991 567 991 c 0,42,43
 471 991 471 991 380 968 c 128,-1,44
 289 945 289 945 205 899 c 1,45,-1
 205 1069 l 1,46,47
 306 1108 306 1108 401 1127.5 c 128,-1,48
 496 1147 496 1147 586 1147 c 0,49,50
 728 1147 728 1147 834.5 1099 c 128,-1,51
 941 1051 941 1051 995 963 c 1,7,8
702 563 m 2,52,53
 479 563 479 563 393 512 c 128,-1,54
 307 461 307 461 307 338 c 0,55,56
 307 240 307 240 371.5 182.5 c 128,-1,57
 436 125 436 125 547 125 c 0,58,59
 700 125 700 125 792.5 233.5 c 128,-1,60
 885 342 885 342 885 522 c 2,61,-1
 885 563 l 1,62,-1
 702 563 l 2,52,53
EndSplineSet
EndChar
StartChar: eth
Encoding: 240 240 233
Width: 1253
Flags: W
Fore
838 915 m 1,0,1
 788 932 788 932 744 940 c 128,-1,2
 700 948 700 948 659 948 c 0,3,4
 492 948 492 948 399.5 840 c 128,-1,5
 307 732 307 732 307 537 c 0,6,7
 307 349 307 349 394 238 c 128,-1,8
 481 127 481 127 627 127 c 0,9,10
 772 127 772 127 859 238 c 128,-1,11
 946 349 946 349 946 537 c 0,12,13
 946 659 946 659 919 753 c 128,-1,14
 892 847 892 847 838 915 c 1,0,1
901 1141 m 2,15,16
 1027 998 1027 998 1084 854 c 128,-1,17
 1141 710 1141 710 1141 537 c 0,18,19
 1141 282 1141 282 999 126.5 c 128,-1,20
 857 -29 857 -29 627 -29 c 0,21,22
 396 -29 396 -29 254.5 126.5 c 128,-1,23
 113 282 113 282 113 537 c 0,24,25
 113 787 113 787 251 942.5 c 128,-1,26
 389 1098 389 1098 610 1098 c 0,27,28
 628 1098 628 1098 654 1095.5 c 128,-1,29
 680 1093 680 1093 722 1088 c 1,30,-1
 563 1268 l 1,31,-1
 244 1161 l 1,32,-1
 211 1260 l 1,33,-1
 492 1352 l 1,34,-1
 311 1556 l 1,35,-1
 539 1556 l 1,36,-1
 666 1411 l 1,37,-1
 999 1522 l 1,38,-1
 1032 1425 l 1,39,-1
 737 1327 l 1,40,-1
 901 1141 l 2,15,16
EndSplineSet
KernsSLIF: 8222 -73 0 0 8221 -112 0 0 8220 -92 0 0
EndChar
StartChar: divide
Encoding: 247 247 184
Width: 1716
Flags: W
Fore
735 1135 m 1,0,-1
 981 1135 l 1,1,-1
 981 889 l 1,2,-1
 735 889 l 1,3,-1
 735 1135 l 1,0,-1
735 395 m 1,4,-1
 981 395 l 1,5,-1
 981 150 l 1,6,-1
 735 150 l 1,7,-1
 735 395 l 1,4,-1
217 727 m 1,8,-1
 1499 727 l 1,9,-1
 1499 557 l 1,10,-1
 217 557 l 1,11,-1
 217 727 l 1,8,-1
EndSplineSet
EndChar
StartChar: oslash
Encoding: 248 248 161
Width: 1253
Flags: W
Fore
905 801 m 1,0,-1
 418 209 l 1,1,2
 459 167 459 167 510.5 147 c 128,-1,3
 562 127 562 127 627 127 c 0,4,5
 774 127 774 127 860 243 c 128,-1,6
 946 359 946 359 946 559 c 0,7,8
 946 638 946 638 936 696.5 c 128,-1,9
 926 755 926 755 905 801 c 1,0,-1
834 909 m 1,10,11
 792 950 792 950 740.5 970.5 c 128,-1,12
 689 991 689 991 627 991 c 0,13,14
 476 991 476 991 391.5 873.5 c 128,-1,15
 307 756 307 756 307 545 c 0,16,17
 307 473 307 473 316.5 418 c 128,-1,18
 326 363 326 363 346 317 c 1,19,-1
 834 909 l 1,10,11
221 166 m 1,20,21
 167 243 167 243 140 341.5 c 128,-1,22
 113 440 113 440 113 559 c 0,23,24
 113 835 113 835 249.5 991 c 128,-1,25
 386 1147 386 1147 627 1147 c 0,26,27
 720 1147 720 1147 799.5 1121.5 c 128,-1,28
 879 1096 879 1096 946 1044 c 1,29,-1
 1085 1212 l 1,30,-1
 1180 1133 l 1,31,-1
 1034 954 l 1,32,33
 1087 877 1087 877 1114 778 c 128,-1,34
 1141 679 1141 679 1141 559 c 0,35,36
 1141 284 1141 284 1004 127.5 c 128,-1,37
 867 -29 867 -29 627 -29 c 0,38,39
 531 -29 531 -29 450.5 -3 c 128,-1,40
 370 23 370 23 307 74 c 1,41,-1
 168 -94 l 1,42,-1
 72 -16 l 1,43,-1
 221 166 l 1,20,21
EndSplineSet
EndChar
StartChar: thorn
Encoding: 254 254 237
Width: 1300
Flags: W
Fore
371 168 m 1,0,-1
 371 -426 l 1,1,-1
 186 -426 l 1,2,-1
 186 1556 l 1,3,-1
 371 1556 l 1,4,-1
 371 950 l 1,5,6
 429 1050 429 1050 517.5 1098.5 c 128,-1,7
 606 1147 606 1147 729 1147 c 0,8,9
 933 1147 933 1147 1060.5 985 c 128,-1,10
 1188 823 1188 823 1188 559 c 0,11,12
 1188 295 1188 295 1060.5 133 c 128,-1,13
 933 -29 933 -29 729 -29 c 0,14,15
 606 -29 606 -29 517.5 19.5 c 128,-1,16
 429 68 429 68 371 168 c 1,0,-1
997 559 m 0,17,18
 997 762 997 762 913.5 877.5 c 128,-1,19
 830 993 830 993 684 993 c 0,20,21
 538 993 538 993 454.5 877.5 c 128,-1,22
 371 762 371 762 371 559 c 0,23,24
 371 356 371 356 454.5 240.5 c 128,-1,25
 538 125 538 125 684 125 c 0,26,27
 830 125 830 125 913.5 240.5 c 128,-1,28
 997 356 997 356 997 559 c 0,17,18
EndSplineSet
EndChar
StartChar: Dcroat
Encoding: 272 272 257
Width: 1587
Flags: HW
Fore
211 1493 m 1,0,-1
 627 1493 l 2,1,2
 1060 1493 1060 1493 1263 1312.5 c 128,-1,3
 1466 1132 1466 1132 1466 748 c 0,4,5
 1466 362 1466 362 1262.5 181 c 128,-1,6
 1059 0 1059 0 627 0 c 2,7,-1
 211 0 l 1,8,-1
 211 700 l 1,9,-1
 10 700 l 1,10,-1
 10 844 l 1,11,-1
 211 844 l 1,12,-1
 211 1493 l 1,0,-1
414 1327 m 1,13,-1
 414 844 l 1,14,-1
 750 844 l 1,15,-1
 750 700 l 1,16,-1
 414 700 l 1,17,-1
 414 166 l 1,18,-1
 657 166 l 2,19,20
 966 166 966 166 1109.5 306 c 128,-1,21
 1253 446 1253 446 1253 748 c 0,22,23
 1253 1048 1253 1048 1109.5 1187.5 c 128,-1,24
 966 1327 966 1327 657 1327 c 2,25,-1
 414 1327 l 1,13,-1
EndSplineSet
KernsSLIF: 221 -112 0 0 193 -36 0 0 194 -36 0 0 8222 -188 0 0 376 -112 0 0 8221 -55 0 0 8220 -45 0 0 195 -36 0 0 192 -36 0 0 187 -36 0 0 171 -36 0 0 196 -36 0 0 89 -112 0 0 86 -36 0 0 65 -36 0 0
EndChar
StartChar: dcroat
Encoding: 273 273 255
Width: 1300
Flags: W
Fore
930 950 m 1,0,-1
 930 1284 l 1,1,-1
 604 1284 l 1,2,-1
 604 1409 l 1,3,-1
 930 1409 l 1,4,-1
 930 1556 l 1,5,-1
 1114 1556 l 1,6,-1
 1114 1409 l 1,7,-1
 1268 1409 l 1,8,-1
 1268 1284 l 1,9,-1
 1114 1284 l 1,10,-1
 1114 0 l 1,11,-1
 930 0 l 1,12,-1
 930 168 l 1,13,14
 872 68 872 68 783.5 19.5 c 128,-1,15
 695 -29 695 -29 571 -29 c 0,16,17
 368 -29 368 -29 240.5 133 c 128,-1,18
 113 295 113 295 113 559 c 0,19,20
 113 823 113 823 240.5 985 c 128,-1,21
 368 1147 368 1147 571 1147 c 0,22,23
 695 1147 695 1147 783.5 1098.5 c 128,-1,24
 872 1050 872 1050 930 950 c 1,0,-1
303 559 m 0,25,26
 303 356 303 356 386.5 240.5 c 128,-1,27
 470 125 470 125 616 125 c 0,28,29
 762 125 762 125 846 240.5 c 128,-1,30
 930 356 930 356 930 559 c 0,31,32
 930 762 930 762 846 877.5 c 128,-1,33
 762 993 762 993 616 993 c 0,34,35
 470 993 470 993 386.5 877.5 c 128,-1,36
 303 762 303 762 303 559 c 0,25,26
EndSplineSet
EndChar
StartChar: dotlessi
Encoding: 305 305 214
Width: 569
Flags: W
Fore
193 1120 m 1,0,-1
 377 1120 l 1,1,-1
 377 0 l 1,2,-1
 193 0 l 1,3,-1
 193 1120 l 1,0,-1
EndSplineSet
EndChar
StartChar: IJ
Encoding: 306 306 215
Width: 1119
Flags: HW
Fore
715.5 1501 m 1,0,-1
 917.5 1501 l 1,1,-1
 917.5 112 l 2,2,3
 917.5 -158 917.5 -158 815 -280 c 128,-1,4
 712.5 -402 712.5 -402 485.5 -402 c 2,5,-1
 408.5 -402 l 1,6,-1
 408.5 -232 l 1,7,-1
 471.5 -232 l 2,8,9
 605.5 -232 605.5 -232 660.5 -157 c 128,-1,10
 715.5 -82 715.5 -82 715.5 112 c 2,11,-1
 715.5 1501 l 1,0,-1
201 1493 m 1,0,-1
 403 1493 l 1,1,-1
 403 0 l 1,2,-1
 201 0 l 1,3,-1
 201 1493 l 1,0,-1
EndSplineSet
Ligature: 0 0 'liga' I J
EndChar
StartChar: ij
Encoding: 307 307 216
Width: 999
Flags: HW
Fore
626 1112 m 1,0,-1
 810 1112 l 1,1,-1
 810 -28 l 2,2,3
 810 -242 810 -242 728.5 -338 c 128,-1,4
 647 -434 647 -434 466 -434 c 2,5,-1
 396 -434 l 1,6,-1
 396 -278 l 1,7,-1
 445 -278 l 2,8,9
 550 -278 550 -278 588 -229.5 c 128,-1,10
 626 -181 626 -181 626 -28 c 2,11,-1
 626 1112 l 1,0,-1
626 1548 m 1,12,-1
 810 1548 l 1,13,-1
 810 1315 l 1,14,-1
 626 1315 l 1,15,-1
 626 1548 l 1,12,-1
193 1120 m 1,0,-1
 377 1120 l 1,1,-1
 377 0 l 1,2,-1
 193 0 l 1,3,-1
 193 1120 l 1,0,-1
193 1556 m 1,4,-1
 377 1556 l 1,5,-1
 377 1323 l 1,6,-1
 193 1323 l 1,7,-1
 193 1556 l 1,4,-1
EndSplineSet
Ligature: 0 0 'liga' i j
EndChar
StartChar: Lslash
Encoding: 321 321 225
Width: 1151
Flags: W
Fore
211 1493 m 1,0,-1
 414 1493 l 1,1,-1
 414 877 l 1,2,-1
 727 1096 l 1,3,-1
 807 985 l 1,4,-1
 414 711 l 1,5,-1
 414 170 l 1,6,-1
 1141 170 l 1,7,-1
 1141 0 l 1,8,-1
 211 0 l 1,9,-1
 211 571 l 1,10,-1
 63 465 l 1,11,-1
 -14 575 l 1,12,-1
 211 733 l 1,13,-1
 211 1493 l 1,0,-1
EndSplineSet
EndChar
StartChar: lslash
Encoding: 322 322 226
Width: 582
Flags: W
Fore
199 1556 m 1,0,-1
 383 1556 l 1,1,-1
 383 954 l 1,2,-1
 508 1044 l 1,3,-1
 584 938 l 1,4,-1
 383 797 l 1,5,-1
 383 0 l 1,6,-1
 199 0 l 1,7,-1
 199 666 l 1,8,-1
 76 578 l 1,9,-1
 2 684 l 1,10,-1
 199 825 l 1,11,-1
 199 1556 l 1,0,-1
EndSplineSet
EndChar
StartChar: OE
Encoding: 338 338 176
Width: 2191
Flags: W
Fore
2042 1493 m 1,0,-1
 2042 1323 l 1,1,-1
 1300 1323 l 1,2,-1
 1300 881 l 1,3,-1
 2011 881 l 1,4,-1
 2011 711 l 1,5,-1
 1300 711 l 1,6,-1
 1300 170 l 1,7,-1
 2060 170 l 1,8,-1
 2060 0 l 1,9,-1
 995 0 l 2,10,11
 562 0 562 0 338.5 190 c 128,-1,12
 115 380 115 380 115 748 c 0,13,14
 115 1113 115 1113 338.5 1303 c 128,-1,15
 562 1493 562 1493 995 1493 c 2,16,-1
 2042 1493 l 1,0,-1
1098 1323 m 1,17,-1
 969 1323 l 2,18,19
 648 1323 648 1323 488 1179.5 c 128,-1,20
 328 1036 328 1036 328 748 c 0,21,22
 328 459 328 459 488 314.5 c 128,-1,23
 648 170 648 170 969 170 c 2,24,-1
 1098 170 l 1,25,-1
 1098 1323 l 1,17,-1
EndSplineSet
EndChar
StartChar: oe
Encoding: 339 339 177
Width: 2095
Flags: W
Fore
1802 660 m 1,0,1
 1800 812 1800 812 1718 901.5 c 128,-1,2
 1636 991 1636 991 1499 991 c 0,3,4
 1346 991 1346 991 1253.5 904 c 128,-1,5
 1161 817 1161 817 1147 659 c 1,6,-1
 1802 660 l 1,0,1
1987 606 m 2,7,-1
 1987 516 l 1,8,-1
 1141 516 l 1,9,10
 1153 326 1153 326 1255 226.5 c 128,-1,11
 1357 127 1357 127 1540 127 c 0,12,13
 1646 127 1646 127 1746 153 c 128,-1,14
 1846 179 1846 179 1944 231 c 1,15,-1
 1944 57 l 1,16,17
 1844 15 1844 15 1740 -7 c 128,-1,18
 1636 -29 1636 -29 1530 -29 c 0,19,20
 1370 -29 1370 -29 1249 26 c 128,-1,21
 1128 81 1128 81 1047 190 c 1,22,23
 976 80 976 80 871.5 25.5 c 128,-1,24
 767 -29 767 -29 627 -29 c 0,25,26
 386 -29 386 -29 249.5 127.5 c 128,-1,27
 113 284 113 284 113 559 c 0,28,29
 113 835 113 835 249.5 991 c 128,-1,30
 386 1147 386 1147 627 1147 c 0,31,32
 767 1147 767 1147 872.5 1091.5 c 128,-1,33
 978 1036 978 1036 1044 928 c 1,34,35
 1122 1035 1122 1035 1238 1091 c 128,-1,36
 1354 1147 1354 1147 1497 1147 c 0,37,38
 1723 1147 1723 1147 1855 1001.5 c 128,-1,39
 1987 856 1987 856 1987 606 c 2,7,-1
627 991 m 0,40,41
 479 991 479 991 393 875.5 c 128,-1,42
 307 760 307 760 307 559 c 0,43,44
 307 358 307 358 392.5 242.5 c 128,-1,45
 478 127 478 127 627 127 c 0,46,47
 774 127 774 127 860 243 c 128,-1,48
 946 359 946 359 946 559 c 0,49,50
 946 758 946 758 860 874.5 c 128,-1,51
 774 991 774 991 627 991 c 0,40,41
EndSplineSet
EndChar
StartChar: longs
Encoding: 383 383 231
Width: 721
Flags: HW
TeX: 0 0 0 0
Fore
408 0 m 1,10,-1
 223 0 l 1,11,-1
 223 977 l 1,12,-1
 47 977 l 1,13,-1
 47 1120 l 1,14,-1
 223 1120 l 1,15,-1
 223 1198 l 2,16,17
 223 1385 223 1385 310 1470.5 c 128,-1,18
 397 1556 397 1556 586 1556 c 2,19,-1
 760 1556 l 1,0,-1
 760 1403 l 1,1,-1
 584 1403 l 2,2,3
 485 1403 485 1403 446.5 1363 c 128,-1,4
 408 1321.93 408 1321.93 408 1219 c 2,5,-1
 408 0 l 1,10,-1
EndSplineSet
EndChar
StartChar: florin
Encoding: 402 402 166
Width: 1303
Flags: W
Fore
1282 1520 m 1,0,-1
 1282 1356 l 1,1,2
 1244 1385 1244 1385 1204 1399 c 128,-1,3
 1164 1413 1164 1413 1120 1413 c 0,4,5
 1024 1413 1024 1413 967 1352 c 128,-1,6
 910 1291 910 1291 885 1159 c 1,7,-1
 825 848 l 1,8,-1
 1112 848 l 1,9,-1
 1112 705 l 1,10,-1
 795 705 l 1,11,-1
 668 70 l 1,12,13
 610 -215 610 -215 516 -320.5 c 128,-1,14
 422 -426 422 -426 236 -426 c 0,15,16
 178 -426 178 -426 128 -415.5 c 128,-1,17
 78 -405 78 -405 31 -383 c 1,18,-1
 31 -217 l 1,19,20
 83 -250 83 -250 131.5 -266.5 c 128,-1,21
 180 -283 180 -283 227 -283 c 0,22,23
 324 -283 324 -283 378.5 -214.5 c 128,-1,24
 433 -146 433 -146 467 20 c 1,25,-1
 604 705 l 1,26,-1
 356 705 l 1,27,-1
 356 848 l 1,28,-1
 635 848 l 1,29,-1
 698 1178 l 1,30,31
 734 1361 734 1361 833 1458.5 c 128,-1,32
 932 1556 932 1556 1083 1556 c 0,33,34
 1136 1556 1136 1556 1186 1547 c 128,-1,35
 1236 1538 1236 1538 1282 1520 c 1,0,-1
EndSplineSet
EndChar
StartChar: uni0237
Encoding: 567 567 218
Width: 569
Flags: HW
Fore
193 1120 m 1,0,-1
 377 1120 l 1,1,-1
 377 -20 l 2,2,3
 377 -234 377 -234 295.5 -330 c 128,-1,4
 214 -426 214 -426 33 -426 c 2,5,-1
 -37 -426 l 1,6,-1
 -37 -270 l 1,7,-1
 12 -270 l 2,8,9
 117 -270 117 -270 155 -221.5 c 128,-1,10
 193 -173 193 -173 193 -20 c 2,11,-1
 193 1120 l 1,0,-1
EndSplineSet
EndChar
StartChar: uni02BB
Encoding: 699 699 173
Width: 651
Flags: W
Fore
385 1001 m 1,0,-1
 174 1001 l 1,1,-1
 174 1174 l 1,2,-1
 338 1493 l 1,3,-1
 467 1493 l 1,4,-1
 385 1174 l 1,5,-1
 385 1001 l 1,0,-1
EndSplineSet
EndChar
StartChar: circumflex
Encoding: 710 710 215
Width: 1024
Flags: W
Fore
438 1638 m 1,0,-1
 586 1638 l 1,1,-1
 831 1262 l 1,2,-1
 692 1262 l 1,3,-1
 512 1507 l 1,4,-1
 332 1262 l 1,5,-1
 193 1262 l 1,6,-1
 438 1638 l 1,0,-1
EndSplineSet
EndChar
StartChar: caron
Encoding: 711 711 224
Width: 1024
Flags: W
Fore
438 1262 m 1,0,-1
 193 1638 l 1,1,-1
 332 1638 l 1,2,-1
 512 1393 l 1,3,-1
 692 1638 l 1,4,-1
 831 1638 l 1,5,-1
 586 1262 l 1,6,-1
 438 1262 l 1,0,-1
EndSplineSet
EndChar
StartChar: breve
Encoding: 728 728 218
Width: 1024
Flags: W
Fore
199 1608 m 1,0,-1
 317 1608 l 1,1,2
 328 1533 328 1533 376.5 1495.5 c 128,-1,3
 425 1458 425 1458 512 1458 c 0,4,5
 598 1458 598 1458 646 1495 c 128,-1,6
 694 1532 694 1532 707 1608 c 1,7,-1
 825 1608 l 1,8,9
 815 1465 815 1465 736 1393 c 128,-1,10
 657 1321 657 1321 512 1321 c 0,11,12
 367 1321 367 1321 288 1393 c 128,-1,13
 209 1465 209 1465 199 1608 c 1,0,-1
EndSplineSet
Ligature: 0 1 'liga' space uni0306
EndChar
StartChar: dotaccent
Encoding: 729 729 219
Width: 1024
Flags: W
Fore
410 1552 m 1,0,-1
 614 1552 l 1,1,-1
 614 1348 l 1,2,-1
 410 1348 l 1,3,-1
 410 1552 l 1,0,-1
EndSplineSet
LCarets: 0 65535 '    ' 1 0 
Ligature: 0 1 'liga' space uni0307
EndChar
StartChar: ring
Encoding: 730 730 220
Width: 1024
Flags: W
Fore
664 1524 m 0,0,1
 664 1587 664 1587 620 1631 c 128,-1,2
 576 1675 576 1675 512 1675 c 0,3,4
 447 1675 447 1675 403.5 1631.5 c 128,-1,5
 360 1588 360 1588 360 1524 c 0,6,7
 360 1459 360 1459 403.5 1415.5 c 128,-1,8
 447 1372 447 1372 512 1372 c 0,9,10
 576 1372 576 1372 620 1416 c 128,-1,11
 664 1460 664 1460 664 1524 c 0,0,1
786 1524 m 0,12,13
 786 1409 786 1409 706.5 1329 c 128,-1,14
 627 1249 627 1249 512 1249 c 0,15,16
 397 1249 397 1249 317.5 1329 c 128,-1,17
 238 1409 238 1409 238 1524 c 0,18,19
 238 1639 238 1639 317.5 1718.5 c 128,-1,20
 397 1798 397 1798 512 1798 c 0,21,22
 627 1798 627 1798 706.5 1718.5 c 128,-1,23
 786 1639 786 1639 786 1524 c 0,12,13
EndSplineSet
LCarets: 0 65535 '    ' 1 0 
Ligature: 0 1 'liga' space uni030A
EndChar
StartChar: ogonek
Encoding: 731 731 223
Width: 1024
Flags: W
Fore
440 0 m 1,0,-1
 559 0 l 1,1,2
 514 -61 514 -61 492.5 -105 c 128,-1,3
 471 -149 471 -149 471 -180 c 0,4,5
 471 -226 471 -226 498.5 -249 c 128,-1,6
 526 -272 526 -272 580 -272 c 0,7,8
 612 -272 612 -272 643 -264.5 c 128,-1,9
 674 -257 674 -257 705 -242 c 1,10,-1
 705 -375 l 1,11,12
 667 -385 667 -385 633 -390 c 128,-1,13
 599 -395 599 -395 569 -395 c 0,14,15
 447 -395 447 -395 389.5 -351.5 c 128,-1,16
 332 -308 332 -308 332 -215 c 0,17,18
 332 -167 332 -167 358.5 -114.5 c 128,-1,19
 385 -62 385 -62 440 0 c 1,0,-1
EndSplineSet
LCarets: 0 65535 '    ' 1 0 
Ligature: 0 1 'liga' space uni0328
EndChar
StartChar: tilde
Encoding: 732 732 216
Width: 1024
Flags: W
Fore
508 1370 m 1,0,-1
 451 1425 l 2,1,2
 429 1445 429 1445 412.5 1454.5 c 128,-1,3
 396 1464 396 1464 383 1464 c 0,4,5
 345 1464 345 1464 327 1427.5 c 128,-1,6
 309 1391 309 1391 307 1309 c 1,7,-1
 182 1309 l 1,8,9
 184 1444 184 1444 235 1517.5 c 128,-1,10
 286 1591 286 1591 377 1591 c 0,11,12
 415 1591 415 1591 447 1577 c 128,-1,13
 479 1563 479 1563 516 1530 c 1,14,-1
 573 1475 l 2,15,16
 595 1455 595 1455 611.5 1445.5 c 128,-1,17
 628 1436 628 1436 641 1436 c 0,18,19
 679 1436 679 1436 697 1472.5 c 128,-1,20
 715 1509 715 1509 717 1591 c 1,21,-1
 842 1591 l 1,22,23
 840 1456 840 1456 789 1382.5 c 128,-1,24
 738 1309 738 1309 647 1309 c 0,25,26
 609 1309 609 1309 577 1323 c 128,-1,27
 545 1337 545 1337 508 1370 c 1,0,-1
EndSplineSet
Ligature: 0 1 'liga' space tildecomb
EndChar
StartChar: hungarumlaut
Encoding: 733 733 222
Width: 1024
Flags: W
Fore
764 1638 m 1,0,-1
 942 1638 l 1,1,-1
 694 1262 l 1,2,-1
 559 1262 l 1,3,-1
 764 1638 l 1,0,-1
430 1638 m 1,4,-1
 600 1638 l 1,5,-1
 377 1262 l 1,6,-1
 240 1262 l 1,7,-1
 430 1638 l 1,4,-1
EndSplineSet
Ligature: 0 1 'liga' space uni030B
EndChar
StartChar: uni0312
Encoding: 786 786 223
Width: 651
Flags: HW
TeX: 0 0 0 0
Fore
385 1001 m 1,0,-1
 174 1001 l 1,1,-1
 174 1174 l 1,2,-1
 338 1493 l 1,3,-1
 467 1493 l 1,4,-1
 385 1174 l 1,5,-1
 385 1001 l 1,0,-1
EndSplineSet
EndChar
StartChar: uni0326
Encoding: 806 806 223
Width: 1024
Flags: W
Fore
446 -132 m 1,0,-1
 657 -132 l 1,1,-1
 493 -452 l 1,2,-1
 364 -452 l 1,3,-1
 446 -132 l 1,0,-1
EndSplineSet
EndChar
StartChar: Omega
Encoding: 937 937 159
Width: 1565
Flags: W
Fore
1487 178 m 1,0,-1
 1487 0 l 1,1,-1
 887 0 l 1,2,-1
 887 178 l 1,3,4
 1064 275 1064 275 1163 441 c 128,-1,5
 1262 607 1262 607 1262 809 c 0,6,7
 1262 1049 1262 1049 1130 1194 c 128,-1,8
 998 1339 998 1339 782 1339 c 0,9,10
 566 1339 566 1339 433.5 1193.5 c 128,-1,11
 301 1048 301 1048 301 809 c 0,12,13
 301 607 301 607 400.5 441 c 128,-1,14
 500 275 500 275 678 178 c 1,15,-1
 678 0 l 1,16,-1
 78 0 l 1,17,-1
 78 178 l 1,18,-1
 397 178 l 1,19,20
 239 317 239 317 166.5 466 c 128,-1,21
 94 615 94 615 94 799 c 0,22,23
 94 1117 94 1117 285.5 1314 c 128,-1,24
 477 1511 477 1511 782 1511 c 0,25,26
 1085 1511 1085 1511 1277.5 1314.5 c 128,-1,27
 1470 1118 1470 1118 1470 809 c 0,28,29
 1470 615 1470 615 1399 467 c 128,-1,30
 1328 319 1328 319 1167 178 c 1,31,-1
 1487 178 l 1,0,-1
EndSplineSet
EndChar
StartChar: pi
Encoding: 960 960 155
Width: 1206
Flags: W
Fore
1159 913 m 1,0,-1
 977 913 l 1,1,-1
 872 426 l 1,2,3
 857 352 857 352 849.5 306 c 128,-1,4
 842 260 842 260 842 238 c 0,5,6
 842 180 842 180 865.5 155.5 c 128,-1,7
 889 131 889 131 944 131 c 0,8,9
 961 131 961 131 984 133.5 c 128,-1,10
 1007 136 1007 136 1044 141 c 1,11,-1
 1014 0 l 1,12,13
 984 -8 984 -8 956.5 -12 c 128,-1,14
 929 -16 929 -16 903 -16 c 0,15,16
 785 -16 785 -16 724.5 35 c 128,-1,17
 664 86 664 86 664 186 c 0,18,19
 664 232 664 232 674.5 304 c 128,-1,20
 685 376 685 376 719 537 c 2,21,-1
 799 913 l 1,22,-1
 473 913 l 1,23,-1
 279 0 l 1,24,-1
 98 0 l 1,25,-1
 293 913 l 1,26,-1
 252 913 l 2,27,28
 198 913 198 913 168 881 c 128,-1,29
 138 849 138 849 129 780 c 1,30,-1
 -31 780 l 1,31,32
 -3 946 -3 946 68.5 1008.5 c 128,-1,33
 140 1071 140 1071 305 1071 c 2,34,-1
 1194 1071 l 1,35,-1
 1159 913 l 1,0,-1
EndSplineSet
EndChar
StartChar: afii10051
Encoding: 1026 1026 158
Width: 1610
Flags: HW
HStem: 0 21G<424 627> 711 170<627 1023> 1323 170<-6 424 -6 1157>
VStem: 424 203<0 711 0 1323> 1251 201<104 423>
Fore
1452 104 m 18,0,1
 1452 -166 1452 -166 1350 -288 c 128,-1,2
 1248 -410 1248 -410 1020 -410 c 2,3,-1
 944 -410 l 1,4,-1
 944 -240 l 1,5,-1
 1006 -240 l 2,6,7
 1140 -240 1140 -240 1196 -165 c 0,8,9
 1251 -90 1251 -90 1251 104 c 2,10,-1
 1251 394 l 2,11,12
 1251 553 1251 553 1189 632 c 128,-1,13
 1127 711 1127 711 1003 711 c 2,14,-1
 627 711 l 9,15,-1
 627 0 l 17,16,-1
 424 0 l 1,17,-1
 424 1323 l 1,18,-1
 -6 1323 l 1,19,-1
 -6 1493 l 1,20,-1
 1157 1493 l 1,21,-1
 1157 1323 l 1,22,-1
 627 1323 l 1,23,-1
 627 881 l 1,24,-1
 1044 881 l 2,25,26
 1230 881 1230 881 1343 762 c 0,27,28
 1452 648 1452 648 1452 410 c 10,29,-1
 1452 104 l 18,0,1
EndSplineSet
EndChar
StartChar: afii10053
Encoding: 1028 1028 160
Width: 1430
Flags: HW
HStem: -29 166<818 884> 711 170<336 1026> 1354 166<818 884>
Fore
328 711 m 0,0,1
 335 441 335 441 464 294 c 0,2,3
 600 137 600 137 856 137 c 0,4,5
 986 137 986 137 1102 184 c 0,6,7
 1217 231 1217 231 1319 326 c 1,8,-1
 1319 115 l 1,9,10
 1213 43 1213 43 1094 7 c 0,11,12
 976 -29 976 -29 844 -29 c 0,13,14
 505 -29 505 -29 310 178 c 0,15,16
 115 386 115 386 115 745 c 0,17,18
 115 1105 115 1105 310 1312 c 0,19,20
 505 1520 505 1520 844 1520 c 0,21,22
 978 1520 978 1520 1096 1484 c 0,23,24
 1215 1449 1215 1449 1319 1378 c 1,25,-1
 1319 1165 l 1,26,27
 1217 1260 1217 1260 1102 1307 c 0,28,29
 986 1354 986 1354 856 1354 c 0,30,31
 600 1354 600 1354 464 1198 c 0,32,33
 361 1079 361 1079 336 881 c 0,34,-1
 1026 881 l 1,35,-1
 1026 711 l 1,36,-1
 328 711 l 0,0,1
EndSplineSet
EndChar
StartChar: afii10058
Encoding: 1033 1033 165
Width: 2240
Flags: HW
HStem: 0 166<1338 1591> 713 166<1338 1591> 1323 170<450 1136>
VStem: 450 201<1068.17 1323> 1136 202<0 713 0 1493> 1882 213<439 468>
Fore
1136 1323 m 17,0,-1
 651 1323 l 1,1,2
 651 1110 l 2,3,4
 651 622 651 622 519 280 c 0,5,6
 420.795 27.0469 420.795 27.0469 54 -29 c 9,7,-1
 54 138 l 17,8,9
 265.761 184.342 265.761 184.342 332.58 352.006 c 0,10,11
 450 644.87 450 644.87 450 1210 c 2,12,-1
 450 1493 l 1,13,-1
 1338 1493 l 17,14,-1
 1338 879 l 1,15,-1
 1572 879 l 2,16,17
 1823 879 1823 879 1959 770 c 128,-1,18
 2095 661 2095 661 2095 439 c 24,19,20
 2095 218 2095 218 1959 109 c 128,-1,21
 1823 0 1823 0 1572 0 c 2,22,-1
 1136 0 l 9,23,-1
 1136 1323 l 17,0,-1
1882 439 m 24,24,25
 1882 578 1882 578 1803 646 c 0,26,27
 1725 713 1725 713 1562 713 c 2,28,-1
 1338 713 l 1,29,-1
 1338 166 l 1,30,-1
 1562 166 l 2,31,32
 1722.82 166 1722.82 166 1803 234 c 0,33,34
 1882 301 1882 301 1882 439 c 24,24,25
EndSplineSet
EndChar
StartChar: afii10059
Encoding: 1034 1034 166
Width: 2140
Flags: HW
HStem: 0 166<1239 1498> 711 170<403 1037 1239 1498> 1473 20G<201 403 1037 1239>
VStem: 201 202<0 711 0 1493> 1037 202<0 713 881 1493> 1783 213<439 465>
Fore
1037 0 m 17,0,-1
 1037 711 l 1,1,-1
 403 711 l 1,2,-1
 403 0 l 1,3,-1
 201 0 l 1,4,-1
 201 1493 l 1,5,-1
 403 1493 l 1,6,-1
 403 881 l 1,7,-1
 1037 881 l 1,8,-1
 1037 1493 l 1,9,-1
 1239 1493 l 17,10,-1
 1239 879 l 1,11,-1
 1473 879 l 2,12,13
 1724 879 1724 879 1860 770 c 128,-1,14
 1996 661 1996 661 1996 439 c 24,15,16
 1996 218 1996 218 1860 109 c 128,-1,17
 1724 0 1724 0 1473 0 c 10,18,-1
 1037 0 l 17,0,-1
1783 439 m 24,19,20
 1783 578 1783 578 1704 646 c 0,21,22
 1626 713 1626 713 1463 713 c 2,23,-1
 1239 713 l 1,24,-1
 1239 166 l 1,25,-1
 1463 166 l 2,26,27
 1623.82 166 1623.82 166 1704 234 c 0,28,29
 1783 301 1783 301 1783 439 c 24,19,20
EndSplineSet
EndChar
StartChar: afii10060
Encoding: 1035 1035 167
Width: 1610
Flags: HW
HStem: 0 21G<424 627 1251 1452> 711 170<627 1019> 1323 170<-6 424 -6 1157>
VStem: 424 203<0 711 0 1323> 1251 201<0 433>
Fore
1044 881 m 2,0,1
 1230.26 881 1230.26 881 1343 762 c 0,2,3
 1452 648 1452 648 1452 410 c 2,4,-1
 1452 0 l 1,5,-1
 1251 0 l 1,6,-1
 1251 394 l 2,7,8
 1251 553 1251 553 1189 632 c 128,-1,9
 1127 711 1127 711 1003 711 c 2,10,-1
 627 711 l 9,11,-1
 627 0 l 17,12,-1
 424 0 l 1,13,-1
 424 1323 l 1,14,-1
 -6 1323 l 1,15,-1
 -6 1493 l 1,16,-1
 1157 1493 l 1,17,-1
 1157 1323 l 1,18,-1
 627 1323 l 1,19,-1
 627 881 l 1,20,-1
 1044 881 l 2,0,1
EndSplineSet
EndChar
StartChar: afii10145
Encoding: 1039 1039 171
Width: 1540
Flags: HW
HStem: -426 21G<700 901> 0 170<402 700 403 1339> 1473 20G<201 403 1137 1339>
VStem: 201 202<0 1493> 700 201<-426 0> 1137 202<170 1493>
Fore
700 0 m 25,0,-1
 201 0 l 1,1,-1
 201 1493 l 1,2,-1
 403 1493 l 1,3,-1
 403 170 l 1,4,-1
 1137 170 l 1,5,-1
 1137 1493 l 1,6,-1
 1339 1493 l 1,7,-1
 1339 0 l 1,8,-1
 901 0 l 25,9,-1
 901 -426 l 1,10,-1
 700 -426 l 1,11,-1
 700 0 l 25,0,-1
EndSplineSet
EndChar
StartChar: afii10018
Encoding: 1041 1041 173
Width: 1405
Flags: HW
HStem: 0 166<403 762> 713 166<403 762> 1327 166<201 1047>
VStem: 201 202<0 713 0 1327> 1047 213<439 465>
Fore
1047 439 m 24,0,1
 1047 578 1047 578 968 646 c 0,2,3
 890 713 890 713 727 713 c 2,4,-1
 403 713 l 1,5,-1
 403 166 l 1,6,-1
 727 166 l 2,7,8
 890 166 890 166 968 234 c 0,9,10
 1047 301 1047 301 1047 439 c 24,0,1
1047 1493 m 25,11,-1
 1047 1327 l 25,12,-1
 403 1327 l 1,13,-1
 403 879 l 1,14,-1
 737 879 l 2,15,16
 988 879 988 879 1124 770 c 128,-1,17
 1260 661 1260 661 1260 439 c 24,18,19
 1260 218 1260 218 1124 109 c 128,-1,20
 988 0 988 0 737 0 c 2,21,-1
 201 0 l 1,22,-1
 201 1493 l 1,23,-1
 1047 1493 l 25,11,-1
EndSplineSet
EndChar
StartChar: afii10020
Encoding: 1043 1043 175
Width: 1141
Flags: HW
HStem: 0 21<201 403> 1323 170<201 1130>
VStem: 201 202<0 1323>
Fore
201 0 m 1,0,-1
 201 1493 l 1,1,-1
 1130 1493 l 1,2,-1
 1130 1323 l 1,3,-1
 403 1323 l 1,4,-1
 403 0 l 1,5,-1
 201 0 l 1,0,-1
EndSplineSet
EndChar
StartChar: afii10021
Encoding: 1044 1044 176
Width: 1590
Flags: HMW
HStem: -426 21G<49 250 1338 1539> 0 170<456 1338> 1323 170<450 1136>
VStem: 49 201<-426 0> 450 201<1068.71 1323> 1136 202<170 1493> 1338 201<-426 170>
Fore
456 170 m 1,0,-1
 1136 170 l 17,1,-1
 1136 1323 l 1,2,-1
 651 1323 l 1,3,4
 651 1111 l 2,5,6
 651 616 651 616 519 281 c 0,7,8
 495 220 495 220 456 170 c 1,0,-1
151 170 m 1,9,10
 283 227 283 227 333 353 c 0,11,12
 450 646 450 646 450 1211 c 2,13,-1
 450 1493 l 1,14,-1
 1338 1493 l 17,15,-1
 1338 170 l 17,16,-1
 1539 170 l 1,17,-1
 1539 -426 l 1,18,-1
 1338 -426 l 1,19,-1
 1338 0 l 0,20,-1
 250 0 l 9,21,-1
 250 -426 l 1,22,-1
 49 -426 l 1,23,-1
 49 170 l 1,24,-1
 151 170 l 1,9,10
EndSplineSet
EndChar
StartChar: afii10024
Encoding: 1046 1046 178
Width: 1768
Flags: HW
HStem: 0 21G<59 276 783 985 1492 1709> 711 170<633 783 985 1135> 1473 20G<109 326 783 985 1442 1659>
VStem: 783 202<0 711 881 1493>
Fore
985 881 m 0,0,-1
 1134 881 l 9,1,-1
 1442 1493 l 17,2,-1
 1659 1493 l 1,3,-1
 1309 796 l 1,4,-1
 1709 0 l 1,5,-1
 1492 0 l 9,6,-1
 1135 711 l 17,7,-1
 985 711 l 0,8,-1
 985 0 l 1,9,-1
 783 0 l 1,10,-1
 783 711 l 0,11,-1
 633 711 l 9,12,-1
 276 0 l 17,13,-1
 59 0 l 1,14,-1
 459 796 l 1,15,-1
 109 1493 l 1,16,-1
 326 1493 l 9,17,-1
 634 881 l 17,18,-1
 783 881 l 0,19,-1
 783 1493 l 1,20,-1
 985 1493 l 1,21,-1
 985 881 l 0,0,-1
EndSplineSet
EndChar
StartChar: afii10026
Encoding: 1048 1048 180
Width: 1532
Flags: HW
HStem: 0 21G<201 473 1135 1331> 1473 20G<201 397 1059 1331>
VStem: 201 196<0 1493> 1135 196<0 1493>
Fore
1331 1493 m 1,0,-1
 1331 0 l 1,1,-1
 1135 0 l 1,2,-1
 1135 1249 l 1,3,-1
 473 0 l 1,4,-1
 201 0 l 1,5,-1
 201 1493 l 1,6,-1
 397 1493 l 1,7,-1
 397 244 l 1,8,-1
 1059 1493 l 1,9,-1
 1331 1493 l 1,0,-1
EndSplineSet
EndChar
StartChar: afii10029
Encoding: 1051 1051 183
Width: 1540
Flags: HW
HStem: 0 21G<1136 1338> 1323 170<650 1338>
VStem: 450 201<1069.17 1323> 1136 202<0 1323>
Fore
54 -28 m 17,0,1
 420.795 28.047 420.795 28.047 519 281 c 0,2,3
 651 623 651 623 651 1111 c 2,4,5
 651 1323 l 1,6,-1
 1136 1323 l 1,7,-1
 1136 0 l 1,8,-1
 1338 0 l 9,9,-1
 1338 1493 l 9,10,-1
 450 1493 l 1,11,-1
 450 1211 l 2,12,13
 450 645.87 450 645.87 332.58 353.006 c 0,14,15
 265.761 185.342 265.761 185.342 54 139 c 9,16,-1
 54 -28 l 17,0,1
EndSplineSet
EndChar
StartChar: afii10033
Encoding: 1055 1055 187
Width: 1540
Flags: HW
HStem: 0 21<201 403 1137 1339> 1323 170<201 1137>
VStem: 201 202<0 1323> 1137 202<0 1493>
Fore
1339 1493 m 17,0,-1
 1339 0 l 1,1,-1
 1137 0 l 1,2,-1
 1137 1323 l 1,3,-1
 403 1323 l 1,4,-1
 403 0 l 1,5,-1
 201 0 l 1,6,-1
 201 1493 l 1,7,-1
 1339 1493 l 17,0,-1
EndSplineSet
EndChar
StartChar: afii10037
Encoding: 1059 1059 191
Width: 1248
Flags: HW
HStem: -29 21G<195 272> 1473 20G<35 252 996 1213>
Fore
655 181 m 2,0,1
 633 130 633 130 602 93 c 0,2,3
 499 -29 499 -29 272 -29 c 2,4,-1
 195 -29 l 1,5,-1
 195 141 l 1,6,-1
 258 141 l 2,7,8
 398 141 398 141 447 216 c 0,9,10
 461 238 461 238 469 256 c 2,11,-1
 514 362 l 0,12,-1
 35 1493 l 1,13,-1
 252 1493 l 1,14,-1
 623 617 l 1,15,-1
 996 1493 l 1,16,-1
 1213 1493 l 1,17,-1
 655 181 l 2,0,1
EndSplineSet
EndChar
StartChar: afii10038
Encoding: 1060 1060 192
Width: 1612
Flags: HW
HStem: 0 21G<706 908> 1473 20G<706 908>
VStem: 115 213<745 769> 706 202<0 157 325 1166 1333 1493> 1284 213<745 769>
Fore
706 1166 m 0,0,1
 556 1145 556 1145 458 1058 c 0,2,3
 328 943 328 943 328 745 c 0,4,5
 328 548 328 548 458 433 c 0,6,7
 556 346 556 346 706 325 c 0,8,-1
 706 1166 l 0,0,1
908 325 m 0,9,10
 1058 346 1058 346 1156 433 c 0,11,12
 1284 548 1284 548 1284 745 c 0,13,14
 1284 943 1284 943 1156 1058 c 0,15,16
 1058 1145 1058 1145 908 1166 c 0,17,-1
 908 325 l 0,9,10
706 158 m 0,18,19
 462 180 462 180 304 314 c 0,20,21
 115 474 115 474 115 745 c 128,-1,22
 115 1016 115 1016 304 1177 c 0,23,24
 461 1312 461 1312 706 1334 c 0,25,-1
 706 1493 l 1,26,-1
 908 1493 l 1,27,-1
 908 1334 l 0,28,29
 1152 1311 1152 1311 1309 1177 c 0,30,31
 1497 1016 1497 1016 1497 745 c 0,32,33
 1497 475 1497 475 1309 314 c 0,34,35
 1152 180 1152 180 908 157 c 0,36,-1
 908 0 l 1,37,-1
 706 0 l 1,38,-1
 706 158 l 0,18,19
EndSplineSet
EndChar
StartChar: afii10040
Encoding: 1062 1062 194
Width: 1590
Flags: HW
HStem: -426 21G<1339 1540> 0 170<402 1339> 1473 20G<201 403 1137 1339>
VStem: 201 202<0 1493> 1137 202<170 1493> 1339 201<-426 170>
Fore
1339 0 m 8,0,-1
 201 0 l 1,1,-1
 201 1493 l 1,2,-1
 403 1493 l 1,3,-1
 403 170 l 1,4,-1
 1137 170 l 1,5,-1
 1137 1493 l 1,6,-1
 1339 1493 l 1,7,-1
 1339 170 l 1,8,-1
 1540 170 l 1,9,-1
 1540 -426 l 1,10,-1
 1339 -426 l 1,11,-1
 1339 0 l 8,0,-1
EndSplineSet
EndChar
StartChar: afii10041
Encoding: 1063 1063 195
Width: 1404
Flags: HW
HStem: 0 21G<1000 1203> 711 170<606 1000> 1473 20G<175 376 1000 1203>
VStem: 175 201<1167 1493> 1000 203<0 1493>
Fore
1000 0 m 17,0,-1
 1000 711 l 1,1,-1
 583 711 l 2,2,3
 396.736 711 396.736 711 284 830 c 0,4,5
 175 944 175 944 175 1182 c 2,6,-1
 175 1493 l 1,7,-1
 376 1493 l 1,8,-1
 376 1198 l 2,9,10
 376 1039 376 1039 438 960 c 128,-1,11
 500 881 500 881 624 881 c 2,12,-1
 1000 881 l 9,13,-1
 1000 1493 l 17,14,-1
 1203 1493 l 1,15,-1
 1203 0 l 9,16,-1
 1000 0 l 17,0,-1
EndSplineSet
EndChar
StartChar: afii10042
Encoding: 1064 1064 196
Width: 2054
Flags: HW
HStem: 0 170<402 1849> 1473 20G<201 403 1647 1849>
VStem: 201 202<0 1493> 924 202<170 1415> 1647 202<170 1493>
Fore
1126 170 m 9,0,-1
 1647 170 l 1,1,-1
 1647 1493 l 1,2,-1
 1849 1493 l 1,3,-1
 1849 0 l 1,4,-1
 201 0 l 1,5,-1
 201 1493 l 1,6,-1
 403 1493 l 1,7,-1
 403 170 l 1,8,-1
 924 170 l 1,9,-1
 924 1415 l 1,10,-1
 1126 1415 l 1,11,-1
 1126 170 l 9,0,-1
EndSplineSet
EndChar
StartChar: afii10043
Encoding: 1065 1065 197
Width: 2100
Flags: HW
HStem: -426 21G<1849 2050> 0 170<402 1849> 1473 20G<201 403 1647 1849>
VStem: 201 202<0 1493> 924 202<170 1415> 1647 202<170 1493> 1849 201<-426 170>
Fore
1849 0 m 17,0,-1
 201 0 l 1,1,-1
 201 1493 l 1,2,-1
 403 1493 l 1,3,-1
 403 170 l 1,4,-1
 924 170 l 1,5,-1
 924 1415 l 1,6,-1
 1126 1415 l 1,7,-1
 1126 170 l 9,8,-1
 1647 170 l 1,9,-1
 1647 1493 l 1,10,-1
 1849 1493 l 1,11,-1
 1849 170 l 17,12,-1
 2050 170 l 1,13,-1
 2050 -426 l 1,14,-1
 1849 -426 l 1,15,-1
 1849 0 l 17,0,-1
EndSplineSet
EndChar
StartChar: afii10044
Encoding: 1066 1066 198
Width: 1705
Flags: HW
HStem: 0 166<703 1059> 713 166<703 1059> 1323 170<50 501>
VStem: 501 202<0 713 0 1493> 1347 213<439 465>
Fore
501 0 m 9,0,-1
 501 1323 l 25,1,-1
 50 1323 l 17,2,-1
 50 1493 l 1,3,-1
 703 1493 l 17,4,-1
 703 879 l 1,5,-1
 1037 879 l 2,6,7
 1288 879 1288 879 1424 770 c 128,-1,8
 1560 661 1560 661 1560 439 c 24,9,10
 1560 218 1560 218 1424 109 c 128,-1,11
 1288 0 1288 0 1037 0 c 2,12,-1
 501 0 l 9,0,-1
1347 439 m 24,13,14
 1347 578 1347 578 1268 646 c 0,15,16
 1190 713 1190 713 1027 713 c 2,17,-1
 703 713 l 1,18,-1
 703 166 l 1,19,-1
 1027 166 l 2,20,21
 1187.82 166 1187.82 166 1268 234 c 0,22,23
 1347 301 1347 301 1347 439 c 24,13,14
EndSplineSet
EndChar
StartChar: afii10046
Encoding: 1068 1068 200
Width: 1405
Flags: HW
HStem: 0 166<403 762> 713 166<403 762> 1473 20G<201 403>
VStem: 201 202<0 713 0 1493> 1047 213<439 465>
Fore
1047 439 m 24,0,1
 1047 578 1047 578 968 646 c 0,2,3
 890 713 890 713 727 713 c 2,4,-1
 403 713 l 1,5,-1
 403 166 l 1,6,-1
 727 166 l 2,7,8
 890 166 890 166 968 234 c 0,9,10
 1047 301 1047 301 1047 439 c 24,0,1
201 1493 m 9,11,-1
 403 1493 l 17,12,-1
 403 879 l 1,13,-1
 737 879 l 2,14,15
 988 879 988 879 1124 770 c 128,-1,16
 1260 661 1260 661 1260 439 c 24,17,18
 1260 218 1260 218 1124 109 c 128,-1,19
 988 0 988 0 737 0 c 2,20,-1
 201 0 l 1,21,-1
 201 1493 l 9,11,-1
EndSplineSet
EndChar
StartChar: afii10047
Encoding: 1069 1069 201
Width: 1430
Flags: HW
HStem: -29 166<542 608> 711 170<404 1102> 1354 166<542 608>
Fore
1102 711 m 0,0,-1
 404 711 l 1,1,-1
 404 881 l 1,2,-1
 1094 881 l 0,3,4
 1069 1079 1069 1079 966 1198 c 0,5,6
 830 1354 830 1354 574 1354 c 0,7,8
 444 1354 444 1354 328 1307 c 0,9,10
 213 1260 213 1260 111 1165 c 1,11,-1
 111 1378 l 1,12,13
 215 1449 215 1449 334 1484 c 0,14,15
 452 1520 452 1520 586 1520 c 0,16,17
 925 1520 925 1520 1120 1312 c 0,18,19
 1315 1105 1315 1105 1315 745 c 0,20,21
 1315 386 1315 386 1120 178 c 0,22,23
 925 -29 925 -29 586 -29 c 0,24,25
 454 -29 454 -29 336 7 c 0,26,27
 217 43 217 43 111 115 c 1,28,-1
 111 326 l 1,29,30
 213 231 213 231 328 184 c 0,31,32
 444 137 444 137 574 137 c 0,33,34
 830 137 830 137 966 294 c 0,35,36
 1095 441 1095 441 1102 711 c 0,0,-1
EndSplineSet
EndChar
StartChar: afii10048
Encoding: 1070 1070 202
Width: 2111
Flags: HW
HStem: -29 164<1306 1332> 711 170<413 614> 1356 164<1306 1332>
VStem: 211 202<0 711 0 1493> 211 616<0 788> 1783 213<745 788>
Fore
1306 1356 m 0,0,1
 1086 1356 1086 1356 956 1192 c 0,2,3
 827 1028 827 1028 827 745 c 0,4,5
 827 463 827 463 956 299 c 0,6,7
 1086 135 1086 135 1306 135 c 128,-1,8
 1526 135 1526 135 1654 299 c 0,9,10
 1783 463 1783 463 1783 745 c 0,11,12
 1783 1028 1783 1028 1654 1192 c 0,13,14
 1526 1356 1526 1356 1306 1356 c 0,0,1
621 881 m 17,15,16
 651 1142 651 1142 802 1310 c 0,17,18
 990.75 1520 990.75 1520 1306 1520 c 0,19,20
 1620 1520 1620 1520 1808 1310 c 0,21,22
 1996 1099 1996 1099 1996 745 c 0,23,24
 1996 392 1996 392 1808 182 c 0,25,26
 1620 -29 1620 -29 1306 -29 c 0,27,28
 991 -29 991 -29 802 181 c 0,29,30
 623 381 623 381 614 711 c 9,31,-1
 413 711 l 17,32,-1
 413 0 l 1,33,-1
 211 0 l 1,34,-1
 211 1493 l 1,35,-1
 413 1493 l 1,36,-1
 413 881 l 9,37,-1
 621 881 l 17,15,16
EndSplineSet
EndChar
StartChar: afii10049
Encoding: 1071 1071 203
Width: 1423
Flags: HW
HStem: 0 21G<59 276 1020 1222> 631 166<766 1020> 1327 166<766 1020>
VStem: 258 213<1063 1089> 1020 202<0 1493>
Fore
514 700 m 1,0,1
 389 736 389 736 323.5 829 c 128,-1,2
 258 922 258 922 258 1063 c 0,3,4
 258 1279 258 1279 384 1386 c 128,-1,5
 510 1493 510 1493 766 1493 c 2,6,-1
 1222 1493 l 1,7,-1
 1222 0 l 1,8,-1
 1020 0 l 1,9,-1
 1020 631 l 1,10,-1
 800 631 l 2,11,12
 680 631 680 631 610.5 582 c 128,-1,13
 541 533 541 533 467 383 c 1,14,-1
 276 0 l 1,15,-1
 59 0 l 1,16,-1
 264 408 l 1,17,18
 326 534 326 534 387.5 606 c 128,-1,19
 449 678 449 678 514 700 c 1,0,1
1020 1327 m 1,20,-1
 766 1327 l 2,21,22
 620 1327 620 1327 545.5 1260.5 c 128,-1,23
 471 1194 471 1194 471 1063 c 128,-1,24
 471 932 471 932 545.5 864.5 c 128,-1,25
 620 797 620 797 766 797 c 2,26,-1
 1020 797 l 1,27,-1
 1020 1327 l 1,20,-1
EndSplineSet
EndChar
StartChar: afii10066
Encoding: 1073 1073 205
Width: 1253
Flags: HW
HStem: -29 156<627 642> 1367 153<663 706>
VStem: 113 194<559 580> 222 188<1246 1252> 946 195<549 580>
Fore
1004 1297 m 17,0,1
 902 1367 902 1367 663 1367 c 0,2,3
 410 1367 410 1367 410 1250 c 24,4,5
 410 1158 410 1158 674 1110 c 0,6,7
 881.625 1073 881.625 1073 999 961 c 0,8,9
 1141 826 1141 826 1141 549 c 0,10,11
 1141 284 1141 284 1004 128 c 0,12,13
 867 -29 867 -29 627 -29 c 0,14,15
 388 -29 388 -29 250 128 c 0,16,17
 113 284 113 284 113 559 c 0,18,19
 113 763 113 763 250 928 c 0,20,21
 303 992 303 992 378 1028 c 1,22,23
 222 1107 222 1107 222 1248 c 8,24,25
 222 1520 222 1520 663 1520 c 0,26,27
 884 1520 884 1520 1004 1450 c 9,28,-1
 1004 1297 l 17,0,1
516 978 m 1,29,30
 448 949 448 949 393 876 c 0,31,32
 307 763 307 763 307 559 c 0,33,34
 307 356 307 356 392 242 c 0,35,36
 478 127 478 127 627 127 c 0,37,38
 774 127 774 127 860 243 c 128,-1,39
 946 359 946 359 946 549 c 0,40,41
 946 748 946 748 855 844 c 0,42,43
 758 947 758 947 632 958 c 0,44,45
 568 964 568 964 516 978 c 1,29,30
EndSplineSet
EndChar
StartChar: afii10067
Encoding: 1074 1074 206
Width: 1200
Flags: HW
HStem: 0 153<370 667> 514 159<370 643> 967 153<186 643>
VStem: 186 184<0 514 0 967> 848 185<815 843> 890 196<312 336>
Fore
370 514 m 1,0,-1
 370 153 l 1,1,-1
 632 153 l 2,2,3
 761.137 153 761.137 153 827 199 c 0,4,5
 890 243 890 243 890 334 c 0,6,7
 890 427.656 890 427.656 827 469 c 0,8,9
 758.429 514 758.429 514 632 514 c 2,10,-1
 370 514 l 1,0,-1
370 967 m 1,11,-1
 370 673 l 1,12,-1
 612 673 l 2,13,14
 728.778 673 728.778 673 790 711 c 0,15,16
 848 747 848 747 848 822 c 0,17,18
 848 894 848 894 790 930 c 0,19,20
 729.361 967 729.361 967 612 967 c 2,21,-1
 370 967 l 1,11,-1
186 1120 m 1,22,-1
 624 1120 l 2,23,24
 821 1120 821 1120 927 1048 c 128,-1,25
 1033 976 1033 976 1033 843 c 0,26,27
 1033 740 1033 740 979 680 c 0,28,29
 925 619 925 619 819 604 c 1,30,31
 946 580 946 580 1016 504 c 128,-1,32
 1086 428 1086 428 1086 314 c 0,33,34
 1086 164 1086 164 970 82 c 0,35,36
 855 0 855 0 641 0 c 2,37,-1
 186 0 l 1,38,-1
 186 1120 l 1,22,-1
EndSplineSet
EndChar
StartChar: afii10068
Encoding: 1075 1075 207
Width: 1006
Flags: HW
HStem: 0 21G<186 370> 950 170<186 976>
VStem: 186 184<0 950>
Fore
186 0 m 1,0,-1
 186 1120 l 1,1,-1
 976 1120 l 1,2,-1
 976 950 l 1,3,-1
 370 950 l 1,4,-1
 370 0 l 1,5,-1
 186 0 l 1,0,-1
EndSplineSet
EndChar
StartChar: afii10069
Encoding: 1076 1076 208
Width: 1376
Flags: HMW
HStem: -426 21G<50 234 1142 1326> 0 153<422 1142> 967 153<385 958>
VStem: 50 184<-426 0> 385 184<797 967> 958 184<153 1120> 1142 184<-426 153>
Fore
422 153 m 0,0,-1
 958 153 l 17,1,-1
 958 967 l 1,2,-1
 569 967 l 1,3,4
 569 833 l 2,5,6
 569 429.889 569 429.889 451 207 c 0,7,8
 430.75 190 430.75 190 422 153 c 0,0,-1
156 153 m 0,9,10
 247.418 193 247.418 193 287 278 c 0,11,12
 385 489 385 489 385 908 c 2,13,-1
 385 1120 l 1,14,-1
 1142 1120 l 17,15,-1
 1142 153 l 17,16,-1
 1326 153 l 1,17,-1
 1326 -426 l 1,18,-1
 1142 -426 l 1,19,-1
 1142 0 l 0,20,-1
 234 0 l 9,21,-1
 234 -426 l 1,22,-1
 50 -426 l 1,23,-1
 50 153 l 1,24,-1
 156 153 l 0,9,10
EndSplineSet
EndChar
StartChar: afii10072
Encoding: 1078 1078 210
Width: 1502
Flags: HW
HStem: 0 21G<50 247 660 843 1256 1453> 521 152<546 660 843 957> 1100 20G<93 289 660 843 1214 1410>
VStem: 660 183<0 521 673 1120>
Fore
843 673 m 0,0,-1
 956 673 l 9,1,-1
 1214 1120 l 17,2,-1
 1410 1120 l 1,3,-1
 1113 597 l 1,4,-1
 1453 0 l 1,5,-1
 1256 0 l 9,6,-1
 957 521 l 17,7,-1
 843 521 l 0,8,-1
 843 0 l 1,9,-1
 660 0 l 1,10,-1
 660 521 l 0,11,-1
 546 521 l 9,12,-1
 247 0 l 17,13,-1
 50 0 l 1,14,-1
 390 597 l 1,15,-1
 93 1120 l 1,16,-1
 289 1120 l 9,17,-1
 547 673 l 17,18,-1
 660 673 l 0,19,-1
 660 1120 l 1,20,-1
 843 1120 l 1,21,-1
 843 673 l 0,0,-1
EndSplineSet
EndChar
StartChar: afii10073
Encoding: 1079 1079 211
Width: 1107
Flags: HW
HStem: -29 153<436 507> 521 152<352 534> 988 160<470 534>
VStem: 758 180<830 850> 787 181<326 340>
Fore
706 604 m 1,0,1
 830 580 830 580 899 507 c 128,-1,2
 968 434 968 434 968 326 c 0,3,4
 968 153 968 153 839 62 c 128,-1,5
 710 -29 710 -29 472 -29 c 0,6,7
 392 -29 392 -29 307 -15 c 0,8,9
 223 -1 223 -1 133 27 c 1,10,-1
 133 198 l 1,11,12
 204 161 204 161 289 142 c 0,13,14
 374 124 374 124 467 124 c 0,15,16
 618 124 618 124 703 180 c 0,17,18
 787 236 787 236 787 326 c 0,19,20
 787 414 787 414 709 470 c 0,21,22
 637.054 521 637.054 521 500 521 c 2,23,-1
 352 521 l 1,24,-1
 352 673 l 1,25,-1
 507 673 l 2,26,27
 623 673 623 673 690 717 c 0,28,29
 758 762 758 762 758 832 c 0,30,31
 758 896 758 896 688 942 c 0,32,33
 619 988 619 988 500 988 c 0,34,35
 429 988 429 988 348 975 c 0,36,37
 268 962 268 962 171 933 c 1,38,-1
 171 1100 l 1,39,40
 269 1124 269 1124 354 1136 c 128,-1,41
 439 1148 439 1148 515 1148 c 0,42,43
 711 1148 711 1148 824 1070 c 0,44,45
 938 991 938 991 938 850 c 0,46,47
 938 757 938 757 878 693 c 0,48,49
 818 628 818 628 706 604 c 1,0,1
EndSplineSet
EndChar
StartChar: afii10074
Encoding: 1080 1080 212
Width: 1345
Flags: HW
HStem: 0 21G<193 429 969 1152> 1100 20G<193 376 915 1152>
VStem: 193 183<0 1120> 969 183<0 1120>
Fore
1152 1120 m 1,0,-1
 1152 0 l 1,1,-1
 969 0 l 1,2,-1
 969 899 l 1,3,-1
 429 0 l 1,4,-1
 193 0 l 1,5,-1
 193 1120 l 1,6,-1
 376 1120 l 1,7,-1
 376 223 l 1,8,-1
 915 1120 l 1,9,-1
 1152 1120 l 1,0,-1
EndSplineSet
EndChar
StartChar: afii10076
Encoding: 1082 1082 214
Width: 1237
Flags: HW
HStem: 0 21<191 376 945 1185> 1100 20<191 376 925 1160>
VStem: 191 185<0 547 0 1120>
Fore
191 1120 m 1,0,-1
 376 1120 l 1,1,-1
 376 637 l 1,2,-1
 925 1120 l 1,3,-1
 1160 1120 l 1,4,-1
 566 596 l 1,5,-1
 1185 0 l 1,6,-1
 945 0 l 1,7,-1
 376 547 l 1,8,-1
 376 0 l 1,9,-1
 191 0 l 1,10,-1
 191 1120 l 1,0,-1
EndSplineSet
EndChar
StartChar: afii10077
Encoding: 1083 1083 215
Width: 1309
Flags: HW
HStem: 0 21G<955 1139> 967 153<565 1139>
VStem: 382 184<796.713 967> 955 184<0 967>
Fore
46 -29 m 17,0,1
 354.207 0.209153 354.207 0.209153 448 207 c 0,2,3
 566 467.162 566 467.162 566 833 c 2,4,5
 566 967 l 1,6,-1
 955 967 l 1,7,-1
 955 0 l 1,8,-1
 1139 0 l 9,9,-1
 1139 1120 l 9,10,-1
 382 1120 l 1,11,-1
 382 908 l 2,12,13
 382 485.434 382 485.434 284 278 c 0,14,15
 224.591 151 224.591 151 46 124 c 9,16,-1
 46 -29 l 17,0,1
EndSplineSet
EndChar
StartChar: afii10078
Encoding: 1084 1084 216
Width: 1545
Flags: HW
HStem: 0 21G<193 371 1174 1352> 1100 20G<193 455 1092 1352>
VStem: 193 178<0 944> 1174 178<0 1120>
Fore
193 1120 m 1,0,-1
 455 1120 l 1,1,-1
 773 370 l 1,2,-1
 1092 1120 l 1,3,-1
 1352 1120 l 1,4,-1
 1352 0 l 1,5,-1
 1174 0 l 1,6,-1
 1174 944 l 1,7,-1
 865 215 l 1,8,-1
 681 215 l 1,9,-1
 371 944 l 1,10,-1
 371 0 l 1,11,-1
 193 0 l 1,12,-1
 193 1120 l 1,0,-1
EndSplineSet
EndChar
StartChar: afii10079
Encoding: 1085 1085 217
Width: 1353
Flags: HW
HStem: 516 143<377 976> 1100 20G<193 377 976 1160>
VStem: 193 184<0 516 0 1120> 976 184<0 1120>
Fore
193 1120 m 1,0,-1
 377 1120 l 1,1,-1
 377 659 l 1,2,-1
 976 659 l 1,3,-1
 976 1120 l 1,4,-1
 1160 1120 l 1,5,-1
 1160 0 l 1,6,-1
 976 0 l 1,7,-1
 976 516 l 1,8,-1
 377 516 l 1,9,-1
 377 0 l 1,10,-1
 193 0 l 1,11,-1
 193 1120 l 1,0,-1
EndSplineSet
EndChar
StartChar: afii10081
Encoding: 1087 1087 219
Width: 1351
Flags: HW
HStem: 0 21G<193 377 976 1160> 966 154<193 976>
VStem: 193 184<0 966> 976 184<0 1120>
Fore
1160 1120 m 17,0,-1
 1160 0 l 1,1,-1
 976 0 l 1,2,-1
 976 966 l 1,3,-1
 377 966 l 1,4,-1
 377 0 l 1,5,-1
 193 0 l 1,6,-1
 193 1120 l 1,7,-1
 1160 1120 l 17,0,-1
EndSplineSet
EndChar
StartChar: afii10084
Encoding: 1090 1090 222
Width: 1083
Flags: HW
HStem: 0 21G<451 632> 950 170<5 451 5 1078>
VStem: 451 181<0 950>
Fore
5 1120 m 1,0,-1
 1078 1120 l 1,1,-1
 1078 950 l 1,2,-1
 632 950 l 1,3,-1
 632 0 l 1,4,-1
 451 0 l 1,5,-1
 451 950 l 1,6,-1
 5 950 l 1,7,-1
 5 1120 l 1,0,-1
EndSplineSet
EndChar
StartChar: afii10086
Encoding: 1092 1092 224
Width: 1877
Flags: HW
HStem: -426 21G<846 1031> -29 156<547 576 1301 1330> 991 156<547 576 1301 1330> 1473 20G<846 1031>
VStem: 113 195<517 599> 846 185<-426 141 559 599 977 1493> 1571 193<517 599>
Fore
308 559 m 0,0,1
 308 345 308 345 376 236 c 0,2,3
 443 127 443 127 576 127 c 128,-1,4
 709 127 709 127 778 236 c 0,5,6
 846 346 846 346 846 559 c 128,-1,7
 846 772 846 772 778 882 c 0,8,9
 709 991 709 991 576 991 c 128,-1,10
 443 991 443 991 376 882 c 0,11,12
 308 773 308 773 308 559 c 0,0,1
846 -426 m 17,13,-1
 846 143 l 1,14,15
 801 60 801 60 724 16 c 0,16,17
 648 -29 648 -29 547 -29 c 0,18,19
 346 -29 346 -29 230 126 c 0,20,21
 113 282 113 282 113 555 c 0,22,23
 113 833 113 833 229 990 c 128,-1,24
 345 1147 345 1147 547 1147 c 0,25,26
 647 1147 647 1147 724 1104 c 0,27,28
 800 1060 800 1060 846 977 c 1,29,-1
 846 1493 l 1,30,-1
 1031 1493 l 1,31,-1
 1031 977 l 1,32,33
 1077 1060 1077 1060 1154 1104 c 0,34,35
 1230 1147 1230 1147 1330 1147 c 0,36,37
 1533 1147 1533 1147 1648 990 c 0,38,39
 1764 833 1764 833 1764 555 c 0,40,41
 1764 282 1764 282 1648 126 c 0,42,43
 1532 -29 1532 -29 1330 -29 c 0,44,45
 1228 -29 1228 -29 1152 14 c 0,46,47
 1075 58 1075 58 1031 141 c 1,48,-1
 1031 -426 l 9,49,-1
 846 -426 l 17,13,-1
1571 559 m 0,50,51
 1571 773 1571 773 1504 882 c 0,52,53
 1436 991 1436 991 1303 991 c 0,54,55
 1169 991 1169 991 1100 882 c 0,56,57
 1031 772 1031 772 1031 559 c 0,58,59
 1031 347 1031 347 1100 237 c 128,-1,60
 1169 127 1169 127 1303 127 c 0,61,62
 1436 127 1436 127 1504 236 c 0,63,64
 1571 345 1571 345 1571 559 c 0,50,51
EndSplineSet
EndChar
StartChar: afii10088
Encoding: 1094 1094 226
Width: 1394
Flags: HW
HStem: -426 21G<1160 1344> 0 153<376 1160> 1100 20G<193 377 976 1160>
VStem: 193 184<0 1120> 976 184<153 1120> 1160 184<-426 153>
Fore
1160 0 m 8,0,-1
 193 0 l 1,1,-1
 193 1120 l 1,2,-1
 377 1120 l 1,3,-1
 377 153 l 1,4,-1
 976 153 l 1,5,-1
 976 1120 l 1,6,-1
 1160 1120 l 1,7,-1
 1160 153 l 1,8,-1
 1344 153 l 1,9,-1
 1344 -426 l 1,10,-1
 1160 -426 l 1,11,-1
 1160 0 l 8,0,-1
EndSplineSet
EndChar
StartChar: afii10089
Encoding: 1095 1095 227
Width: 1210
Flags: HW
HStem: 0 21G<840 1024> 521 153<517 840> 1100 20G<150 334 840 1024>
VStem: 150 184<879 1120> 840 184<0 1120>
Fore
840 0 m 17,0,-1
 840 521 l 1,1,-1
 497 521 l 2,2,3
 344.472 521 344.472 521 242 616 c 0,4,5
 150 702 150 702 150 886 c 2,6,-1
 150 1120 l 1,7,-1
 334 1120 l 1,8,-1
 334 909 l 2,9,10
 334 792 334 792 386 733 c 0,11,12
 439 674 439 674 543 674 c 2,13,-1
 840 674 l 9,14,-1
 840 1120 l 17,15,-1
 1024 1120 l 1,16,-1
 1024 0 l 9,17,-1
 840 0 l 17,0,-1
EndSplineSet
EndChar
StartChar: afii10090
Encoding: 1096 1096 228
Width: 1787
Flags: HW
HStem: 0 153<376 1594> 1100 20G<193 377 1410 1594>
VStem: 193 184<0 1120> 801 184<153 1061> 1410 184<153 1120>
Fore
985 153 m 9,0,-1
 1410 153 l 1,1,-1
 1410 1120 l 1,2,-1
 1594 1120 l 1,3,-1
 1594 0 l 1,4,-1
 193 0 l 1,5,-1
 193 1120 l 1,6,-1
 377 1120 l 1,7,-1
 377 153 l 1,8,-1
 801 153 l 1,9,-1
 801 1061 l 1,10,-1
 985 1061 l 1,11,-1
 985 153 l 9,0,-1
EndSplineSet
EndChar
StartChar: afii10091
Encoding: 1097 1097 229
Width: 1828
Flags: HW
HStem: -426 21G<1594 1778> 0 153<376 1594> 1100 20G<193 377 1410 1594>
VStem: 193 184<0 1120> 801 184<153 1061> 1410 184<153 1120> 1594 184<-426 153>
Fore
1594 0 m 17,0,-1
 193 0 l 1,1,-1
 193 1120 l 1,2,-1
 377 1120 l 1,3,-1
 377 153 l 1,4,-1
 801 153 l 1,5,-1
 801 1061 l 1,6,-1
 985 1061 l 1,7,-1
 985 153 l 9,8,-1
 1410 153 l 1,9,-1
 1410 1120 l 1,10,-1
 1594 1120 l 1,11,-1
 1594 153 l 17,12,-1
 1778 153 l 1,13,-1
 1778 -426 l 1,14,-1
 1594 -426 l 1,15,-1
 1594 0 l 17,0,-1
EndSplineSet
EndChar
StartChar: afii10092
Encoding: 1098 1098 230
Width: 1440
Flags: HW
HStem: 0 153<610 907> 514 153<610 907> 966 154<42 426>
VStem: 426 184<0 514 0 1120> 1130 196<332 353>
Fore
1130 332 m 24,0,1
 1130 425.683 1130 425.683 1068 468 c 0,2,3
 1000.6 514 1000.6 514 873 514 c 2,4,-1
 610 514 l 1,5,-1
 610 153 l 1,6,-1
 873 153 l 2,7,8
 1002.14 153 1002.14 153 1068 199 c 0,9,10
 1130 242 1130 242 1130 332 c 24,0,1
426 966 m 25,11,-1
 42 966 l 17,12,-1
 42 1120 l 1,13,-1
 610 1120 l 17,14,-1
 610 667 l 1,15,-1
 881 667 l 2,16,17
 1089.32 667 1089.32 667 1210 582 c 0,18,19
 1326 500 1326 500 1326 332 c 24,20,21
 1326 164 1326 164 1210 82 c 0,22,23
 1095 0 1095 0 881 0 c 2,24,-1
 426 0 l 9,25,-1
 426 966 l 25,11,-1
EndSplineSet
EndChar
StartChar: afii10094
Encoding: 1100 1100 232
Width: 1207
Flags: HW
HStem: 0 153<377 674> 514 153<377 674> 1100 20G<193 377>
VStem: 193 184<0 514 0 1120> 897 196<332 353>
Fore
897 332 m 24,0,1
 897 425.683 897 425.683 835 468 c 0,2,3
 767.605 514 767.605 514 640 514 c 2,4,-1
 377 514 l 1,5,-1
 377 153 l 1,6,-1
 640 153 l 2,7,8
 769.136 153 769.136 153 835 199 c 0,9,10
 897 242 897 242 897 332 c 24,0,1
193 1120 m 9,11,-1
 377 1120 l 17,12,-1
 377 667 l 1,13,-1
 648 667 l 2,14,15
 856.321 667 856.321 667 977 582 c 0,16,17
 1093 500 1093 500 1093 332 c 24,18,19
 1093 164 1093 164 977 82 c 0,20,21
 862 0 862 0 648 0 c 2,22,-1
 193 0 l 1,23,-1
 193 1120 l 9,11,-1
EndSplineSet
EndChar
StartChar: afii10095
Encoding: 1101 1101 233
Width: 1260
Flags: HW
HStem: -29 156<535 585> 487 144<276 953> 991 156<535 585>
Fore
276 942 m 17,0,1
 313 955 313 955 350 965 c 0,2,3
 449 991 449 991 555 991 c 0,4,5
 738 991 738 991 840 892 c 0,6,7
 935 800 935 800 953 631 c 0,8,-1
 276 631 l 1,9,-1
 276 487 l 1,10,-1
 953 487 l 0,11,12
 935 318 935 318 840 226 c 0,13,14
 738 127 738 127 555 127 c 0,15,16
 449 127 449 127 350 153 c 0,17,18
 250 179 250 179 152 231 c 1,19,-1
 152 57 l 1,20,21
 251 15 251 15 355 -7 c 128,-1,22
 459 -29 459 -29 566 -29 c 0,23,24
 834 -29 834 -29 990 127 c 0,25,26
 1147 283 1147 283 1147 559 c 128,-1,27
 1147 835 1147 835 990 991 c 0,28,29
 834 1147 834 1147 566 1147 c 0,30,31
 459 1147 459 1147 355 1125 c 0,32,33
 315 1117 315 1117 276 1105 c 1,34,35
 276 1025 276 1025 276 942 c 17,0,1
EndSplineSet
EndChar
StartChar: afii10096
Encoding: 1102 1102 234
Width: 1664
Flags: HW
HStem: -29 156<1038 1058> 991 156<1038 1058>
VStem: 193 184<0 521 0 1120> 193 525<0 596> 1357 195<559 596>
Fore
1038 991 m 0,0,1
 890 991 890 991 804 876 c 0,2,3
 718 760 718 760 718 559 c 128,-1,4
 718 358 718 358 803 242 c 0,5,6
 889 127 889 127 1038 127 c 0,7,8
 1185 127 1185 127 1271 243 c 128,-1,9
 1357 359 1357 359 1357 559 c 0,10,11
 1357 758 1357 758 1271 874 c 0,12,13
 1185 991 1185 991 1038 991 c 0,0,1
530 673 m 1,14,15
 548.998 863 548.998 863 661 991 c 0,16,17
 797.5 1147 797.5 1147 1038 1147 c 0,18,19
 1278 1147 1278 1147 1415 991 c 128,-1,20
 1552 835 1552 835 1552 559 c 0,21,22
 1552 284 1552 284 1415 128 c 0,23,24
 1278 -29 1278 -29 1038 -29 c 0,25,26
 797 -29 797 -29 661 128 c 0,27,28
 534 273 534 273 525 521 c 0,29,-1
 377 521 l 1,30,-1
 377 0 l 1,31,-1
 193 0 l 1,32,-1
 193 1120 l 1,33,-1
 377 1120 l 1,34,-1
 377 673 l 1,35,-1
 530 673 l 1,14,15
EndSplineSet
EndChar
StartChar: afii10097
Encoding: 1103 1103 235
Width: 1232
Flags: HW
HStem: 0 21G<50 245 854 1039> 473 155<654 854> 965 155<625 854>
VStem: 219 191<797 817> 854 185<0 1120>
Fore
437 525 m 1,0,1
 331 552 331 552 275 622 c 128,-1,2
 219 692 219 692 219 797 c 0,3,4
 219 959 219 959 326 1040 c 0,5,6
 434 1120 434 1120 651 1120 c 2,7,-1
 1039 1120 l 1,8,-1
 1039 0 l 1,9,-1
 854 0 l 1,10,-1
 854 473 l 1,11,-1
 685 473 l 2,12,13
 588 473 588 473 529 436 c 0,14,15
 470 400 470 400 407 287 c 1,16,-1
 245 0 l 1,17,-1
 50 0 l 1,18,-1
 224 306 l 1,19,20
 277 400 277 400 329 454 c 0,21,22
 382 508 382 508 437 525 c 1,0,1
854 965 m 1,23,-1
 656 965 l 2,24,25
 537 965 537 965 474 923 c 0,26,27
 410 881 410 881 410 797 c 0,28,29
 410 714 410 714 474 671 c 0,30,31
 537 628 537 628 656 628 c 2,32,-1
 854 628 l 1,33,-1
 854 965 l 1,23,-1
EndSplineSet
EndChar
StartChar: afii10099
Encoding: 1106 1106 238
Width: 1319
Flags: HW
HStem: -426 21G<717 787> 0 21G<193 378> 900 160<699 740> 1284 125<40 193 378 704> 1536 20G<193 378>
VStem: 193 185<0 567 0 1284 1409 1556> 947 184<-20 615>
Fore
193 1284 m 1,0,-1
 40 1284 l 1,1,-1
 40 1409 l 1,2,-1
 193 1409 l 1,3,-1
 193 1556 l 1,4,-1
 378 1556 l 1,5,-1
 378 1409 l 1,6,-1
 704 1409 l 1,7,-1
 704 1284 l 1,8,-1
 378 1284 l 9,9,-1
 378 859 l 17,10,11
 444 960 444 960 533 1010 c 0,12,13
 623 1060 623 1060 740 1060 c 0,14,15
 925.011 1060 925.011 1060 1032 941 c 0,16,17
 1131 830.887 1131 830.887 1131 589 c 10,18,-1
 1131 -20 l 18,19,20
 1131 -233.988 1131 -233.988 1049 -330 c 0,21,22
 968 -426 968 -426 787 -426 c 2,23,-1
 717 -426 l 1,24,-1
 717 -270 l 1,25,-1
 766 -270 l 2,26,27
 876.052 -270 876.052 -270 909 -222 c 0,28,29
 947 -166.64 947 -166.64 947 -20 c 2,30,-1
 947 583 l 2,31,32
 947 741.999 947 741.999 885 821 c 0,33,34
 823 900 823 900 699 900 c 0,35,36
 544.595 900 544.595 900 464 805 c 0,37,38
 378 703.628 378 703.628 378 546 c 2,39,-1
 378 0 l 1,40,-1
 193 0 l 1,41,-1
 193 1284 l 1,0,-1
EndSplineSet
EndChar
StartChar: afii10101
Encoding: 1108 1108 240
Width: 1260
Flags: HW
HStem: -29 156<672 738> 487 144<307 984> 991 156<672 738>
Fore
984 942 m 17,0,1
 947 955 947 955 910 965 c 0,2,3
 811 991 811 991 705 991 c 0,4,5
 522 991 522 991 420 892 c 0,6,7
 325 800 325 800 307 631 c 0,8,-1
 984 631 l 1,9,-1
 984 487 l 1,10,-1
 307 487 l 0,11,12
 325 318 325 318 420 226 c 0,13,14
 522 127 522 127 705 127 c 0,15,16
 811 127 811 127 910 153 c 0,17,18
 1010 179 1010 179 1108 231 c 1,19,-1
 1108 57 l 1,20,21
 1009 15 1009 15 905 -7 c 128,-1,22
 801 -29 801 -29 694 -29 c 0,23,24
 426 -29 426 -29 270 127 c 0,25,26
 113 283 113 283 113 559 c 128,-1,27
 113 835 113 835 270 991 c 0,28,29
 426 1147 426 1147 694 1147 c 0,30,31
 801 1147 801 1147 905 1125 c 0,32,33
 945 1117 945 1117 984 1105 c 1,34,35
 984 1025 984 1025 984 942 c 17,0,1
EndSplineSet
EndChar
StartChar: afii10106
Encoding: 1113 1113 245
Width: 1840
Flags: HW
HStem: 0 153<1110 1295> 514 153<1110 1295> 967 153<382 926>
VStem: 382 184<796.678 967> 926 184<0 514 0 1120> 1530 196<332 356>
Fore
926 967 m 9,0,-1
 566 967 l 17,1,2
 566 833 l 2,3,4
 566 467 566 467 448 207 c 0,5,6
 354 0 354 0 46 -29 c 9,7,-1
 46 124 l 17,8,9
 225 151 225 151 284 278 c 0,10,11
 382 485 382 485 382 908 c 2,12,-1
 382 1120 l 1,13,-1
 1110 1120 l 17,14,-1
 1110 667 l 1,15,-1
 1281 667 l 2,16,17
 1489.26 667 1489.26 667 1610 582 c 0,18,19
 1726 500 1726 500 1726 332 c 24,20,21
 1726 164 1726 164 1610 82 c 0,22,23
 1495 0 1495 0 1281 0 c 10,24,-1
 926 0 l 17,25,-1
 926 967 l 9,0,-1
1530 332 m 24,26,27
 1530 426 1530 426 1468 468 c 0,28,29
 1401 514 1401 514 1273 514 c 2,30,-1
 1110 514 l 1,31,-1
 1110 153 l 1,32,-1
 1273 153 l 2,33,34
 1402 153 1402 153 1468 199 c 0,35,36
 1530 242 1530 242 1530 332 c 24,26,27
EndSplineSet
EndChar
StartChar: afii10107
Encoding: 1114 1114 246
Width: 1826
Flags: HW
HStem: 0 153<1108 1298> 514 153<377 924 1108 1298> 1100 20G<193 377 924 1108>
VStem: 193 184<0 514 0 1120> 924 184<0 514 667 1120> 1528 196<332 353>
Fore
1528 332 m 24,0,1
 1528 426.683 1528 426.683 1466 469 c 0,2,3
 1400.06 514 1400.06 514 1271 514 c 2,4,-1
 1108 514 l 1,5,-1
 1108 153 l 1,6,-1
 1271 153 l 2,7,8
 1400.13 153 1400.13 153 1466 199 c 0,9,10
 1528 242 1528 242 1528 332 c 24,0,1
924 0 m 17,11,-1
 924 514 l 1,12,-1
 377 514 l 1,13,-1
 377 0 l 1,14,-1
 193 0 l 1,15,-1
 193 1120 l 1,16,-1
 377 1120 l 1,17,-1
 377 667 l 1,18,-1
 924 667 l 1,19,-1
 924 1120 l 1,20,-1
 1108 1120 l 17,21,-1
 1108 667 l 1,22,-1
 1279 667 l 2,23,24
 1487.32 667 1487.32 667 1608 582 c 0,25,26
 1724 500 1724 500 1724 332 c 24,27,28
 1724 164 1724 164 1608 82 c 0,29,30
 1493 0 1493 0 1279 0 c 10,31,-1
 924 0 l 17,11,-1
EndSplineSet
EndChar
StartChar: afii10108
Encoding: 1115 1115 247
Width: 1305
Flags: HW
HStem: 0 21G<193 378 947 1131> 900 160<699 740> 1284 125<40 193 378 704> 1536 20G<193 378>
VStem: 193 185<0 577 0 1284 1409 1556> 947 184<0 609>
Fore
193 1284 m 1,0,-1
 40 1284 l 1,1,-1
 40 1409 l 1,2,-1
 193 1409 l 1,3,-1
 193 1556 l 1,4,-1
 378 1556 l 1,5,-1
 378 1409 l 1,6,-1
 704 1409 l 1,7,-1
 704 1284 l 1,8,-1
 378 1284 l 9,9,-1
 378 859 l 17,10,11
 444 960 444 960 533 1010 c 0,12,13
 623 1060 623 1060 740 1060 c 0,14,15
 929.438 1060 929.438 1060 1032 941 c 0,16,17
 1131 826.135 1131 826.135 1131 589 c 10,18,-1
 1131 0 l 17,19,-1
 947 0 l 1,20,-1
 947 583 l 2,21,22
 947 741.998 947 741.998 885 821 c 0,23,24
 823 900 823 900 699 900 c 0,25,26
 547.394 900 547.394 900 464 805 c 0,27,28
 378 707.031 378 707.031 378 546 c 2,29,-1
 378 0 l 1,30,-1
 193 0 l 1,31,-1
 193 1284 l 1,0,-1
EndSplineSet
EndChar
StartChar: afii10193
Encoding: 1119 1119 251
Width: 1356
Flags: HW
HStem: -426 21G<583 767> 0 154<193 976> 1100 20G<193 377 976 1160>
VStem: 193 184<154 1120> 583 184<-426 0> 976 184<0 1120>
Fore
767 0 m 25,0,-1
 1160 0 l 1,1,-1
 1160 1120 l 1,2,-1
 976 1120 l 1,3,-1
 976 154 l 1,4,-1
 377 154 l 1,5,-1
 377 1120 l 1,6,-1
 193 1120 l 1,7,-1
 193 0 l 1,8,-1
 583 0 l 25,9,-1
 583 -426 l 25,10,-1
 767 -426 l 25,11,-1
 767 0 l 25,0,-1
EndSplineSet
EndChar
StartChar: uni2010
Encoding: 8208 8208 237
Width: 739
Flags: W
Fore
100 643 m 1,0,-1
 639 643 l 1,1,-1
 639 479 l 1,2,-1
 100 479 l 1,3,-1
 100 643 l 1,0,-1
EndSplineSet
KernsSLIF: 356 -188 0 0 286 75 0 0 253 -36 0 0 221 -243 0 0 210 57 0 0 212 57 0 0 211 57 0 0 193 -45 0 0 194 -45 0 0 376 -243 0 0 255 -36 0 0 213 57 0 0 195 -45 0 0 192 -45 0 0 245 38 0 0 246 38 0 0 244 38 0 0 242 38 0 0 243 38 0 0 214 57 0 0 196 -45 0 0 121 -36 0 0 118 -55 0 0 111 38 0 0 89 -243 0 0 88 -102 0 0 87 -83 0 0 86 -120 0 0 84 -188 0 0 81 75 0 0 79 57 0 0 74 114 0 0 71 75 0 0 66 -73 0 0 65 -45 0 0
EndChar
StartChar: figuredash
Encoding: 8210 8210 239
Width: 1024
Flags: W
Fore
0 633 m 1,0,-1
 1024 633 l 1,1,-1
 1024 489 l 1,2,-1
 0 489 l 1,3,-1
 0 633 l 1,0,-1
EndSplineSet
EndChar
StartChar: endash
Encoding: 8211 8211 178
Width: 1024
Flags: W
Fore
0 633 m 1,0,-1
 1024 633 l 1,1,-1
 1024 489 l 1,2,-1
 0 489 l 1,3,-1
 0 633 l 1,0,-1
EndSplineSet
EndChar
StartChar: emdash
Encoding: 8212 8212 179
Width: 2048
Flags: W
Fore
0 633 m 1,0,-1
 2048 633 l 1,1,-1
 2048 489 l 1,2,-1
 0 489 l 1,3,-1
 0 633 l 1,0,-1
EndSplineSet
EndChar
StartChar: afii00208
Encoding: 8213 8213 180
Width: 2048
Flags: W
Fore
0 633 m 1,0,-1
 2048 633 l 1,1,-1
 2048 489 l 1,2,-1
 0 489 l 1,3,-1
 0 633 l 1,0,-1
EndSplineSet
EndChar
StartChar: quoteleft
Encoding: 8216 8216 182
Width: 651
Flags: W
Fore
385 1001 m 1,0,-1
 174 1001 l 1,1,-1
 174 1174 l 1,2,-1
 338 1493 l 1,3,-1
 467 1493 l 1,4,-1
 385 1174 l 1,5,-1
 385 1001 l 1,0,-1
EndSplineSet
EndChar
StartChar: quoteright
Encoding: 8217 8217 183
Width: 651
Flags: W
Fore
260 1493 m 1,0,-1
 471 1493 l 1,1,-1
 471 1341 l 1,2,-1
 307 1022 l 1,3,-1
 178 1022 l 1,4,-1
 260 1341 l 1,5,-1
 260 1493 l 1,0,-1
EndSplineSet
EndChar
StartChar: quotesinglbase
Encoding: 8218 8218 196
Width: 651
Flags: W
Fore
256 254 m 1,0,-1
 467 254 l 1,1,-1
 467 82 l 1,2,-1
 303 -238 l 1,3,-1
 174 -238 l 1,4,-1
 256 82 l 1,5,-1
 256 254 l 1,0,-1
EndSplineSet
EndChar
StartChar: quotedblleft
Encoding: 8220 8220 180
Width: 1061
Flags: W
Fore
385 1001 m 1,0,-1
 174 1001 l 1,1,-1
 174 1174 l 1,2,-1
 338 1493 l 1,3,-1
 467 1493 l 1,4,-1
 385 1174 l 1,5,-1
 385 1001 l 1,0,-1
795 1001 m 1,6,-1
 584 1001 l 1,7,-1
 584 1174 l 1,8,-1
 748 1493 l 1,9,-1
 877 1493 l 1,10,-1
 795 1174 l 1,11,-1
 795 1001 l 1,6,-1
EndSplineSet
KernsSLIF: 340 -63 0 0 242 -149 0 0 244 -149 0 0 213 -73 0 0 268 -73 0 0 270 -63 0 0 313 -63 0 0 195 -264 0 0 341 -112 0 0 286 -73 0 0 196 -264 0 0 223 -63 0 0 214 -73 0 0 262 -73 0 0 193 -264 0 0 317 -63 0 0 241 -112 0 0 253 -73 0 0 194 -264 0 0 222 -63 0 0 65 -264 0 0 381 -36 0 0 67 -73 0 0 66 -63 0 0 198 -387 0 0 68 -63 0 0 71 -73 0 0 70 -63 0 0 72 -63 0 0 75 -63 0 0 74 -63 0 0 76 -63 0 0 79 -73 0 0 345 -112 0 0 81 -73 0 0 80 -63 0 0 82 -63 0 0 88 -120 0 0 90 -36 0 0 245 -149 0 0 211 -73 0 0 102 -73 0 0 210 -73 0 0 212 -73 0 0 255 -73 0 0 344 -63 0 0 111 -149 0 0 110 -112 0 0 246 -149 0 0 119 -73 0 0 114 -112 0 0 192 -264 0 0 118 -73 0 0 121 -73 0 0 328 -112 0 0 240 -73 0 0 199 -73 0 0 243 -149 0 0
EndChar
StartChar: quotedblright
Encoding: 8221 8221 181
Width: 1061
Flags: W
Fore
256 1493 m 1,0,-1
 467 1493 l 1,1,-1
 467 1321 l 1,2,-1
 303 1001 l 1,3,-1
 174 1001 l 1,4,-1
 256 1321 l 1,5,-1
 256 1493 l 1,0,-1
666 1493 m 1,6,-1
 877 1493 l 1,7,-1
 877 1321 l 1,8,-1
 713 1001 l 1,9,-1
 584 1001 l 1,10,-1
 666 1321 l 1,11,-1
 666 1493 l 1,6,-1
EndSplineSet
EndChar
StartChar: quotedblbase
Encoding: 8222 8222 197
Width: 1061
Flags: W
Fore
666 254 m 1,0,-1
 877 254 l 1,1,-1
 877 82 l 1,2,-1
 713 -238 l 1,3,-1
 584 -238 l 1,4,-1
 666 82 l 1,5,-1
 666 254 l 1,0,-1
256 254 m 1,6,-1
 467 254 l 1,7,-1
 467 82 l 1,8,-1
 303 -238 l 1,9,-1
 174 -238 l 1,10,-1
 256 82 l 1,11,-1
 256 254 l 1,6,-1
EndSplineSet
KernsSLIF: 340 -73 0 0 242 -73 0 0 244 -73 0 0 213 -112 0 0 268 -112 0 0 270 -73 0 0 221 -376 0 0 313 -73 0 0 195 38 0 0 341 -73 0 0 286 -73 0 0 196 38 0 0 223 -73 0 0 214 -112 0 0 262 -112 0 0 193 38 0 0 317 -73 0 0 241 -73 0 0 253 -112 0 0 194 38 0 0 356 -282 0 0 222 -73 0 0 65 38 0 0 67 -112 0 0 66 -73 0 0 198 38 0 0 68 -73 0 0 71 -73 0 0 70 -73 0 0 72 -73 0 0 75 -73 0 0 74 47 0 0 376 -376 0 0 76 -73 0 0 79 -112 0 0 345 -73 0 0 81 -112 0 0 80 -73 0 0 82 -73 0 0 84 -282 0 0 87 -253 0 0 86 -376 0 0 89 -376 0 0 88 -73 0 0 245 -73 0 0 211 -112 0 0 102 -36 0 0 210 -112 0 0 212 -112 0 0 255 -112 0 0 344 -73 0 0 111 -73 0 0 110 -73 0 0 246 -73 0 0 119 -196 0 0 114 -73 0 0 192 38 0 0 118 -235 0 0 121 -112 0 0 328 -73 0 0 240 -73 0 0 199 -112 0 0 243 -73 0 0
EndChar
StartChar: dagger
Encoding: 8224 8224 130
Width: 1024
Flags: W
Fore
424 1493 m 1,0,-1
 600 1493 l 1,1,-1
 600 1073 l 1,2,-1
 967 1073 l 1,3,-1
 967 920 l 1,4,-1
 600 920 l 1,5,-1
 600 -197 l 1,6,-1
 424 -197 l 1,7,-1
 424 920 l 1,8,-1
 57 920 l 1,9,-1
 57 1073 l 1,10,-1
 424 1073 l 1,11,-1
 424 1493 l 1,0,-1
EndSplineSet
EndChar
StartChar: daggerdbl
Encoding: 8225 8225 194
Width: 1024
Flags: W
Fore
967 223 m 1,0,-1
 600 223 l 1,1,-1
 600 -197 l 1,2,-1
 424 -197 l 1,3,-1
 424 223 l 1,4,-1
 57 223 l 1,5,-1
 57 377 l 1,6,-1
 424 377 l 1,7,-1
 424 920 l 1,8,-1
 57 920 l 1,9,-1
 57 1073 l 1,10,-1
 424 1073 l 1,11,-1
 424 1493 l 1,12,-1
 600 1493 l 1,13,-1
 600 1073 l 1,14,-1
 967 1073 l 1,15,-1
 967 920 l 1,16,-1
 600 920 l 1,17,-1
 600 377 l 1,18,-1
 967 377 l 1,19,-1
 967 223 l 1,0,-1
EndSplineSet
EndChar
StartChar: bullet
Encoding: 8226 8226 135
Width: 1208
Flags: W
Fore
307 762 m 0,0,1
 307 886 307 886 393.5 971.5 c 128,-1,2
 480 1057 480 1057 606 1057 c 0,3,4
 730 1057 730 1057 815.5 971.5 c 128,-1,5
 901 886 901 886 901 762 c 0,6,7
 901 637 901 637 815 551 c 128,-1,8
 729 465 729 465 604 465 c 0,9,10
 479 465 479 465 393 551 c 128,-1,11
 307 637 307 637 307 762 c 0,0,1
EndSplineSet
EndChar
StartChar: ellipsis
Encoding: 8230 8230 171
Width: 2048
Flags: W
Fore
918 254 m 1,0,-1
 1130 254 l 1,1,-1
 1130 0 l 1,2,-1
 918 0 l 1,3,-1
 918 254 l 1,0,-1
1599 254 m 1,4,-1
 1812 254 l 1,5,-1
 1812 0 l 1,6,-1
 1599 0 l 1,7,-1
 1599 254 l 1,4,-1
236 254 m 1,8,-1
 449 254 l 1,9,-1
 449 0 l 1,10,-1
 236 0 l 1,11,-1
 236 254 l 1,8,-1
EndSplineSet
Ligature: 0 1 'liga' period period period
EndChar
StartChar: perthousand
Encoding: 8240 8240 198
Width: 2748
Flags: W
Fore
2292 657 m 0,0,1
 2205 657 2205 657 2155 583 c 128,-1,2
 2105 509 2105 509 2105 377 c 0,3,4
 2105 247 2105 247 2155 172.5 c 128,-1,5
 2205 98 2205 98 2292 98 c 0,6,7
 2377 98 2377 98 2426.5 172.5 c 128,-1,8
 2476 247 2476 247 2476 377 c 0,9,10
 2476 508 2476 508 2426.5 582.5 c 128,-1,11
 2377 657 2377 657 2292 657 c 0,0,1
2292 784 m 0,12,13
 2450 784 2450 784 2543 674 c 128,-1,14
 2636 564 2636 564 2636 377 c 0,15,16
 2636 190 2636 190 2542.5 80.5 c 128,-1,17
 2449 -29 2449 -29 2292 -29 c 0,18,19
 2132 -29 2132 -29 2039 80.5 c 128,-1,20
 1946 190 1946 190 1946 377 c 0,21,22
 1946 565 1946 565 2039.5 674.5 c 128,-1,23
 2133 784 2133 784 2292 784 c 0,12,13
457 1520 m 0,24,25
 615 1520 615 1520 709 1410.5 c 128,-1,26
 803 1301 803 1301 803 1114 c 0,27,28
 803 925 803 925 709.5 816 c 128,-1,29
 616 707 616 707 457 707 c 0,30,31
 298 707 298 707 205.5 816.5 c 128,-1,32
 113 926 113 926 113 1114 c 0,33,34
 113 1300 113 1300 206 1410 c 128,-1,35
 299 1520 299 1520 457 1520 c 0,24,25
1360 1520 m 1,36,-1
 1520 1520 l 1,37,-1
 586 -29 l 1,38,-1
 426 -29 l 1,39,-1
 1360 1520 l 1,36,-1
457 1393 m 0,40,41
 371 1393 371 1393 321.5 1318.5 c 128,-1,42
 272 1244 272 1244 272 1114 c 0,43,44
 272 982 272 982 321 908 c 128,-1,45
 370 834 370 834 457 834 c 0,46,47
 544 834 544 834 593.5 908 c 128,-1,48
 643 982 643 982 643 1114 c 0,49,50
 643 1243 643 1243 593 1318 c 128,-1,51
 543 1393 543 1393 457 1393 c 0,40,41
1489 784 m 0,52,53
 1647 784 1647 784 1740 674 c 128,-1,54
 1833 564 1833 564 1833 377 c 0,55,56
 1833 190 1833 190 1739.5 80.5 c 128,-1,57
 1646 -29 1646 -29 1489 -29 c 0,58,59
 1329 -29 1329 -29 1236 80.5 c 128,-1,60
 1143 190 1143 190 1143 377 c 0,61,62
 1143 565 1143 565 1236.5 674.5 c 128,-1,63
 1330 784 1330 784 1489 784 c 0,52,53
1489 657 m 0,64,65
 1402 657 1402 657 1352.5 583 c 128,-1,66
 1303 509 1303 509 1303 377 c 0,67,68
 1303 247 1303 247 1352.5 172.5 c 128,-1,69
 1402 98 1402 98 1489 98 c 0,70,71
 1574 98 1574 98 1623.5 172.5 c 128,-1,72
 1673 247 1673 247 1673 377 c 0,73,74
 1673 508 1673 508 1623.5 582.5 c 128,-1,75
 1574 657 1574 657 1489 657 c 0,64,65
EndSplineSet
EndChar
StartChar: guilsinglleft
Encoding: 8249 8249 190
Width: 819
Flags: W
Fore
627 1059 m 1,0,-1
 627 868 l 1,1,-1
 326 600 l 1,2,-1
 627 332 l 1,3,-1
 627 141 l 1,4,-1
 158 559 l 1,5,-1
 158 641 l 1,6,-1
 627 1059 l 1,0,-1
EndSplineSet
EndChar
StartChar: guilsinglright
Encoding: 8250 8250 191
Width: 819
Flags: W
Fore
193 1059 m 1,0,-1
 662 641 l 1,1,-1
 662 559 l 1,2,-1
 193 141 l 1,3,-1
 193 332 l 1,4,-1
 494 600 l 1,5,-1
 193 868 l 1,6,-1
 193 1059 l 1,0,-1
EndSplineSet
EndChar
StartChar: Euro
Encoding: 8364 8364 258
Width: 1303
Flags: W
Fore
1167 1378 m 1,0,-1
 1167 1165 l 1,1,2
 1076 1270 1076 1270 991.5 1315 c 128,-1,3
 907 1360 907 1360 805 1360 c 0,4,5
 648 1360 648 1360 547 1260 c 128,-1,6
 446 1160 446 1160 414 973 c 1,7,-1
 991 973 l 1,8,-1
 936 850 l 1,9,-1
 398 850 l 1,10,11
 396 826 396 826 395.5 803 c 128,-1,12
 395 780 395 780 395 745 c 0,13,14
 395 713 395 713 395.5 690 c 128,-1,15
 396 667 396 667 398 643 c 1,16,-1
 844 643 l 1,17,-1
 788 520 l 1,18,-1
 414 520 l 1,19,20
 446 333 446 333 547 232 c 128,-1,21
 648 131 648 131 805 131 c 0,22,23
 907 131 907 131 991.5 176 c 128,-1,24
 1076 221 1076 221 1167 326 c 1,25,-1
 1167 115 l 1,26,27
 1078 43 1078 43 985.5 7 c 128,-1,28
 893 -29 893 -29 797 -29 c 0,29,30
 560 -29 560 -29 405.5 116 c 128,-1,31
 251 261 251 261 211 520 c 1,32,-1
 0 520 l 1,33,-1
 55 643 l 1,34,-1
 194 643 l 1,35,36
 194 666 194 666 193.5 689.5 c 128,-1,37
 193 713 193 713 193 745 c 0,38,39
 193 780 193 780 193.5 803.5 c 128,-1,40
 194 827 194 827 194 850 c 1,41,-1
 0 850 l 1,42,-1
 55 973 l 1,43,-1
 211 973 l 1,44,45
 251 1230 251 1230 406 1375 c 128,-1,46
 561 1520 561 1520 797 1520 c 0,47,48
 895 1520 895 1520 987.5 1484.5 c 128,-1,49
 1080 1449 1080 1449 1167 1378 c 1,0,-1
EndSplineSet
EndChar
StartChar: trademark
Encoding: 8482 8482 140
Width: 2048
Flags: W
Fore
1098 1493 m 1,0,-1
 1272 1237 l 1,1,-1
 1436 1493 l 1,2,-1
 1606 1493 l 1,3,-1
 1606 915 l 1,4,-1
 1493 915 l 1,5,-1
 1493 1399 l 1,6,-1
 1298 1096 l 1,7,-1
 1243 1096 l 1,8,-1
 1040 1399 l 1,9,-1
 1040 915 l 1,10,-1
 926 915 l 1,11,-1
 926 1493 l 1,12,-1
 1098 1493 l 1,0,-1
813 1493 m 1,13,-1
 813 1399 l 1,14,-1
 610 1399 l 1,15,-1
 610 915 l 1,16,-1
 496 915 l 1,17,-1
 496 1399 l 1,18,-1
 295 1399 l 1,19,-1
 295 1493 l 1,20,-1
 813 1493 l 1,13,-1
EndSplineSet
Ligature: 0 1 'liga' T M
EndChar
StartChar: partialdiff
Encoding: 8706 8706 152
Width: 1059
Flags: W
Fore
756 621 m 1,0,1
 771 708 771 708 778.5 789.5 c 128,-1,2
 786 871 786 871 786 946 c 0,3,4
 786 1075 786 1075 749.5 1140.5 c 128,-1,5
 713 1206 713 1206 641 1206 c 0,6,7
 586 1206 586 1206 514 1148 c 128,-1,8
 442 1090 442 1090 406 1090 c 0,9,10
 370 1090 370 1090 346 1112 c 128,-1,11
 322 1134 322 1134 322 1165 c 0,12,13
 322 1227 322 1227 394 1276 c 128,-1,14
 466 1325 466 1325 567 1325 c 0,15,16
 747 1325 747 1325 854 1170 c 128,-1,17
 961 1015 961 1015 961 752 c 0,18,19
 961 417 961 417 816.5 196 c 128,-1,20
 672 -25 672 -25 459 -25 c 0,21,22
 307 -25 307 -25 205.5 83 c 128,-1,23
 104 191 104 191 104 354 c 0,24,25
 104 552 104 552 214.5 680.5 c 128,-1,26
 325 809 325 809 487 809 c 0,27,28
 588 809 588 809 653 763.5 c 128,-1,29
 718 718 718 718 756 621 c 1,0,1
707 494 m 0,30,31
 707 610 707 610 663.5 672.5 c 128,-1,32
 620 735 620 735 541 735 c 0,33,34
 432 735 432 735 361.5 606 c 128,-1,35
 291 477 291 477 291 270 c 0,36,37
 291 154 291 154 334 92.5 c 128,-1,38
 377 31 377 31 457 31 c 0,39,40
 566 31 566 31 636.5 161 c 128,-1,41
 707 291 707 291 707 494 c 0,30,31
EndSplineSet
EndChar
StartChar: Delta
Encoding: 8710 8710 168
Width: 1370
Flags: W
Fore
684 1262 m 1,0,-1
 266 178 l 1,1,-1
 1102 178 l 1,2,-1
 684 1262 l 1,0,-1
573 1473 m 1,3,-1
 797 1473 l 1,4,-1
 1376 0 l 1,5,-1
 -6 0 l 1,6,-1
 573 1473 l 1,3,-1
EndSplineSet
EndChar
StartChar: product
Encoding: 8719 8719 154
Width: 1550
Flags: W
Fore
156 1473 m 1,0,-1
 1393 1473 l 1,1,-1
 1393 -393 l 1,2,-1
 1153 -393 l 1,3,-1
 1153 1268 l 1,4,-1
 395 1268 l 1,5,-1
 395 -393 l 1,6,-1
 156 -393 l 1,7,-1
 156 1473 l 1,0,-1
EndSplineSet
EndChar
StartChar: summation
Encoding: 8721 8721 153
Width: 1380
Flags: W
Fore
55 1473 m 1,0,-1
 1313 1473 l 1,1,-1
 1313 1280 l 1,2,-1
 354 1280 l 1,3,-1
 1026 563 l 1,4,-1
 332 -201 l 1,5,-1
 1339 -201 l 1,6,-1
 1339 -393 l 1,7,-1
 25 -393 l 1,8,-1
 25 -244 l 1,9,-1
 750 557 l 1,10,-1
 55 1296 l 1,11,-1
 55 1473 l 1,0,-1
EndSplineSet
EndChar
StartChar: minus
Encoding: 8722 8722 238
Width: 1716
Flags: W
Fore
217 727 m 1,0,-1
 1499 727 l 1,1,-1
 1499 557 l 1,2,-1
 217 557 l 1,3,-1
 217 727 l 1,0,-1
EndSplineSet
EndChar
StartChar: fraction
Encoding: 8725 8725 188
Width: 342
Flags: W
Fore
557 1520 m 1,0,-1
 717 1520 l 1,1,-1
 -215 -29 l 1,2,-1
 -375 -29 l 1,3,-1
 557 1520 l 1,0,-1
EndSplineSet
EndChar
StartChar: periodcentered
Encoding: 8729 8729 257
Width: 651
Flags: W
Fore
219 838 m 1,0,-1
 430 838 l 1,1,-1
 430 584 l 1,2,-1
 219 584 l 1,3,-1
 219 838 l 1,0,-1
EndSplineSet
EndChar
StartChar: radical
Encoding: 8730 8730 165
Width: 1305
Flags: W
Fore
1116 1661 m 1,0,-1
 1305 1661 l 1,1,-1
 1305 1565 l 1,2,-1
 1190 1565 l 1,3,-1
 596 -41 l 1,4,-1
 530 -41 l 1,5,-1
 211 842 l 1,6,-1
 86 797 l 1,7,-1
 61 877 l 1,8,-1
 344 975 l 1,9,-1
 600 266 l 1,10,-1
 1116 1661 l 1,0,-1
EndSplineSet
EndChar
StartChar: infinity
Encoding: 8734 8734 146
Width: 1706
Flags: W
Fore
915 559 m 1,0,1
 964 471 964 471 1031 426 c 128,-1,2
 1098 381 1098 381 1182 381 c 0,3,4
 1283 381 1283 381 1347 448.5 c 128,-1,5
 1411 516 1411 516 1411 621 c 0,6,7
 1411 722 1411 722 1352 789 c 128,-1,8
 1293 856 1293 856 1204 856 c 0,9,10
 1122 856 1122 856 1055.5 788.5 c 128,-1,11
 989 721 989 721 915 559 c 1,0,1
793 666 m 1,12,13
 744 754 744 754 677.5 798 c 128,-1,14
 611 842 611 842 526 842 c 0,15,16
 424 842 424 842 360.5 776 c 128,-1,17
 297 710 297 710 297 604 c 0,18,19
 297 503 297 503 356 436 c 128,-1,20
 415 369 415 369 504 369 c 0,21,22
 586 369 586 369 653 437 c 128,-1,23
 720 505 720 505 793 666 c 1,12,13
864 483 m 1,24,25
 794 348 794 348 715.5 284.5 c 128,-1,26
 637 221 637 221 543 221 c 0,27,28
 407 221 407 221 314 332.5 c 128,-1,29
 221 444 221 444 221 610 c 0,30,31
 221 785 221 785 304.5 893 c 128,-1,32
 388 1001 388 1001 522 1001 c 0,33,34
 617 1001 617 1001 693.5 938 c 128,-1,35
 770 875 770 875 842 737 c 1,36,37
 910 875 910 875 989 940.5 c 128,-1,38
 1068 1006 1068 1006 1165 1006 c 0,39,40
 1299 1006 1299 1006 1393 893.5 c 128,-1,41
 1487 781 1487 781 1487 614 c 0,42,43
 1487 439 1487 439 1403.5 332 c 128,-1,44
 1320 225 1320 225 1186 225 c 0,45,46
 1092 225 1092 225 1017.5 284.5 c 128,-1,47
 943 344 943 344 864 483 c 1,24,25
EndSplineSet
EndChar
StartChar: integral
Encoding: 8747 8747 156
Width: 1067
Flags: W
Fore
311 -262 m 0,0,1
 417 -262 417 -262 431 426 c 0,2,3
 433 534 433 534 434 591 c 0,4,5
 446 1106 446 1106 541 1328 c 128,-1,6
 636 1550 636 1550 838 1550 c 0,7,8
 918 1550 918 1550 968 1508 c 128,-1,9
 1018 1466 1018 1466 1018 1401 c 0,10,11
 1018 1347 1018 1347 986 1315.5 c 128,-1,12
 954 1284 954 1284 899 1284 c 0,13,14
 857 1284 857 1284 829 1303 c 128,-1,15
 801 1322 801 1322 789 1357 c 0,16,17
 783 1372 783 1372 778.5 1408 c 128,-1,18
 774 1444 774 1444 758 1444 c 0,19,20
 651 1444 651 1444 637 825 c 0,21,22
 633 632 633 632 629 522 c 0,23,24
 612 43 612 43 517.5 -164 c 128,-1,25
 423 -371 423 -371 227 -371 c 0,26,27
 148 -371 148 -371 97.5 -329.5 c 128,-1,28
 47 -288 47 -288 47 -223 c 0,29,30
 47 -167 47 -167 81 -135.5 c 128,-1,31
 115 -104 115 -104 176 -104 c 0,32,33
 209 -104 209 -104 233 -118.5 c 128,-1,34
 257 -133 257 -133 272 -161 c 0,35,36
 282 -179 282 -179 287 -220.5 c 128,-1,37
 292 -262 292 -262 311 -262 c 0,0,1
EndSplineSet
EndChar
StartChar: approxequal
Encoding: 8776 8776 167
Width: 1716
Flags: W
Fore
1499 623 m 1,0,-1
 1499 444 l 1,1,2
 1394 366 1394 366 1304.5 331.5 c 128,-1,3
 1215 297 1215 297 1118 297 c 0,4,5
 1008 297 1008 297 862 356 c 0,6,7
 852 360 852 360 845 363 c 0,8,9
 839 365 839 365 824 371 c 0,10,11
 669 432 669 432 575 432 c 0,12,13
 487 432 487 432 401 394 c 128,-1,14
 315 356 315 356 217 272 c 1,15,-1
 217 451 l 1,16,17
 322 529 322 529 411.5 563.5 c 128,-1,18
 501 598 501 598 598 598 c 0,19,20
 708 598 708 598 855 539 c 0,21,22
 866 534 866 534 871 532 c 0,23,24
 877 530 877 530 892 524 c 0,25,26
 1047 463 1047 463 1141 463 c 0,27,28
 1227 463 1227 463 1311.5 500.5 c 128,-1,29
 1396 538 1396 538 1499 623 c 1,0,-1
1499 1012 m 1,30,-1
 1499 834 l 1,31,32
 1394 755 1394 755 1304.5 720.5 c 128,-1,33
 1215 686 1215 686 1118 686 c 0,34,35
 1008 686 1008 686 862 745 c 0,36,37
 852 749 852 749 845 752 c 0,38,39
 839 754 839 754 824 760 c 0,40,41
 669 821 669 821 575 821 c 0,42,43
 487 821 487 821 401 783 c 128,-1,44
 315 745 315 745 217 662 c 1,45,-1
 217 840 l 1,46,47
 322 918 322 918 411.5 952.5 c 128,-1,48
 501 987 501 987 598 987 c 0,49,50
 708 987 708 987 855 928 c 0,51,52
 865 924 865 924 870 922 c 0,53,54
 877 919 877 919 892 913 c 0,55,56
 1047 852 1047 852 1141 852 c 0,57,58
 1227 852 1227 852 1311.5 889.5 c 128,-1,59
 1396 927 1396 927 1499 1012 c 1,30,-1
EndSplineSet
EndChar
StartChar: notequal
Encoding: 8800 8800 143
Width: 1716
Flags: W
Fore
217 930 m 1,0,-1
 989 930 l 1,1,-1
 1245 1245 l 1,2,-1
 1370 1143 l 1,3,-1
 1196 930 l 1,4,-1
 1499 930 l 1,5,-1
 1499 762 l 1,6,-1
 1059 762 l 1,7,-1
 864 522 l 1,8,-1
 1499 522 l 1,9,-1
 1499 352 l 1,10,-1
 725 352 l 1,11,-1
 467 39 l 1,12,-1
 342 141 l 1,13,-1
 516 352 l 1,14,-1
 217 352 l 1,15,-1
 217 522 l 1,16,-1
 655 522 l 1,17,-1
 850 762 l 1,18,-1
 217 762 l 1,19,-1
 217 930 l 1,0,-1
EndSplineSet
Ligature: 0 1 'liga' equal uni0338
EndChar
StartChar: lessequal
Encoding: 8804 8804 148
Width: 1716
Flags: W
Fore
1499 1016 m 1,0,-1
 539 739 l 1,1,-1
 1499 465 l 1,2,-1
 1499 287 l 1,3,-1
 217 655 l 1,4,-1
 217 825 l 1,5,-1
 1499 1192 l 1,6,-1
 1499 1016 l 1,0,-1
217 170 m 1,7,-1
 1499 170 l 1,8,-1
 1499 0 l 1,9,-1
 217 0 l 1,10,-1
 217 170 l 1,7,-1
EndSplineSet
EndChar
StartChar: greaterequal
Encoding: 8805 8805 149
Width: 1716
Flags: W
Fore
217 1016 m 1,0,-1
 217 1192 l 1,1,-1
 1499 825 l 1,2,-1
 1499 655 l 1,3,-1
 217 287 l 1,4,-1
 217 465 l 1,5,-1
 1178 739 l 1,6,-1
 217 1016 l 1,0,-1
1499 170 m 1,7,-1
 1499 0 l 1,8,-1
 217 0 l 1,9,-1
 217 170 l 1,10,-1
 1499 170 l 1,7,-1
EndSplineSet
EndChar
StartChar: uni2423
Encoding: 9251 9251 150
Width: 1300
Flags: HMW
HStem: -466 170<314 986>
VStem: 146 168<-296 208> 986 168<-296 208>
Fore
314 -296 m 1,1,-1
 986 -296 l 1,4,-1
 986 208 l 1,3,-1
 1154 208 l 1,2,-1
 1154 -466 l 1,1,-1
 146 -466 l 1,0,-1
 146 208 l 1,3,-1
 314 208 l 1,2,-1
 314 -296 l 1,1,-1
EndSplineSet
EndChar
StartChar: lozenge
Encoding: 9674 9674 185
Width: 1012
Flags: W
Fore
506 1409 m 1,0,-1
 121 592 l 1,1,-1
 506 -233 l 1,2,-1
 891 592 l 1,3,-1
 506 1409 l 1,0,-1
506 1653 m 1,4,-1
 1006 592 l 1,5,-1
 506 -477 l 1,6,-1
 6 592 l 1,7,-1
 506 1653 l 1,4,-1
EndSplineSet
EndChar
StartChar: fi
Encoding: 64257 64257 192
Width: 1290
Flags: W
Fore
1098 1120 m 1,0,-1
 1098 0 l 1,1,-1
 913 0 l 1,2,-1
 913 977 l 1,3,-1
 408 977 l 1,4,-1
 408 0 l 1,5,-1
 223 0 l 1,6,-1
 223 977 l 1,7,-1
 47 977 l 1,8,-1
 47 1120 l 1,9,-1
 223 1120 l 1,10,-1
 223 1198 l 2,11,12
 223 1381 223 1381 309.5 1468.5 c 128,-1,13
 396 1556 396 1556 575 1556 c 2,14,-1
 760 1556 l 1,15,-1
 760 1403 l 1,16,-1
 584 1403 l 2,17,18
 485 1403 485 1403 446.5 1363 c 128,-1,19
 408 1323 408 1323 408 1219 c 2,20,-1
 408 1120 l 1,21,-1
 1098 1120 l 1,0,-1
913 1554 m 1,22,-1
 1098 1554 l 1,23,-1
 1098 1321 l 1,24,-1
 913 1321 l 1,25,-1
 913 1554 l 1,22,-1
EndSplineSet
Ligature: 0 0 'liga' f i
EndChar
StartChar: fl
Encoding: 64258 64258 193
Width: 1290
Flags: W
Fore
586 1556 m 2,0,-1
 1098 1556 l 1,1,-1
 1098 0 l 1,2,-1
 913 0 l 1,3,-1
 913 1403 l 1,4,-1
 584 1403 l 2,5,6
 485 1403 485 1403 446.5 1363 c 128,-1,7
 408 1323 408 1323 408 1219 c 2,8,-1
 408 1120 l 1,9,-1
 711 1120 l 1,10,-1
 711 977 l 1,11,-1
 408 977 l 1,12,-1
 408 0 l 1,13,-1
 223 0 l 1,14,-1
 223 977 l 1,15,-1
 47 977 l 1,16,-1
 47 1120 l 1,17,-1
 223 1120 l 1,18,-1
 223 1198 l 2,19,20
 223 1385 223 1385 310 1470.5 c 128,-1,21
 397 1556 397 1556 586 1556 c 2,0,-1
EndSplineSet
Ligature: 0 0 'liga' f l
EndChar
StartChar: dlLtcaron
Encoding: 65537 -1 194
Width: 1300
Flags: HW
Fore
1300 1554 m 1,0,-1
 1499 1554 l 1,1,-1
 1382 1178 l 1,2,-1
 1229 1178 l 1,3,-1
 1300 1554 l 1,0,-1
EndSplineSet
EndChar
StartChar: Dieresis
Encoding: 65538 -1 259
Width: 1024
Flags: W
Fore
606 1497 m 1,0,-1
 809 1497 l 1,1,-1
 809 1294 l 1,2,-1
 606 1294 l 1,3,-1
 606 1497 l 1,0,-1
215 1497 m 1,4,-1
 418 1497 l 1,5,-1
 418 1294 l 1,6,-1
 215 1294 l 1,7,-1
 215 1497 l 1,4,-1
EndSplineSet
EndChar
StartChar: Acute
Encoding: 65539 -1 260
Width: 1024
Flags: W
Fore
567 1526 m 1,0,-1
 752 1526 l 1,1,-1
 524 1262 l 1,2,-1
 371 1262 l 1,3,-1
 567 1526 l 1,0,-1
EndSplineSet
EndChar
StartChar: Tilde
Encoding: 65540 -1 261
Width: 1024
Flags: W
Fore
508 1337 m 1,0,-1
 451 1370 l 2,1,2
 426 1384 426 1384 410.5 1389.5 c 128,-1,3
 395 1395 395 1395 383 1395 c 0,4,5
 347 1395 347 1395 327 1370 c 128,-1,6
 307 1345 307 1345 307 1300 c 2,7,-1
 307 1294 l 1,8,-1
 182 1294 l 1,9,10
 182 1395 182 1395 233.5 1454 c 128,-1,11
 285 1513 285 1513 371 1513 c 0,12,13
 407 1513 407 1513 437.5 1505 c 128,-1,14
 468 1497 468 1497 516 1470 c 2,15,-1
 573 1440 l 2,16,17
 596 1427 596 1427 613 1421 c 128,-1,18
 630 1415 630 1415 645 1415 c 0,19,20
 677 1415 677 1415 697 1440.5 c 128,-1,21
 717 1466 717 1466 717 1507 c 2,22,-1
 717 1513 l 1,23,-1
 842 1513 l 1,24,25
 840 1413 840 1413 788.5 1353.5 c 128,-1,26
 737 1294 737 1294 653 1294 c 0,27,28
 619 1294 619 1294 589.5 1302 c 128,-1,29
 560 1310 560 1310 508 1337 c 1,0,-1
EndSplineSet
EndChar
StartChar: Grave
Encoding: 65541 -1 262
Width: 1024
Flags: W
Fore
455 1526 m 1,0,-1
 651 1262 l 1,1,-1
 498 1262 l 1,2,-1
 268 1526 l 1,3,-1
 455 1526 l 1,0,-1
EndSplineSet
EndChar
StartChar: Circumflex
Encoding: 65542 -1 263
Width: 1024
Flags: W
Fore
418 1528 m 1,0,-1
 606 1528 l 1,1,-1
 817 1262 l 1,2,-1
 678 1262 l 1,3,-1
 512 1440 l 1,4,-1
 346 1262 l 1,5,-1
 207 1262 l 1,6,-1
 418 1528 l 1,0,-1
EndSplineSet
EndChar
StartChar: Caron
Encoding: 65543 -1 264
Width: 1024
Flags: W
Fore
418 1262 m 1,0,-1
 207 1528 l 1,1,-1
 346 1528 l 1,2,-1
 512 1350 l 1,3,-1
 678 1528 l 1,4,-1
 817 1528 l 1,5,-1
 606 1262 l 1,6,-1
 418 1262 l 1,0,-1
EndSplineSet
EndChar
StartChar: c6467
Encoding: 65544 -1 265
Width: 821
Flags: W
Fore
477 1382 m 1,0,-1
 168 963 l 1,1,-1
 477 963 l 1,2,-1
 477 1382 l 1,0,-1
455 1503 m 1,3,-1
 621 1503 l 1,4,-1
 621 963 l 1,5,-1
 756 963 l 1,6,-1
 756 854 l 1,7,-1
 621 854 l 1,8,-1
 621 668 l 1,9,-1
 477 668 l 1,10,-1
 477 854 l 1,11,-1
 63 854 l 1,12,-1
 63 975 l 1,13,-1
 455 1503 l 1,3,-1
EndSplineSet
EndChar
StartChar: Breve
Encoding: 65545 -1 266
Width: 1024
Flags: W
Fore
199 1528 m 1,0,-1
 317 1528 l 1,1,2
 330 1474 330 1474 379.5 1445.5 c 128,-1,3
 429 1417 429 1417 512 1417 c 0,4,5
 594 1417 594 1417 642.5 1444.5 c 128,-1,6
 691 1472 691 1472 707 1528 c 1,7,-1
 825 1528 l 1,8,9
 815 1409 815 1409 735 1347.5 c 128,-1,10
 655 1286 655 1286 512 1286 c 0,11,12
 368 1286 368 1286 288.5 1347 c 128,-1,13
 209 1408 209 1408 199 1528 c 1,0,-1
EndSplineSet
EndChar
StartChar: Dotaccent
Encoding: 65546 -1 267
Width: 1024
Flags: W
Fore
410 1499 m 1,0,-1
 614 1499 l 1,1,-1
 614 1294 l 1,2,-1
 410 1294 l 1,3,-1
 410 1499 l 1,0,-1
EndSplineSet
EndChar
StartChar: Hungarumlaut
Encoding: 65547 -1 268
Width: 1024
Flags: HW
Fore
761 1526 m 1,0,-1
 946 1526 l 1,1,-1
 718 1262 l 1,2,-1
 565 1262 l 1,3,-1
 761 1526 l 1,0,-1
426 1526 m 1,0,-1
 611 1526 l 1,1,-1
 383 1262 l 1,2,-1
 230 1262 l 1,3,-1
 426 1526 l 1,0,-1
EndSplineSet
EndChar
StartChar: Doubleacute
Encoding: 65548 -1 269
Width: 1024
Flags: HW
Fore
263 1526 m 1,0,-1
 78 1526 l 1,1,-1
 306 1262 l 1,2,-1
 459 1262 l 1,3,-1
 263 1526 l 1,0,-1
598 1526 m 1,0,-1
 413 1526 l 1,1,-1
 641 1262 l 1,2,-1
 794 1262 l 1,3,-1
 598 1526 l 1,0,-1
EndSplineSet
EndChar
